<?xml version="1.0" encoding="utf-8"?>
<!-- Generator: Adobe Illustrator 19.2.1, SVG Export Plug-In . SVG Version: 6.00 Build 0)  -->
<svg version="1.1" id="Ebene_1" xmlns="http://www.w3.org/2000/svg" xmlns:xlink="http://www.w3.org/1999/xlink" x="0px" y="0px"
	 viewBox="0 0 1175 1565" style="enable-background:new 0 0 1175 1565;" xml:space="preserve">
<style type="text/css">
	.st0{fill:#1CA2C6;}
	.st1{fill:none;}
	.st2{fill:none;stroke:#FFFFFF;stroke-width:3;stroke-linecap:round;stroke-miterlimit:10;}
	.st3{fill:none;stroke:#FFFFFF;stroke-width:3;stroke-linecap:round;stroke-miterlimit:10;stroke-dasharray:0,10.981;}
	.st4{fill:#AA1E41;stroke:#771134;stroke-miterlimit:10;}
	.st5{fill:#AA1E41;}
	.st6{font-family:'HelenPro-Bold';}
	.st7{font-size:51.6794px;}
	.st8{font-family:'HelenPro-Regular';}
	.st9{font-size:20.5073px;}
	.st10{opacity:0.1;}
	.st11{clip-path:url(#SVGID_2_);}
	.st12{clip-path:url(#SVGID_6_);}
	.st13{clip-path:url(#SVGID_10_);}
	.st14{clip-path:url(#SVGID_14_);}
	.st15{clip-path:url(#SVGID_18_);}
	.st16{clip-path:url(#SVGID_22_);}
	.st17{fill-rule:evenodd;clip-rule:evenodd;fill:#FFFFFF;}
	.st18{clip-path:url(#SVGID_26_);}
	.st19{clip-path:url(#SVGID_30_);}
	.st20{clip-path:url(#SVGID_34_);}
	.st21{fill:#FFFFFF;}
	.st22{font-size:45.9751px;}
	.st23{fill:none;stroke:#FFFFFF;stroke-width:2;stroke-miterlimit:10;}
	.st24{clip-path:url(#SVGID_38_);}
	.st25{clip-path:url(#SVGID_42_);}
	.st26{clip-path:url(#SVGID_46_);}
	.st27{fill:#AA1E41;stroke:#761022;stroke-width:2;stroke-miterlimit:10;}
	.st28{font-size:23.4768px;}
	.st29{font-size:23.4957px;}
	.st30{clip-path:url(#SVGID_50_);}
	.st31{clip-path:url(#SVGID_54_);}
	.st32{clip-path:url(#SVGID_58_);}
	.st33{fill:#FFFFFF;stroke:#FFFFFF;stroke-miterlimit:10;}
	.st34{clip-path:url(#SVGID_62_);}
	.st35{clip-path:url(#SVGID_66_);}
	.st36{clip-path:url(#SVGID_70_);}
	.st37{font-size:24.1093px;}
	.st38{clip-path:url(#SVGID_74_);}
	.st39{clip-path:url(#SVGID_78_);}
	.st40{clip-path:url(#SVGID_82_);}
	.st41{clip-path:url(#SVGID_86_);}
	.st42{clip-path:url(#SVGID_90_);}
	.st43{clip-path:url(#SVGID_94_);}
	.st44{fill:#AA1E41;stroke:#7A1031;stroke-width:2;stroke-miterlimit:10;}
	.st45{clip-path:url(#SVGID_98_);}
	.st46{clip-path:url(#SVGID_102_);}
	.st47{clip-path:url(#SVGID_106_);}
	.st48{fill:#AA1E41;stroke:#831620;stroke-miterlimit:10;}
	.st49{font-size:30.1712px;}
	.st50{clip-path:url(#SVGID_110_);}
	.st51{clip-path:url(#SVGID_114_);}
	.st52{font-size:48px;}
	.st53{fill:#FFFFFF;stroke:#FFFFFF;stroke-width:5;stroke-miterlimit:10;}
</style>
<defs>
  <style type="text/css">
    @font-face {
      font-family: 'HelenPro-Regular';
      src: local('HelenProRegular.otf');
    }
  </style>
</defs>
<a xlink:href="https://onecloud.bg/bg/za-nas/sigurnost" >
	<path class="st0" d="M60,0c15.2,28,37.3,50.4,63.5,64.1c-5.7,11.6-9,25.1-9,39.5c0,31.8,16,59.3,39.1,72.1
		c-10.7,10-17.6,25.4-17.6,42.7c0,29.8,20.5,54,45.9,54.7v1.9c-16.1,0-29.2,15.2-29.2,34c0,2,0.2,4,0.5,5.9
		c-32.4,13.7-55.5,49.8-55.5,92.3c0,39.2,19.7,73,48.2,88.7c-8.1,10.2-13.1,23.9-13.1,38.9c0,9.8,2.1,18.9,5.8,27
		c-32.6,18.7-55,57.7-55,102.8c0,24.4,6.6,47.1,17.8,65.7c-33.9,28.9-56,75.6-56,128.3c0,51.3,20.9,97,53.4,126
		c1.4,37.3,20.7,69.3,48.1,84.4c-8.1,10.2-13.1,23.9-13.1,38.9c0,9.8,2.1,18.9,5.8,27c-32.6,18.7-55,57.7-55,102.8
		c0,24.4,6.6,47.1,17.8,65.7c-33.9,28.9-56,75.6-56,128.3c0,55.9,24.8,105,62.2,133.3h74.3h74.3h509.4v0.2H1175V0H60z"/>
	<path class="st1" d="M2073-2505.8"/>
	<path class="st1" d="M2073,3114.2"/>
	<path class="st1" d="M3153,3114.2"/>
	<path class="st1" d="M3153-2505.8"/>
	<path class="st1" d="M2080-2067.4"/>
	<path class="st1" d="M2080,3551.6"/>
	<path class="st1" d="M3160,3551.6"/>
	<path class="st1" d="M3160-2067.4"/>
	<path class="st1" d="M2080-2067.4"/>
	<path class="st1" d="M2080,3551.6"/>
	<path class="st1" d="M3160,3551.6"/>
	<path class="st1" d="M3160-2067.4"/>
	<path class="st1" d="M2080-2067.4"/>
	<path class="st1" d="M2080,3551.6"/>
	<path class="st1" d="M3160,3551.6"/>
	<path class="st1" d="M3160-2067.4"/>
	<path class="st1" d="M3153,3114.2"/>
	<path class="st1" d="M3153-2505.8"/>
	<path class="st1" d="M2073-2505.8"/>
	<path class="st1" d="M2073,3114.2"/>
	<path class="st1" d="M3160,3551.6"/>
	<path class="st1" d="M3160-2067.4"/>
	<path class="st1" d="M2080-2067.4"/>
	<path class="st1" d="M2080,3551.6"/>
	<path class="st1" d="M3160,3551.6"/>
	<path class="st1" d="M3160-2067.4"/>
	<path class="st1" d="M2080-2067.4"/>
	<path class="st1" d="M2080,3551.6"/>
	<path class="st1" d="M3160,3551.6"/>
	<path class="st1" d="M3160-2067.4"/>
	<path class="st1" d="M2080-2067.4"/>
	<path class="st1" d="M2080,3551.6"/>
</a>
<line class="st2" x1="678" y1="205.4" x2="678" y2="205.4"/>
<line class="st3" x1="678" y1="215.3" x2="678" y2="1406.4"/>
<line class="st2" x1="678" y1="1414.3" x2="678" y2="1414.3"/>
<line class="st2" x1="603.6" y1="205.4" x2="603.6" y2="205.4"/>
<line class="st3" x1="603.6" y1="215.3" x2="603.6" y2="1406.4"/>
<line class="st2" x1="603.6" y1="1414.3" x2="603.6" y2="1414.3"/>
<line class="st4" x1="587.1" y1="1323.2" x2="500" y2="1323.2"/>
<text transform="matrix(1 -2.700000e-03 2.700000e-03 1 847.7526 233.3728)" class="st5 st6 st7">2007</text>
<path class="st5" d="M308.3,1368.6l0.2-3.6l0.2,0c6.1,0.3,12.2,0.4,18.4,0.4c12.3,0,24.8-0.4,37.3-0.4h106.4l0.1,0c0,0,0.3,0,1,0
	c3,0.1,11.6-0.7,16-5c5.8-5.3,9-13.6,9.5-22.7c0-0.7,0.1-1.5,0.1-2.2c0-19.5-15.2-35.9-34.9-37c-0.7,0-1.5-0.1-2.2-0.1
	c-1.7,0-3.3,0.1-4.9,0.3l-3.6,0.5l-0.5-3.6c-2.4-19-20.3-34.9-43.3-36.2c-1-0.1-2.1-0.1-3.1-0.1c-16,0-30.2,7.3-38.1,18.3l-1.7,2.3
	l-2.6-1.1c-3.1-1.3-6.4-2.1-10-2.3c-0.6,0-1.2-0.1-1.8-0.1c-14.3,0.1-28.9,9.4-29,25.9c0,0.7,0,1.3,0.1,2l0.3,4.1l-4.1-0.3
	c-0.8-0.1-1.6-0.1-2.4-0.1c-18.9,0-30,16.8-30.1,32.6c0.3,12.8,6.7,23.5,22.9,24.6l0,0L308.3,1368.6l-0.2,3.6
	c-20.1-1-29.9-16.4-29.7-31.8c0-18.8,13.5-39.7,37.3-39.8c1,0,1.9,0,2.9,0.1l-0.3,3.6l-3.6,0.2c-0.1-0.9-0.1-1.7-0.1-2.5
	c0.1-21.4,19-33,36.1-33c0.7,0,1.5,0,2.2,0.1c4.4,0.3,8.5,1.2,12.3,2.8l-1.4,3.3l-2.9-2.1c9.5-13,25.7-21.3,44-21.3
	c1.2,0,2.3,0,3.5,0.1c26,1.5,47,19.6,50,42.5l-3.6,0.5l-0.5-3.6c1.9-0.3,3.9-0.4,5.9-0.4c0.9,0,1.7,0,2.6,0.1
	c23.5,1.4,41.7,20.9,41.7,44.2c0,0.9,0,1.7-0.1,2.6c-0.6,10.4-4.3,20.6-11.8,27.5c-7.3,6.6-17.2,6.8-20.9,6.9c-0.9,0-1.4,0-1.5,0
	l0.2-3.6v3.6H364.4c-12.3,0-24.7,0.4-37.3,0.4c-6.3,0-12.5-0.1-18.8-0.5c0,0-0.2,0-0.2,0l0,0h0L308.3,1368.6z"/>
<path class="st5" d="M303.8,1098.6l0.2-3.6l0.2,0c6.1,0.3,12.2,0.4,18.4,0.4c12.3,0,24.8-0.4,37.3-0.4h106.4l0.1,0c0,0,0.3,0,1,0
	c3,0.1,11.6-0.7,16-5c5.8-5.3,9-13.6,9.5-22.7c0-0.7,0.1-1.5,0.1-2.2c0-19.5-15.2-35.9-34.9-37c-0.7,0-1.5-0.1-2.2-0.1
	c-1.7,0-3.3,0.1-4.9,0.3l-3.6,0.5l-0.5-3.6c-2.4-19-20.3-34.9-43.3-36.2c-1-0.1-2.1-0.1-3.1-0.1c-16,0-30.2,7.3-38.1,18.3l-1.7,2.3
	l-2.6-1.1c-3.1-1.3-6.4-2.1-10-2.3c-0.6,0-1.2-0.1-1.8-0.1c-14.3,0.1-28.9,9.4-29,25.9c0,0.7,0,1.3,0.1,2l0.3,4.1l-4.1-0.3
	c-0.8-0.1-1.6-0.1-2.4-0.1c-18.9,0-30,16.8-30.1,32.6c0.3,12.8,6.7,23.5,22.9,24.6l0,0L303.8,1098.6l-0.2,3.6
	c-20.1-1-29.9-16.4-29.7-31.8c0-18.8,13.5-39.7,37.3-39.8c1,0,1.9,0,2.9,0.1l-0.3,3.6l-3.6,0.3c-0.1-0.9-0.1-1.7-0.1-2.5
	c0.1-21.4,19-33,36.1-33c0.7,0,1.5,0,2.2,0.1c4.4,0.3,8.5,1.2,12.3,2.8l-1.4,3.3l-2.9-2.1c9.5-13,25.7-21.3,44-21.3
	c1.2,0,2.3,0,3.5,0.1c26,1.5,47,19.6,50,42.5l-3.6,0.5l-0.5-3.6c1.9-0.3,3.9-0.4,5.9-0.4c0.9,0,1.7,0,2.6,0.1
	c23.5,1.4,41.7,20.9,41.7,44.2c0,0.9,0,1.7-0.1,2.6c-0.6,10.4-4.3,20.6-11.8,27.5c-7.3,6.6-17.2,6.8-20.9,6.9c-0.9,0-1.4,0-1.5,0
	l0.2-3.6v3.6H359.8c-12.3,0-24.7,0.4-37.3,0.4c-6.3,0-12.5-0.1-18.8-0.5c0,0-0.2,0-0.2,0l0,0h0L303.8,1098.6z"/>
<text transform="matrix(1 0 0 1 755.8088 312.7602)" class="st5 st8 st9">CloudIT e първият бранд на </text>
<text transform="matrix(1 0 0 1 781.6711 336.267)" class="st5 st8 st9">Стоун, който предлага </text>
<text transform="matrix(1 0 0 1 803.7131 360.7753)" class="st5 st8 st9">облачни решения </text>
<g class="st10">
	<g>
		<defs>
			<rect id="SVGID_1_" x="555.4" y="1301.2" width="51.7" height="51.7"/>
		</defs>
		<clipPath id="SVGID_2_">
			<use xlink:href="#SVGID_1_"  style="overflow:visible;"/>
		</clipPath>
		<g class="st11">
			<defs>
				<rect id="SVGID_3_" x="555.4" y="1301.2" width="51.7" height="51.7"/>
			</defs>
			<clipPath id="SVGID_4_">
				<use xlink:href="#SVGID_3_"  style="overflow:visible;"/>
			</clipPath>
			<g style="clip-path:url(#SVGID_4_);">
				
					<image style="overflow:visible;" width="36" height="36" xlink:href="806CE12E483CDC35.png"  transform="matrix(1.4367 0 0 1.4367 555.4055 1301.2354)">
				</image>
			</g>
		</g>
	</g>
</g>
<path class="st5" d="M581,1336.5c-6.7,0-12.2-5.4-12.2-12.2c0-6.7,5.4-12.2,12.2-12.2c6.7,0,12.2,5.4,12.2,12.2
	C593.1,1331.1,587.7,1336.5,581,1336.5"/>
<g class="st10">
	<g>
		<defs>
			<rect id="SVGID_5_" x="558.3" y="1248.1" width="46" height="47.4"/>
		</defs>
		<clipPath id="SVGID_6_">
			<use xlink:href="#SVGID_5_"  style="overflow:visible;"/>
		</clipPath>
		<g class="st12">
			<defs>
				<rect id="SVGID_7_" x="558.3" y="1248.1" width="46" height="47.4"/>
			</defs>
			<clipPath id="SVGID_8_">
				<use xlink:href="#SVGID_7_"  style="overflow:visible;"/>
			</clipPath>
			<g style="clip-path:url(#SVGID_8_);">
				
					<image style="overflow:visible;" width="32" height="33" xlink:href="806CE12E483CDC37.png"  transform="matrix(1.4367 0 0 1.4367 558.2784 1248.0776)">
				</image>
			</g>
		</g>
	</g>
</g>
<path class="st5" d="M581,1278.7c-5.4,0-9.7-4.4-9.7-9.7c0-5.4,4.4-9.7,9.7-9.7c5.4,0,9.7,4.4,9.7,9.7
	C590.7,1274.3,586.3,1278.7,581,1278.7"/>
<g class="st10">
	<g>
		<defs>
			<rect id="SVGID_9_" x="558.3" y="1358.7" width="46" height="47.4"/>
		</defs>
		<clipPath id="SVGID_10_">
			<use xlink:href="#SVGID_9_"  style="overflow:visible;"/>
		</clipPath>
		<g class="st13">
			<defs>
				<rect id="SVGID_11_" x="558.3" y="1358.7" width="46" height="47.4"/>
			</defs>
			<clipPath id="SVGID_12_">
				<use xlink:href="#SVGID_11_"  style="overflow:visible;"/>
			</clipPath>
			<g style="clip-path:url(#SVGID_12_);">
				
					<image style="overflow:visible;" width="32" height="33" xlink:href="806CE12E483CDC32.png"  transform="matrix(1.4367 0 0 1.4367 558.2784 1358.7045)">
				</image>
			</g>
		</g>
	</g>
</g>
<path class="st5" d="M581,1389.5c-5.4,0-9.7-4.4-9.7-9.7c0-5.4,4.4-9.7,9.7-9.7c5.4,0,9.7,4.4,9.7,9.7
	C590.7,1385.1,586.3,1389.5,581,1389.5"/>
<g class="st10">
	<g>
		<defs>
			<rect id="SVGID_13_" x="674.7" y="1251" width="51.7" height="51.7"/>
		</defs>
		<clipPath id="SVGID_14_">
			<use xlink:href="#SVGID_13_"  style="overflow:visible;"/>
		</clipPath>
		<g class="st14">
			<defs>
				<rect id="SVGID_15_" x="674.7" y="1251" width="51.7" height="51.7"/>
			</defs>
			<clipPath id="SVGID_16_">
				<use xlink:href="#SVGID_15_"  style="overflow:visible;"/>
			</clipPath>
			<g style="clip-path:url(#SVGID_16_);">
				
					<image style="overflow:visible;" width="36" height="36" xlink:href="806CE12E483CDC33.png"  transform="matrix(1.4367 0 0 1.4367 674.6534 1250.9506)">
				</image>
			</g>
		</g>
	</g>
</g>
<path class="st4" d="M700.5,1292.5c-6.7,0-12.2-5.4-12.2-12.2c0-6.7,5.4-12.2,12.2-12.2c6.7,0,12.2,5.4,12.2,12.2
	C712.7,1287,707.2,1292.5,700.5,1292.5"/>
<g class="st10">
	<g>
		<defs>
			<rect id="SVGID_17_" x="677.5" y="1199.2" width="46" height="46"/>
		</defs>
		<clipPath id="SVGID_18_">
			<use xlink:href="#SVGID_17_"  style="overflow:visible;"/>
		</clipPath>
		<g class="st15">
			<defs>
				<rect id="SVGID_19_" x="677.5" y="1199.2" width="46" height="46"/>
			</defs>
			<clipPath id="SVGID_20_">
				<use xlink:href="#SVGID_19_"  style="overflow:visible;"/>
			</clipPath>
			<g style="clip-path:url(#SVGID_20_);">
				
					<image style="overflow:visible;" width="32" height="32" xlink:href="806CE12E483CDC3D.png"  transform="matrix(1.4367 0 0 1.4367 677.5256 1199.2285)">
				</image>
			</g>
		</g>
	</g>
</g>
<path class="st4" d="M700.5,1234.7c-5.4,0-9.7-4.4-9.7-9.7c0-5.4,4.4-9.7,9.7-9.7c5.4,0,9.7,4.4,9.7,9.7
	C710.2,1230.3,705.9,1234.7,700.5,1234.7"/>
<g class="st10">
	<g>
		<defs>
			<rect id="SVGID_21_" x="677.5" y="1309.9" width="46" height="46"/>
		</defs>
		<clipPath id="SVGID_22_">
			<use xlink:href="#SVGID_21_"  style="overflow:visible;"/>
		</clipPath>
		<g class="st16">
			<defs>
				<rect id="SVGID_23_" x="677.5" y="1309.9" width="46" height="46"/>
			</defs>
			<clipPath id="SVGID_24_">
				<use xlink:href="#SVGID_23_"  style="overflow:visible;"/>
			</clipPath>
			<g style="clip-path:url(#SVGID_24_);">
				
					<image style="overflow:visible;" width="32" height="32" xlink:href="806CE12E483CDC3F.png"  transform="matrix(1.4367 0 0 1.4367 677.5256 1309.856)">
				</image>
			</g>
		</g>
	</g>
</g>
<path class="st4" d="M700.5,1345.4c-5.4,0-9.7-4.4-9.7-9.7c0-5.4,4.4-9.7,9.7-9.7c5.4,0,9.7,4.4,9.7,9.7
	C710.2,1341.1,705.9,1345.4,700.5,1345.4"/>
<rect x="617.4" y="200.7" class="st17" width="49.6" height="1214.8"/>
<text transform="matrix(1 -2.700000e-03 2.700000e-03 1 844.878 488.8751)" class="st5 st6 st7">2008</text>
<line class="st5" x1="587.1" y1="1056.9" x2="500" y2="1056.9"/>
<text transform="matrix(1 0 0 1 773.0334 567.2787)" class="st5 st8 st9">Първата CloudIT сделка </text>
<g class="st10">
	<g>
		<defs>
			<rect id="SVGID_25_" x="555.4" y="1034" width="51.7" height="51.7"/>
		</defs>
		<clipPath id="SVGID_26_">
			<use xlink:href="#SVGID_25_"  style="overflow:visible;"/>
		</clipPath>
		<g class="st18">
			<defs>
				<rect id="SVGID_27_" x="555.4" y="1034" width="51.7" height="51.7"/>
			</defs>
			<clipPath id="SVGID_28_">
				<use xlink:href="#SVGID_27_"  style="overflow:visible;"/>
			</clipPath>
			<g style="clip-path:url(#SVGID_28_);">
				
					<image style="overflow:visible;" width="36" height="36" xlink:href="806CE12E483CDC30.png"  transform="matrix(1.4367 0 0 1.4367 555.4055 1034.0052)">
				</image>
			</g>
		</g>
	</g>
</g>
<path class="st5" d="M581,1069c-6.7,0-12.2-5.4-12.2-12.2c0-6.7,5.4-12.2,12.2-12.2c6.7,0,12.2,5.4,12.2,12.2
	C593.1,1063.6,587.7,1069,581,1069"/>
<g class="st10">
	<g>
		<defs>
			<rect id="SVGID_29_" x="558.3" y="980.8" width="46" height="47.4"/>
		</defs>
		<clipPath id="SVGID_30_">
			<use xlink:href="#SVGID_29_"  style="overflow:visible;"/>
		</clipPath>
		<g class="st19">
			<defs>
				<rect id="SVGID_31_" x="558.3" y="980.8" width="46" height="47.4"/>
			</defs>
			<clipPath id="SVGID_32_">
				<use xlink:href="#SVGID_31_"  style="overflow:visible;"/>
			</clipPath>
			<g transform="matrix(1 0 0 1 0 6.103516e-05)" style="clip-path:url(#SVGID_32_);">
				
					<image style="overflow:visible;" width="32" height="33" xlink:href="806CE12E483CDC31.png"  transform="matrix(1.4367 0 0 1.4367 558.2784 980.8466)">
				</image>
			</g>
		</g>
	</g>
</g>
<path class="st5" d="M581,1011.2c-5.4,0-9.7-4.4-9.7-9.7c0-5.4,4.4-9.7,9.7-9.7c5.4,0,9.7,4.4,9.7,9.7
	C590.7,1006.8,586.3,1011.2,581,1011.2"/>
<g class="st10">
	<g>
		<defs>
			<rect id="SVGID_33_" x="558.3" y="1091.5" width="46" height="47.4"/>
		</defs>
		<clipPath id="SVGID_34_">
			<use xlink:href="#SVGID_33_"  style="overflow:visible;"/>
		</clipPath>
		<g class="st20">
			<defs>
				<rect id="SVGID_35_" x="558.3" y="1091.5" width="46" height="47.4"/>
			</defs>
			<clipPath id="SVGID_36_">
				<use xlink:href="#SVGID_35_"  style="overflow:visible;"/>
			</clipPath>
			<g style="clip-path:url(#SVGID_36_);">
				
					<image style="overflow:visible;" width="32" height="33" xlink:href="806CE12E483CDC36.png"  transform="matrix(1.4367 0 0 1.4367 558.2784 1091.4741)">
				</image>
			</g>
		</g>
	</g>
</g>
<path class="st5" d="M581,1121.9c-5.4,0-9.7-4.4-9.7-9.7c0-5.4,4.4-9.7,9.7-9.7c5.4,0,9.7,4.4,9.7,9.7
	C590.7,1117.6,586.3,1121.9,581,1121.9"/>
<text transform="matrix(1 0 0 1 337.5661 296.914)" class="st21 st6 st22">2008</text>
<line class="st23" x1="787.6" y1="1029.6" x2="700.5" y2="1029.6"/>
<text transform="matrix(1 0 0 1 755.8088 815.142)" class="st5 st8 st9">CloudIT – сертифициран за </text>
<text transform="matrix(1 0 0 1 826.2726 835.6494)" class="st5 st8 st9">ИТ сигурност </text>
<g class="st10">
	<g>
		<defs>
			<rect id="SVGID_37_" x="555.4" y="758.2" width="51.7" height="51.7"/>
		</defs>
		<clipPath id="SVGID_38_">
			<use xlink:href="#SVGID_37_"  style="overflow:visible;"/>
		</clipPath>
		<g class="st24">
			<defs>
				<rect id="SVGID_39_" x="555.4" y="758.2" width="51.7" height="51.7"/>
			</defs>
			<clipPath id="SVGID_40_">
				<use xlink:href="#SVGID_39_"  style="overflow:visible;"/>
			</clipPath>
			<g style="clip-path:url(#SVGID_40_);">
				
					<image style="overflow:visible;" width="36" height="36" xlink:href="8FBC8BB070CBD3BE.png"  transform="matrix(1.4367 0 0 1.4367 555.4055 758.1538)">
				</image>
			</g>
		</g>
	</g>
</g>
<path class="st21" d="M581,793.9c-6.7,0-12.2-5.4-12.2-12.2c0-6.7,5.4-12.2,12.2-12.2c6.7,0,12.2,5.4,12.2,12.2
	C593.1,788.4,587.7,793.9,581,793.9"/>
<g class="st10">
	<g>
		<defs>
			<rect id="SVGID_41_" x="558.3" y="706.4" width="46" height="46"/>
		</defs>
		<clipPath id="SVGID_42_">
			<use xlink:href="#SVGID_41_"  style="overflow:visible;"/>
		</clipPath>
		<g class="st25">
			<defs>
				<rect id="SVGID_43_" x="558.3" y="706.4" width="46" height="46"/>
			</defs>
			<clipPath id="SVGID_44_">
				<use xlink:href="#SVGID_43_"  style="overflow:visible;"/>
			</clipPath>
			<g style="clip-path:url(#SVGID_44_);">
				
					<image style="overflow:visible;" width="32" height="32" xlink:href="8FBC8BB070CBD3B9.png"  transform="matrix(1.4367 0 0 1.4367 558.2784 706.4321)">
				</image>
			</g>
		</g>
	</g>
</g>
<path class="st21" d="M581,736c-5.4,0-9.7-4.4-9.7-9.7s4.4-9.7,9.7-9.7c5.4,0,9.7,4.4,9.7,9.7S586.3,736,581,736"/>
<g class="st10">
	<g>
		<defs>
			<rect id="SVGID_45_" x="558.3" y="817.1" width="46" height="46"/>
		</defs>
		<clipPath id="SVGID_46_">
			<use xlink:href="#SVGID_45_"  style="overflow:visible;"/>
		</clipPath>
		<g class="st26">
			<defs>
				<rect id="SVGID_47_" x="558.3" y="817.1" width="46" height="46"/>
			</defs>
			<clipPath id="SVGID_48_">
				<use xlink:href="#SVGID_47_"  style="overflow:visible;"/>
			</clipPath>
			<g style="clip-path:url(#SVGID_48_);">
				
					<image style="overflow:visible;" width="32" height="32" xlink:href="8FBC8BB070CBD3BA.png"  transform="matrix(1.4367 0 0 1.4367 558.2784 817.06)">
				</image>
			</g>
		</g>
	</g>
</g>
<path class="st21" d="M581,846.8c-5.4,0-9.7-4.4-9.7-9.7c0-5.4,4.4-9.7,9.7-9.7c5.4,0,9.7,4.4,9.7,9.7
	C590.7,842.4,586.3,846.8,581,846.8"/>
<line class="st27" x1="787.6" y1="740.9" x2="700.5" y2="740.9"/>
<path class="st5" d="M813.9,766.4l0.2-3.6l0.2,0c6.1,0.3,12.2,0.4,18.4,0.4c12.3,0,24.8-0.4,37.3-0.4h106.4l0.1,0c0,0,0.3,0,1,0
	c3,0.1,11.6-0.7,16-5c5.8-5.3,9-13.6,9.5-22.7c0-0.7,0.1-1.5,0.1-2.2c0-19.5-15.2-35.9-34.9-37c-0.7,0-1.5-0.1-2.2-0.1
	c-1.7,0-3.3,0.1-4.9,0.3l-3.6,0.5l-0.5-3.6c-2.4-19-20.3-34.9-43.3-36.2c-1-0.1-2.1-0.1-3.1-0.1c-16,0-30.2,7.3-38.2,18.3l-1.7,2.3
	l-2.6-1.1c-3.1-1.3-6.4-2.1-10-2.3c-0.6,0-1.2-0.1-1.8-0.1c-14.3,0.1-28.9,9.4-29,25.9c0,0.7,0,1.3,0.1,2l0.3,4.1l-4.1-0.3
	c-0.8-0.1-1.6-0.1-2.4-0.1c-18.9,0-30,16.8-30.1,32.6c0.3,12.8,6.7,23.5,22.9,24.6h0L813.9,766.4l-0.2,3.6
	c-20.1-1-29.9-16.4-29.7-31.8c0-18.8,13.5-39.7,37.3-39.8c1,0,1.9,0,2.9,0.1l-0.3,3.6l-3.6,0.3c-0.1-0.9-0.1-1.7-0.1-2.5
	c0.1-21.4,19-33,36.1-33c0.7,0,1.5,0,2.2,0.1c4.4,0.3,8.5,1.2,12.3,2.8l-1.4,3.3l-2.9-2.1c9.5-13,25.7-21.3,44-21.3
	c1.2,0,2.3,0,3.5,0.1c26,1.5,47,19.6,50,42.5l-3.6,0.5l-0.5-3.6c1.9-0.3,3.9-0.4,5.9-0.4c0.9,0,1.7,0,2.6,0.1
	c23.5,1.4,41.7,20.9,41.7,44.2c0,0.9,0,1.7-0.1,2.6c-0.6,10.4-4.3,20.6-11.8,27.5c-7.3,6.6-17.2,6.8-20.9,6.9c-0.9,0-1.4,0-1.5,0
	l0.2-3.6v3.6H870c-12.3,0-24.7,0.4-37.3,0.4c-6.3,0-12.5-0.1-18.8-0.5c0,0-0.2,0-0.2,0h0h0L813.9,766.4z"/>
<path class="st5" d="M822,1308.7l0.2-3.6l0.2,0c6.1,0.3,12.2,0.4,18.4,0.4c12.3,0,24.8-0.4,37.3-0.4h106.4l0.1,0c0,0,0.3,0,1,0
	c3,0.1,11.6-0.7,16-5c5.8-5.3,9-13.6,9.5-22.7c0-0.7,0.1-1.5,0.1-2.2c0-19.5-15.2-35.9-34.9-37c-0.7,0-1.5-0.1-2.2-0.1
	c-1.7,0-3.3,0.1-4.9,0.3l-3.6,0.5l-0.5-3.6c-2.4-19-20.3-34.9-43.3-36.2c-1-0.1-2.1-0.1-3.1-0.1c-16,0-30.2,7.3-38.1,18.3l-1.7,2.3
	l-2.6-1.1c-3.1-1.3-6.4-2.1-10-2.3c-0.6,0-1.2-0.1-1.8-0.1c-14.3,0.1-28.9,9.4-29,25.9c0,0.7,0,1.3,0.1,2l0.3,4.1l-4.1-0.3
	c-0.8-0.1-1.6-0.1-2.4-0.1c-18.9,0-30,16.8-30.1,32.6c0.3,12.8,6.7,23.5,22.9,24.6h0L822,1308.7l-0.2,3.6
	c-20.1-1-29.9-16.4-29.7-31.8c0-18.8,13.5-39.7,37.3-39.8c1,0,1.9,0,2.9,0.1l-0.3,3.6l-3.6,0.3c-0.1-0.9-0.1-1.7-0.1-2.5
	c0.1-21.4,19-33,36.1-33c0.7,0,1.5,0,2.2,0.1c4.4,0.3,8.5,1.2,12.3,2.8l-1.4,3.3l-2.9-2.1c9.5-13,25.7-21.3,44-21.3
	c1.2,0,2.3,0,3.5,0.1c26,1.5,47,19.6,50,42.5l-3.6,0.5l-0.5-3.6c1.9-0.3,3.9-0.4,5.9-0.4c0.9,0,1.7,0,2.6,0.1
	c23.5,1.4,41.7,20.9,41.7,44.2c0,0.9,0,1.7-0.1,2.6c-0.6,10.4-4.3,20.6-11.8,27.5c-7.3,6.6-17.2,6.8-20.9,6.9c-0.9,0-1.4,0-1.5,0
	l0.2-3.6v3.6H878.1c-12.3,0-24.7,0.4-37.3,0.4c-6.3,0-12.5-0.1-18.8-0.5c0,0-0.2,0-0.2,0h0h0L822,1308.7z"/>
<line class="st27" x1="792.4" y1="1280" x2="705.2" y2="1280"/>
<text transform="matrix(1 0 0 1 852.4426 736.6118)" class="st5 st6 st22">2010</text>
<text transform="matrix(1 0 0 1 217.1013 857.6288)"><tspan x="0" y="0" class="st21 st8 st28">Rackspace Hosting и NASA</tspan><tspan x="0" y="28.2" class="st21 st8 st28"> </tspan><tspan x="0" y="56.3" class="st21 st8 st28">   представиха  </tspan></text>
<text transform="matrix(1 -2.700000e-03 2.700000e-03 1 846.3163 1023.7531)" class="st21 st6 st7">2011</text>
<text transform="matrix(1 0 0 1 337.5661 544.9243)" class="st21 st6 st22">2008</text>
<text transform="matrix(1 0 0 1 217.8679 379.3569)" class="st21 st8 st29">През април                        </text>
<text transform="matrix(1 0 0 1 253.2585 417.7065)" class="st21 st8 st29">Беше анонсиран </text>
<text transform="matrix(1 0 0 1 292.5124 662.2499)" class="st21 st8 st9">Беше представен </text>
<g class="st10">
	<g>
		<defs>
			<rect id="SVGID_49_" x="674.7" y="1001" width="51.7" height="51.7"/>
		</defs>
		<clipPath id="SVGID_50_">
			<use xlink:href="#SVGID_49_"  style="overflow:visible;"/>
		</clipPath>
		<g class="st30">
			<defs>
				<rect id="SVGID_51_" x="674.7" y="1001" width="51.7" height="51.7"/>
			</defs>
			<clipPath id="SVGID_52_">
				<use xlink:href="#SVGID_51_"  style="overflow:visible;"/>
			</clipPath>
			<g transform="matrix(1 0 0 1 0 6.103516e-05)" style="clip-path:url(#SVGID_52_);">
				
					<image style="overflow:visible;" width="36" height="36" xlink:href="8FBC8BB070CBD3B8.png"  transform="matrix(1.4367 0 0 1.4367 674.6534 1000.9609)">
				</image>
			</g>
		</g>
	</g>
</g>
<path class="st21" d="M700.5,1041.9c-6.7,0-12.2-5.4-12.2-12.2c0-6.7,5.4-12.2,12.2-12.2c6.7,0,12.2,5.4,12.2,12.2
	C712.7,1036.4,707.2,1041.9,700.5,1041.9"/>
<g class="st10">
	<g>
		<defs>
			<rect id="SVGID_53_" x="677.5" y="947.8" width="46" height="47.4"/>
		</defs>
		<clipPath id="SVGID_54_">
			<use xlink:href="#SVGID_53_"  style="overflow:visible;"/>
		</clipPath>
		<g class="st31">
			<defs>
				<rect id="SVGID_55_" x="677.5" y="947.8" width="46" height="47.4"/>
			</defs>
			<clipPath id="SVGID_56_">
				<use xlink:href="#SVGID_55_"  style="overflow:visible;"/>
			</clipPath>
			<g style="clip-path:url(#SVGID_56_);">
				
					<image style="overflow:visible;" width="32" height="33" xlink:href="8FBC8BB070CBD3B6.png"  transform="matrix(1.4367 0 0 1.4367 677.5256 947.8022)">
				</image>
			</g>
		</g>
	</g>
</g>
<path class="st21" d="M700.5,984.1c-5.4,0-9.7-4.4-9.7-9.7c0-5.4,4.4-9.7,9.7-9.7c5.4,0,9.7,4.4,9.7,9.7
	C710.2,979.7,705.9,984.1,700.5,984.1"/>
<g class="st10">
	<g>
		<defs>
			<rect id="SVGID_57_" x="677.5" y="1058.4" width="46" height="47.4"/>
		</defs>
		<clipPath id="SVGID_58_">
			<use xlink:href="#SVGID_57_"  style="overflow:visible;"/>
		</clipPath>
		<g class="st32">
			<defs>
				<rect id="SVGID_59_" x="677.5" y="1058.4" width="46" height="47.4"/>
			</defs>
			<clipPath id="SVGID_60_">
				<use xlink:href="#SVGID_59_"  style="overflow:visible;"/>
			</clipPath>
			<g style="clip-path:url(#SVGID_60_);">
				
					<image style="overflow:visible;" width="32" height="33" xlink:href="8FBC8BB070CBD3A9.png"  transform="matrix(1.4367 0 0 1.4367 677.5256 1058.4307)">
				</image>
			</g>
		</g>
	</g>
</g>
<path class="st21" d="M700.5,1094.8c-5.4,0-9.7-4.4-9.7-9.7c0-5.4,4.4-9.7,9.7-9.7c5.4,0,9.7,4.4,9.7,9.7
	C710.2,1090.5,705.9,1094.8,700.5,1094.8"/>
<line class="st33" x1="581" y1="782.7" x2="493.9" y2="782.7"/>
<text transform="matrix(1 -2.700000e-03 2.700000e-03 1 340.2163 800.5369)" class="st21 st6 st7">2010</text>
<g class="st10">
	<g>
		<defs>
			<rect id="SVGID_61_" x="674.7" y="712.2" width="51.7" height="51.7"/>
		</defs>
		<clipPath id="SVGID_62_">
			<use xlink:href="#SVGID_61_"  style="overflow:visible;"/>
		</clipPath>
		<g class="st34">
			<defs>
				<rect id="SVGID_63_" x="674.7" y="712.2" width="51.7" height="51.7"/>
			</defs>
			<clipPath id="SVGID_64_">
				<use xlink:href="#SVGID_63_"  style="overflow:visible;"/>
			</clipPath>
			<g style="clip-path:url(#SVGID_64_);">
				
					<image style="overflow:visible;" width="36" height="36" xlink:href="8FBC8BB070CBD3AA.png"  transform="matrix(1.4367 0 0 1.4367 674.6534 712.1791)">
				</image>
			</g>
		</g>
	</g>
</g>
<path class="st5" d="M700.5,753.2c-6.7,0-12.2-5.4-12.2-12.2c0-6.7,5.4-12.2,12.2-12.2c6.7,0,12.2,5.4,12.2,12.2
	C712.7,747.7,707.2,753.2,700.5,753.2"/>
<g class="st10">
	<g>
		<defs>
			<rect id="SVGID_65_" x="677.5" y="659" width="46" height="47.4"/>
		</defs>
		<clipPath id="SVGID_66_">
			<use xlink:href="#SVGID_65_"  style="overflow:visible;"/>
		</clipPath>
		<g class="st35">
			<defs>
				<rect id="SVGID_67_" x="677.5" y="659" width="46" height="47.4"/>
			</defs>
			<clipPath id="SVGID_68_">
				<use xlink:href="#SVGID_67_"  style="overflow:visible;"/>
			</clipPath>
			<g style="clip-path:url(#SVGID_68_);">
				
					<image style="overflow:visible;" width="32" height="33" xlink:href="8FBC8BB070CBD3A8.png"  transform="matrix(1.4367 0 0 1.4367 677.5256 659.02)">
				</image>
			</g>
		</g>
	</g>
</g>
<path class="st5" d="M700.5,695.4c-5.4,0-9.7-4.4-9.7-9.7c0-5.4,4.4-9.7,9.7-9.7c5.4,0,9.7,4.4,9.7,9.7
	C710.2,691,705.9,695.4,700.5,695.4"/>
<g class="st10">
	<g>
		<defs>
			<rect id="SVGID_69_" x="677.5" y="769.6" width="46" height="47.4"/>
		</defs>
		<clipPath id="SVGID_70_">
			<use xlink:href="#SVGID_69_"  style="overflow:visible;"/>
		</clipPath>
		<g class="st36">
			<defs>
				<rect id="SVGID_71_" x="677.5" y="769.6" width="46" height="47.4"/>
			</defs>
			<clipPath id="SVGID_72_">
				<use xlink:href="#SVGID_71_"  style="overflow:visible;"/>
			</clipPath>
			<g transform="matrix(1 0 0 1 0 6.103516e-05)" style="clip-path:url(#SVGID_72_);">
				
					<image style="overflow:visible;" width="32" height="33" xlink:href="8FBC8BB070CBD3AE.png"  transform="matrix(1.4367 0 0 1.4367 677.5256 769.6459)">
				</image>
			</g>
		</g>
	</g>
</g>
<path class="st5" d="M700.5,806.1c-5.4,0-9.7-4.4-9.7-9.7c0-5.4,4.4-9.7,9.7-9.7c5.4,0,9.7,4.4,9.7,9.7
	C710.2,801.8,705.9,806.1,700.5,806.1"/>
<line class="st23" x1="581" y1="529.3" x2="493.9" y2="529.3"/>
<text transform="matrix(1 0 0 1 828.0383 1084.0767)" class="st21 st8 st37">IBM анонсира </text>
<g class="st10">
	<g>
		<defs>
			<rect id="SVGID_73_" x="555.4" y="506.7" width="51.7" height="51.7"/>
		</defs>
		<clipPath id="SVGID_74_">
			<use xlink:href="#SVGID_73_"  style="overflow:visible;"/>
		</clipPath>
		<g class="st38">
			<defs>
				<rect id="SVGID_75_" x="555.4" y="506.7" width="51.7" height="51.7"/>
			</defs>
			<clipPath id="SVGID_76_">
				<use xlink:href="#SVGID_75_"  style="overflow:visible;"/>
			</clipPath>
			<g transform="matrix(1 0 0 1 0 -3.051758e-05)" style="clip-path:url(#SVGID_76_);">
				
					<image style="overflow:visible;" width="36" height="36" xlink:href="8FBC8BB070CBD3AB.png"  transform="matrix(1.4367 0 0 1.4367 555.4055 506.7275)">
				</image>
			</g>
		</g>
	</g>
</g>
<path class="st21" d="M581,541.5c-6.7,0-12.2-5.4-12.2-12.2c0-6.7,5.4-12.2,12.2-12.2c6.7,0,12.2,5.4,12.2,12.2
	C593.1,536.1,587.7,541.5,581,541.5"/>
<g class="st10">
	<g>
		<defs>
			<rect id="SVGID_77_" x="558.3" y="453.6" width="46" height="46"/>
		</defs>
		<clipPath id="SVGID_78_">
			<use xlink:href="#SVGID_77_"  style="overflow:visible;"/>
		</clipPath>
		<g class="st39">
			<defs>
				<rect id="SVGID_79_" x="558.3" y="453.6" width="46" height="46"/>
			</defs>
			<clipPath id="SVGID_80_">
				<use xlink:href="#SVGID_79_"  style="overflow:visible;"/>
			</clipPath>
			<g transform="matrix(1 0 0 1 0 3.051758e-05)" style="clip-path:url(#SVGID_80_);">
				
					<image style="overflow:visible;" width="32" height="32" xlink:href="8FBC8BB070CBD3CD.png"  transform="matrix(1.4367 0 0 1.4367 558.2784 453.5688)">
				</image>
			</g>
		</g>
	</g>
</g>
<path class="st21" d="M581,483.7c-5.4,0-9.7-4.4-9.7-9.7c0-5.4,4.4-9.7,9.7-9.7c5.4,0,9.7,4.4,9.7,9.7
	C590.7,479.3,586.3,483.7,581,483.7"/>
<g class="st10">
	<g>
		<defs>
			<rect id="SVGID_81_" x="558.3" y="564.2" width="46" height="47.4"/>
		</defs>
		<clipPath id="SVGID_82_">
			<use xlink:href="#SVGID_81_"  style="overflow:visible;"/>
		</clipPath>
		<g class="st40">
			<defs>
				<rect id="SVGID_83_" x="558.3" y="564.2" width="46" height="47.4"/>
			</defs>
			<clipPath id="SVGID_84_">
				<use xlink:href="#SVGID_83_"  style="overflow:visible;"/>
			</clipPath>
			<g style="clip-path:url(#SVGID_84_);">
				
					<image style="overflow:visible;" width="32" height="33" xlink:href="8FBC8BB070CBD3CF.png"  transform="matrix(1.4367 0 0 1.4367 558.2784 564.1962)">
				</image>
			</g>
		</g>
	</g>
</g>
<path class="st21" d="M581,594.5c-5.4,0-9.7-4.4-9.7-9.7c0-5.4,4.4-9.7,9.7-9.7c5.4,0,9.7,4.4,9.7,9.7
	C590.7,590.1,586.3,594.5,581,594.5"/>
<line class="st23" x1="577.5" y1="286.9" x2="490.4" y2="286.9"/>
<text transform="matrix(1 -2.700000e-03 2.700000e-03 1 850.9355 1280.575)" class="st5 st6 st7">2014</text>
<text transform="matrix(1 0 0 1 742.298 1347.3833)" class="st5 st8 st9">Подписан е първият договор с </text>
<text transform="matrix(1 0 0 1 758.2111 1367.8887)" class="st5 st8 st9">клиент от банковия сектор</text>
<g class="st10">
	<g>
		<defs>
			<rect id="SVGID_85_" x="552.5" y="263.9" width="51.7" height="51.7"/>
		</defs>
		<clipPath id="SVGID_86_">
			<use xlink:href="#SVGID_85_"  style="overflow:visible;"/>
		</clipPath>
		<g class="st41">
			<defs>
				<rect id="SVGID_87_" x="552.5" y="263.9" width="51.7" height="51.7"/>
			</defs>
			<clipPath id="SVGID_88_">
				<use xlink:href="#SVGID_87_"  style="overflow:visible;"/>
			</clipPath>
			<g style="clip-path:url(#SVGID_88_);">
				
					<image style="overflow:visible;" width="36" height="36" xlink:href="8FBC8BB070CBD3CC.png"  transform="matrix(1.4367 0 0 1.4367 552.5323 263.9204)">
				</image>
			</g>
		</g>
	</g>
</g>
<path class="st21" d="M578.5,299.1c-6.7,0-12.2-5.4-12.2-12.2c0-6.7,5.4-12.2,12.2-12.2c6.7,0,12.2,5.4,12.2,12.2
	C590.7,293.6,585.2,299.1,578.5,299.1"/>
<g class="st10">
	<g>
		<defs>
			<rect id="SVGID_89_" x="555.4" y="210.8" width="46" height="47.4"/>
		</defs>
		<clipPath id="SVGID_90_">
			<use xlink:href="#SVGID_89_"  style="overflow:visible;"/>
		</clipPath>
		<g class="st42">
			<defs>
				<rect id="SVGID_91_" x="555.4" y="210.8" width="46" height="47.4"/>
			</defs>
			<clipPath id="SVGID_92_">
				<use xlink:href="#SVGID_91_"  style="overflow:visible;"/>
			</clipPath>
			<g transform="matrix(1 0 0 1 0 -1.525879e-05)" style="clip-path:url(#SVGID_92_);">
				
					<image style="overflow:visible;" width="32" height="33" xlink:href="8FBC8BB070CBD3CB.png"  transform="matrix(1.4367 0 0 1.4367 555.4055 210.7622)">
				</image>
			</g>
		</g>
	</g>
</g>
<path class="st21" d="M578.5,241.3c-5.4,0-9.7-4.4-9.7-9.7c0-5.4,4.4-9.7,9.7-9.7c5.4,0,9.7,4.4,9.7,9.7
	C588.2,236.9,583.9,241.3,578.5,241.3"/>
<g class="st10">
	<g>
		<defs>
			<rect id="SVGID_93_" x="555.4" y="321.4" width="46" height="47.4"/>
		</defs>
		<clipPath id="SVGID_94_">
			<use xlink:href="#SVGID_93_"  style="overflow:visible;"/>
		</clipPath>
		<g class="st43">
			<defs>
				<rect id="SVGID_95_" x="555.4" y="321.4" width="46" height="47.4"/>
			</defs>
			<clipPath id="SVGID_96_">
				<use xlink:href="#SVGID_95_"  style="overflow:visible;"/>
			</clipPath>
			<g style="clip-path:url(#SVGID_96_);">
				
					<image style="overflow:visible;" width="32" height="33" xlink:href="8FBC8BB070CBD3C5.png"  transform="matrix(1.4367 0 0 1.4367 555.4055 321.3901)">
				</image>
			</g>
		</g>
	</g>
</g>
<path class="st21" d="M578.5,352c-5.4,0-9.7-4.4-9.7-9.7c0-5.4,4.4-9.7,9.7-9.7c5.4,0,9.7,4.4,9.7,9.7
	C588.2,347.7,583.9,352,578.5,352"/>
<text transform="matrix(1 0 0 1 344.364 1073.4746)" class="st5 st6 st22">2012</text>
<line class="st44" x1="790" y1="489.2" x2="702.9" y2="489.2"/>
<path class="st5" d="M816.3,514.7l0.2-3.6l0.2,0c6.1,0.3,12.2,0.4,18.4,0.4c12.3,0,24.8-0.4,37.3-0.4h106.4l0.1,0c0,0,0.3,0,1,0
	c3,0.1,11.6-0.7,16-5c5.8-5.3,9-13.6,9.5-22.7c0-0.7,0.1-1.5,0.1-2.2c0-19.5-15.2-35.9-34.9-37c-0.7,0-1.5-0.1-2.2-0.1
	c-1.7,0-3.3,0.1-4.9,0.3l-3.6,0.5l-0.5-3.6c-2.4-19-20.3-34.9-43.3-36.2c-1-0.1-2.1-0.1-3.1-0.1c-16,0-30.2,7.3-38.1,18.3l-1.7,2.3
	l-2.6-1.1c-3.1-1.3-6.4-2.1-10-2.3c-0.6,0-1.2-0.1-1.8-0.1c-14.3,0.1-28.9,9.4-29,25.9c0,0.7,0,1.3,0.1,2l0.3,4.1l-4.1-0.3
	c-0.8-0.1-1.6-0.1-2.4-0.1c-18.9,0-30,16.8-30.1,32.6c0.3,12.8,6.7,23.5,22.9,24.6l0,0L816.3,514.7l-0.2,3.6
	c-20.1-1-29.9-16.4-29.7-31.8c0-18.8,13.5-39.7,37.3-39.8c1,0,1.9,0,2.9,0.1l-0.3,3.6l-3.6,0.2c-0.1-0.8-0.1-1.7-0.1-2.5
	c0.1-21.4,19-33,36.1-33c0.7,0,1.5,0,2.2,0.1c4.4,0.3,8.5,1.2,12.3,2.8l-1.4,3.3l-2.9-2.1c9.5-13,25.7-21.3,44-21.3
	c1.2,0,2.3,0,3.5,0.1c26,1.5,47,19.6,50,42.5L963,441l-0.5-3.6c1.9-0.3,3.9-0.4,5.9-0.4c0.9,0,1.7,0,2.6,0.1
	c23.5,1.4,41.7,20.9,41.7,44.2c0,0.9,0,1.7-0.1,2.6c-0.6,10.4-4.3,20.6-11.8,27.5c-7.3,6.6-17.2,6.8-20.9,6.9c-0.9,0-1.4,0-1.5,0
	l0.2-3.6v3.6H872.4c-12.3,0-24.7,0.4-37.3,0.4c-6.3,0-12.5-0.1-18.8-0.5c0,0-0.2,0-0.2,0l0,0l0,0L816.3,514.7z"/>
<text transform="matrix(1 0 0 1 215.8015 1140.7568)" class="st5 st8 st9">Подписан е първият договор с </text>
<text transform="matrix(1 0 0 1 186.8659 1161.2651)" class="st5 st8 st9">клиент от застрахователния сектор</text>
<g class="st10">
	<g>
		<defs>
			<rect id="SVGID_97_" x="677.5" y="460.8" width="51.7" height="50.3"/>
		</defs>
		<clipPath id="SVGID_98_">
			<use xlink:href="#SVGID_97_"  style="overflow:visible;"/>
		</clipPath>
		<g class="st45">
			<defs>
				<rect id="SVGID_99_" x="677.5" y="460.8" width="51.7" height="50.3"/>
			</defs>
			<clipPath id="SVGID_100_">
				<use xlink:href="#SVGID_99_"  style="overflow:visible;"/>
			</clipPath>
			<g style="clip-path:url(#SVGID_100_);">
				
					<image style="overflow:visible;" width="36" height="35" xlink:href="8FBC8BB070CBD3C7.png"  transform="matrix(1.4367 0 0 1.4367 677.5256 460.7524)">
				</image>
			</g>
		</g>
	</g>
</g>
<path class="st5" d="M702.9,500.9c-6.7,0-12.2-5.4-12.2-12.2c0-6.7,5.4-12.2,12.2-12.2c6.7,0,12.2,5.4,12.2,12.2
	C715.1,495.4,709.6,500.9,702.9,500.9"/>
<g class="st10">
	<g>
		<defs>
			<rect id="SVGID_101_" x="679" y="407.6" width="47.4" height="46"/>
		</defs>
		<clipPath id="SVGID_102_">
			<use xlink:href="#SVGID_101_"  style="overflow:visible;"/>
		</clipPath>
		<g class="st46">
			<defs>
				<rect id="SVGID_103_" x="679" y="407.6" width="47.4" height="46"/>
			</defs>
			<clipPath id="SVGID_104_">
				<use xlink:href="#SVGID_103_"  style="overflow:visible;"/>
			</clipPath>
			<g style="clip-path:url(#SVGID_104_);">
				
					<image style="overflow:visible;" width="33" height="32" xlink:href="8FBC8BB070CBD3C4.png"  transform="matrix(1.4367 0 0 1.4367 678.963 407.5932)">
				</image>
			</g>
		</g>
	</g>
</g>
<path class="st5" d="M702.9,443.1c-5.4,0-9.7-4.4-9.7-9.7c0-5.4,4.4-9.7,9.7-9.7s9.7,4.4,9.7,9.7
	C712.7,438.7,708.3,443.1,702.9,443.1"/>
<g class="st10">
	<g>
		<defs>
			<rect id="SVGID_105_" x="679" y="518.2" width="47.4" height="46"/>
		</defs>
		<clipPath id="SVGID_106_">
			<use xlink:href="#SVGID_105_"  style="overflow:visible;"/>
		</clipPath>
		<g class="st47">
			<defs>
				<rect id="SVGID_107_" x="679" y="518.2" width="47.4" height="46"/>
			</defs>
			<clipPath id="SVGID_108_">
				<use xlink:href="#SVGID_107_"  style="overflow:visible;"/>
			</clipPath>
			<g style="clip-path:url(#SVGID_108_);">
				
					<image style="overflow:visible;" width="33" height="32" xlink:href="8FBC8BB070CBD3FB.png"  transform="matrix(1.4367 0 0 1.4367 678.963 518.2211)">
				</image>
			</g>
		</g>
	</g>
</g>
<path class="st5" d="M702.9,553.8c-5.4,0-9.7-4.4-9.7-9.7c0-5.4,4.4-9.7,9.7-9.7s9.7,4.4,9.7,9.7
	C712.7,549.5,708.3,553.8,702.9,553.8"/>
<line class="st48" x1="790" y1="236.4" x2="702.9" y2="236.4"/>
<path class="st5" d="M816.3,262l0.2-3.6l0.2,0c6.1,0.3,12.2,0.4,18.4,0.4c12.3,0,24.8-0.4,37.3-0.4h106.4l0.1,0c0,0,0.3,0,1,0
	c3,0.1,11.6-0.7,16-5c5.8-5.3,9-13.6,9.5-22.7c0-0.7,0.1-1.5,0.1-2.2c0-19.5-15.2-35.9-34.9-37c-0.7,0-1.5-0.1-2.2-0.1
	c-1.7,0-3.3,0.1-4.9,0.3l-3.6,0.5l-0.5-3.6c-2.4-19-20.3-34.9-43.3-36.2c-1-0.1-2.1-0.1-3.1-0.1c-16,0-30.2,7.3-38.1,18.3l-1.7,2.3
	l-2.6-1.1c-3.1-1.3-6.4-2.1-10-2.3c-0.6,0-1.2-0.1-1.8-0.1c-14.3,0.1-28.9,9.4-29,25.9c0,0.7,0,1.3,0.1,2l0.3,4.1l-4.1-0.3
	c-0.8-0.1-1.6-0.1-2.4-0.1c-18.9,0-30,16.8-30.1,32.6c0.3,12.8,6.7,23.5,22.9,24.6l0,0L816.3,262l-0.2,3.6
	c-20.1-1-29.9-16.4-29.7-31.8c0-18.8,13.5-39.7,37.3-39.8c1,0,1.9,0,2.9,0.1l-0.3,3.6l-3.6,0.3c-0.1-0.8-0.1-1.7-0.1-2.5
	c0.1-21.4,19-33,36.1-33c0.7,0,1.5,0,2.2,0.1c4.4,0.3,8.5,1.2,12.3,2.8l-1.4,3.3l-2.9-2.1c9.5-13,25.7-21.3,44-21.3
	c1.2,0,2.3,0,3.5,0.1c26,1.5,47,19.6,50,42.5l-3.6,0.5l-0.5-3.6c1.9-0.3,3.9-0.4,5.9-0.4c0.9,0,1.7,0,2.6,0.1
	c23.5,1.4,41.7,20.9,41.7,44.2c0,0.9,0,1.7-0.1,2.6c-0.6,10.4-4.3,20.6-11.8,27.5c-7.3,6.6-17.2,6.8-20.9,6.9c-0.9,0-1.4,0-1.5,0
	l0.2-3.6v3.6H872.4c-12.3,0-24.7,0.4-37.3,0.4c-6.3,0-12.5-0.1-18.8-0.5c0,0-0.2,0-0.2,0l0,0l0,0L816.3,262z"/>
<text transform="matrix(1 0 0 1 344.364 1339.7061)" class="st5 st6 st22">2015</text>
<text transform="matrix(1 0 0 1 281.8005 1415.998)" class="st5 st8 st49">Стартирахме</text>
<g class="st10">
	<g>
		<defs>
			<rect id="SVGID_109_" x="677.5" y="207.9" width="51.7" height="51.7"/>
		</defs>
		<clipPath id="SVGID_110_">
			<use xlink:href="#SVGID_109_"  style="overflow:visible;"/>
		</clipPath>
		<g class="st50">
			<defs>
				<rect id="SVGID_111_" x="677.5" y="207.9" width="51.7" height="51.7"/>
			</defs>
			<clipPath id="SVGID_112_">
				<use xlink:href="#SVGID_111_"  style="overflow:visible;"/>
			</clipPath>
			<g style="clip-path:url(#SVGID_112_);">
				
					<image style="overflow:visible;" width="36" height="36" xlink:href="8FBC8BB070CBD3FD.png"  transform="matrix(1.4367 0 0 1.4367 677.5256 207.8891)">
				</image>
			</g>
		</g>
	</g>
</g>
<path class="st5" d="M704,248.5c-6.7,0-12.2-5.4-12.2-12.2c0-6.7,5.4-12.2,12.2-12.2c6.7,0,12.2,5.4,12.2,12.2
	C716.2,243.1,710.7,248.5,704,248.5"/>
<path class="st5" d="M704,190.7c-5.4,0-9.7-4.4-9.7-9.7c0-5.4,4.4-9.7,9.7-9.7c5.4,0,9.7,4.4,9.7,9.7
	C713.7,186.3,709.4,190.7,704,190.7"/>
<g class="st10">
	<g>
		<defs>
			<rect id="SVGID_113_" x="680.4" y="265.4" width="47.4" height="47.4"/>
		</defs>
		<clipPath id="SVGID_114_">
			<use xlink:href="#SVGID_113_"  style="overflow:visible;"/>
		</clipPath>
		<g class="st51">
			<defs>
				<rect id="SVGID_115_" x="680.4" y="265.4" width="47.4" height="47.4"/>
			</defs>
			<clipPath id="SVGID_116_">
				<use xlink:href="#SVGID_115_"  style="overflow:visible;"/>
			</clipPath>
			<g style="clip-path:url(#SVGID_116_);">
				
					<image style="overflow:visible;" width="33" height="33" xlink:href="8FBC8BB070CBD3FF.png"  transform="matrix(1.4367 0 0 1.4367 680.3995 265.3583)">
				</image>
			</g>
		</g>
	</g>
</g>
<path class="st5" d="M704,301.4c-5.4,0-9.7-4.4-9.7-9.7c0-5.4,4.4-9.7,9.7-9.7c5.4,0,9.7,4.4,9.7,9.7
	C713.7,297.1,709.4,301.4,704,301.4"/>
<path class="st5" d="M426.3,1446.8c-1.1-1.4-2.6-2.3-4.5-2.8c-2-0.5-3.9-0.4-5.7,0.3c-1.2,0.5-2.4,1.4-3.6,3l-0.5,0.6l16.2,4.3
	l0-0.7C428,1449.8,427.4,1448.2,426.3,1446.8"/>
<path class="st5" d="M380.4,1463.3c-11.2,0-20.4,9.1-20.4,20.4c0,11.3,9.1,20.4,20.4,20.4c11.3,0,20.4-9.1,20.4-20.4
	C400.7,1472.5,391.6,1463.3,380.4,1463.3 M380.4,1493.7c-5.5,0-10-4.5-10-10c0-5.5,4.5-10,10-10c5.5,0,10,4.5,10,10
	C390.4,1489.2,385.9,1493.7,380.4,1493.7"/>
<path class="st5" d="M349.4,1460.7c1.2-1.2,1.8-2.8,1.8-4.8c0-1.9-0.6-3.5-1.8-4.8c-1.2-1.2-2.7-1.8-4.5-1.8c-1.8,0-3.3,0.6-4.5,1.9
	c-1.2,1.2-1.8,2.8-1.8,4.7c0,2,0.6,3.6,1.8,4.8c1.2,1.2,2.7,1.9,4.5,1.9C346.7,1462.6,348.2,1462,349.4,1460.7"/>
<path class="st5" d="M444.1,1476.8h-2.1v20.1h2.8c2.8,0,4.8-0.3,6-1c1.2-0.6,2.3-1.7,3.1-3.2c0.8-1.5,1.2-3.3,1.2-5.5
	c0-3.4-0.9-6-2.8-7.9C450.6,1477.6,447.9,1476.8,444.1,1476.8"/>
<path class="st5" d="M445,1464.8h-8.8c2.3-3.4,3.7-7.4,3.7-11.8c0-11.5-9.3-20.8-20.8-20.8c-5.9,0-11.3,2.5-15.1,6.5
	c-4.5-8.4-13.4-14.1-23.6-14.1c-11.4,0-21.2,7.1-25,17.2c-3-2.3-6.7-3.6-10.7-3.6c-9.7,0-17.6,7.9-17.6,17.6c0,3.3,0.9,6.3,2.5,9
	h-7.4c-12.4,0-22.5,10.1-22.5,22.5c0,12.5,10.1,21.2,22.5,21.2h39.2c5.3,4,11.8,6.4,19,6.4c7.1,0,13.7-2.4,18.9-6.4H445
	c12.5,0,22.5-8.8,22.5-21.2C467.5,1474.9,457.4,1464.8,445,1464.8 M380.4,1431c11.5,0,20.8,9.3,20.8,20.8c0,3.2-0.7,6.3-2.1,9
	c-1.4-1.2-2.9-2.2-4.5-3.1c0.8-1.8,1.2-3.9,1.2-6c0-8.5-6.9-15.4-15.4-15.4c-8.5,0-15.4,6.9-15.4,15.4c0,2.1,0.4,4.1,1.2,6
	c-1.6,0.9-3.1,1.9-4.5,3.1c-1.3-2.7-2.1-5.8-2.1-9C359.6,1440.3,368.9,1431,380.4,1431 M313.3,1492.4c0.9,1.6,2.2,2.9,3.9,3.9
	c1.7,0.9,3.6,1.4,5.6,1.4c1.8,0,3.4-0.3,4.8-1c1.5-0.7,3.1-1.8,4.8-3.6l4.1,4.3c-2.3,2.3-4.6,3.9-6.7,4.8c-2.1,0.9-4.5,1.3-7.2,1.3
	c-4.9,0-9-1.6-12.1-4.7c-3.2-3.1-4.7-7.2-4.7-12c0-3.2,0.7-6,2.1-8.5c1.4-2.5,3.5-4.4,6.2-5.9c2.7-1.5,5.6-2.2,8.6-2.2
	c2.6,0,5.1,0.6,7.6,1.7c2.4,1.1,4.5,2.7,6.3,4.7l-4.2,4c-2.9-3-6.1-4.6-9.7-4.6c-3,0-5.6,1-7.7,3.1c-2.1,2.1-3.1,4.6-3.1,7.7
	C311.9,1488.9,312.4,1490.8,313.3,1492.4 M333.7,1456c0-3.3,1.2-6.1,3.7-8.4c2.1-1.9,4.6-2.9,7.4-2.9c2,0,3.9,0.5,5.7,1.5
	c1.8,1,3.2,2.4,4.2,4.1c1,1.7,1.5,3.6,1.5,5.6c0,2-0.5,3.9-1.5,5.7c-1,1.7-2.4,3.1-4.1,4.1c-1.7,1-3.7,1.5-5.7,1.5
	c-3.1,0-5.7-1.1-7.9-3.3C334.8,1461.7,333.7,1459.1,333.7,1456 M354.5,1502.7h-14.9v-31.8h6.1v26h8.8V1502.7z M380.4,1509.5
	c-14.2,0-25.8-11.6-25.8-25.8c0-14.2,11.6-25.8,25.8-25.8c14.2,0,25.8,11.6,25.8,25.8C406.1,1497.9,394.6,1509.5,380.4,1509.5
	 M431.4,1489.9c0,3.2-0.2,5.4-0.5,6.7c-0.4,1.2-1,2.4-2.1,3.6c-1,1.2-2.2,2-3.5,2.6c-1.3,0.6-2.9,0.8-4.6,0.8c-2.3,0-4.3-0.5-6-1.6
	c-1.7-1.1-2.9-2.4-3.7-4c-0.7-1.6-1.1-4.3-1.1-8.1v-19h6.1v20.6c0,1.8,0.2,3,0.5,3.8c0.3,0.7,0.8,1.3,1.5,1.8
	c0.7,0.4,1.6,0.7,2.6,0.7c1.1,0,2-0.2,2.8-0.7c0.8-0.5,1.3-1.1,1.6-1.9c0.3-0.8,0.4-2.2,0.4-4.3v-19.8h6.1L431.4,1489.9
	L431.4,1489.9z M432.8,1457.3l-0.2,0.8l-21.9-5.9l-0.1,0.6c-0.2,2.1,0.3,4,1.4,5.6c1.1,1.6,2.8,2.7,5.1,3.3c2.5,0.7,5,0.4,7.3-0.8
	l4.3,3.6c-1.8,1.4-3.6,2.2-5.6,2.6c-2.2,0.4-4.6,0.3-7.2-0.4c-4.1-1.1-7.1-3.3-9-6.6c-1.9-3.3-2.3-6.9-1.3-10.7c1.1-4,3.3-7,6.5-8.9
	c2.1-1.3,4.4-1.9,6.8-1.9c1.3,0,2.6,0.2,3.9,0.5c4.1,1.1,7.1,3.3,9,6.6C433.6,1449.1,434,1453,432.8,1457.3 M460.1,1494
	c-0.8,2.1-1.9,3.8-3.4,5.1c-1.4,1.4-3,2.3-4.7,2.8c-1.7,0.5-4.6,0.8-8.7,0.8h-7.3v-31.8h7.2c4.6,0,8.1,0.6,10.3,1.7
	c2.2,1.1,4.1,3,5.6,5.6c1.5,2.6,2.2,5.6,2.2,9C461.3,1489.7,460.9,1492,460.1,1494"/>
<text transform="matrix(1 0 0 1 389.3132 84.2006)" class="st21 st6 st52">Историята на облака</text>
<g>
	<path class="st17" d="M420.8,605.1c-5.1,0-8.5-3.6-8.6-9.2c-0.1-5.8,3.4-9.6,8.8-9.6c5.3,0,8.5,3.6,8.5,9.5
		C429.5,601.4,426.2,605.1,420.8,605.1z M427.2,595.6c0-0.6,0-1.3-0.1-2c-0.5-3.2-2.5-5.1-5.5-5.4c-3-0.2-5.7,1.2-6.3,4.3
		c-0.5,2.2-0.5,4.7,0.1,6.8c1,3.4,4.9,4.9,8.1,3.5C426.5,601.4,427.1,598.7,427.2,595.6z"/>
	<g>
		<path class="st17" d="M309.2,609.3c4.5,0,9.1,0.1,13.6,0c1.5,0,2.1,0.4,2.1,2c-0.1,7.9-0.1,15.8,0,23.7c0,1.9-0.7,1.9-2.2,1.6
			c-9.2-1.9-18.4-3.7-27.6-5.5c-1.3-0.2-1.7-0.8-1.7-2c0-6.1,0.1-12.3,0-18.4c0-1.6,0.7-1.8,2-1.8c4.5,0.1,9.1,0,13.6,0
			C309.2,609.1,309.2,609.2,309.2,609.3z"/>
		<path class="st17" d="M309.4,606.4c-4.5,0-8.9-0.1-13.4,0c-1.7,0-2.5-0.3-2.4-2.2c0.1-5.8,0.1-11.7,0-17.5c0-1.6,0.4-2.2,2.1-2.5
			c8.9-1.7,17.8-3.5,26.7-5.3c1.8-0.4,2.6-0.3,2.6,2c-0.1,7.6-0.1,15.2,0,22.8c0,2-0.7,2.5-2.5,2.4c-4.4-0.1-8.7,0-13.1,0
			C309.4,606.2,309.4,606.3,309.4,606.4z"/>
		<path class="st17" d="M290.9,595.7c0,3,0,6,0,8.9c0,1.3-0.3,1.8-1.7,1.8c-5.4,0-10.8,0-16.2,0.1c-1.2,0-1.7-0.3-1.6-1.6
			c0.1-4.8,0-9.7,0.1-14.5c0-0.6,0.8-1.6,1.4-1.8c5.3-1.2,10.7-2.2,16.1-3.3c1.5-0.3,2,0.1,1.9,1.6
			C290.8,590,290.9,592.9,290.9,595.7C290.9,595.7,290.9,595.7,290.9,595.7z"/>
		<path class="st17" d="M290.9,619.5c0,3-0.1,6,0,8.9c0,1.4-0.5,1.8-1.8,1.5c-5.5-1.1-10.9-2.2-16.4-3.3c-0.5-0.1-1.3-1.1-1.3-1.6
			c-0.1-4.9-0.1-9.9,0-14.8c0-0.5,0.9-1.3,1.4-1.3c5.5-0.1,11,0,16.5,0c1.2,0,1.6,0.5,1.6,1.7C290.9,613.6,290.9,616.5,290.9,619.5z
			"/>
		<path class="st17" d="M368.9,585.1c-2.7,5.8-5.3,11.7-8,17.5c-0.3,0.7-0.9,1.3-1.4,2c-0.5-0.6-1.1-1.2-1.4-1.9
			c-2.3-5.1-4.6-10.1-6.9-15.2c-0.4-0.8-0.8-1.6-1.6-2.3c0,5.1,0,10.3,0,15.4c0,0.7,0.1,1.3,0,1.9c-0.2,0.7-0.7,1.4-1,2.1
			c-0.4-0.7-1.1-1.3-1.1-2c-0.1-3-0.1-5.9-0.1-8.9c0-3.9-0.1-7.8,0-11.7c0-0.8,0.4-2.1,1-2.3c1.4-0.6,2,0.5,2.6,1.8
			c2.5,5.7,5.1,11.3,7.7,17c0.2,0.6,0.5,1.1,1,2c2.9-6.4,5.7-12.5,8.4-18.5c0.3-0.6,0.4-1.4,0.9-1.7c0.5-0.4,1.3-0.6,2-0.6
			c0.4,0,0.9,0.9,0.9,1.3c0.1,7.3,0.1,14.7,0,22c0,0.5-0.7,1-1.1,1.5c-0.4-0.6-1.1-1.2-1.1-1.8c-0.1-5.8,0-11.5,0-17.3
			c0-0.4,0-0.9,0-1.3C369.3,584.4,369.1,584.8,368.9,585.1z"/>
		<path class="st17" d="M471.6,596.7c0,1.9,0.1,3.7,0,5.6c-0.1,0.8-0.7,1.6-1,2.4c-0.4-0.8-1.1-1.5-1.1-2.3c-0.1-3.8-0.1-7.6,0-11.4
			c0-1.5-0.1-2.6-2-2.4c-0.4,0-0.8-0.5-1.2-0.8c0.4-0.4,0.8-1.1,1.2-1.1c2.3,0.2,2-1.3,2-2.7c0.1-4.1,1.8-6.2,5.2-6.1
			c0.7,0,1.4,0.7,2.1,1.1c-0.6,0.2-1.2,0.4-1.8,0.7c-1,0.5-2.5,1-2.8,1.8c-0.5,1.4-0.3,3.1-0.2,4.6c0,0.1,0.8,0.4,1.2,0.4
			c1.2,0.1,2.4-0.1,3.6,0.1c1.9,0.2,2.5-0.6,2.3-2.4c-0.1-0.5-0.2-1.2,0.1-1.6c0.3-0.5,1-0.7,1.5-1c0.2,0.4,0.5,0.8,0.6,1.3
			c0.1,0.5,0.1,1.1,0,1.7c-0.2,1.5,0.4,2.2,2,2c0.5-0.1,1.2-0.1,1.6,0.1c0.4,0.2,0.7,0.7,0.8,1.1c0,0.2-0.5,0.6-0.9,0.7
			c-0.5,0.1-1.1,0.1-1.7,0c-1.4-0.2-2,0.3-1.9,1.8c0.1,3.1,0,6.1,0,9.2c0.1,2.9,0.6,3.3,3.4,3.4c0.3,0,0.7,0.2,1,0.3
			c-0.3,0.5-0.5,1.2-0.9,1.4c-2.8,1.2-5.6-0.7-5.8-4c-0.2-3.3-0.1-6.7,0-10c0.1-1.7-0.4-2.2-2.2-2.2c-5.2,0-5.2-0.1-5.2,5
			C471.6,594.7,471.6,595.7,471.6,596.7z"/>
		<path class="st17" d="M365.8,636.5c-0.3,0.2-0.7,0.7-0.9,0.6c-0.6-0.2-1.5-0.5-1.7-0.9c-0.7-1.4-1.3-2.9-1.7-4.4
			c-0.4-1.5-1.2-2.1-2.8-2c-2.2,0.1-4.5,0.1-6.7,0c-1.6-0.1-2.4,0.6-2.8,2c-0.4,1.4-0.8,2.9-1.5,4.2c-0.3,0.6-1.4,0.8-2.1,1.2
			c-0.1-0.6-0.3-1.3-0.1-1.9c2.7-7.2,5.4-14.4,8.2-21.6c0.2-0.6,1-1.4,1.6-1.4c0.6,0,1.5,0.6,1.7,1.2c2.9,7.3,5.6,14.7,8.4,22.1
			C365.6,635.7,365.6,636,365.8,636.5z M355.3,615.1c-1.5,4-2.8,7.5-4,11.1c-0.1,0.3,0.8,1.3,1.2,1.3c1.8,0.2,3.7,0,5.6,0.1
			c1.6,0,1.6-0.6,1.1-1.9C357.9,622.4,356.8,619,355.3,615.1z"/>
		<path class="st17" d="M464.5,595.6c0,5.8-3.2,9.4-8.5,9.5c-5.3,0.1-8.7-3.6-8.7-9.3c0-5.8,3.5-9.5,8.9-9.5
			C461.4,586.3,464.5,589.7,464.5,595.6z M462.3,595.5c-0.1-0.6-0.1-1.4-0.2-2.2c-0.7-3.4-2.8-5.1-6-5.1c-3.2,0-5.6,2-6.1,5.4
			c-0.2,1.6-0.2,3.4,0.1,5c1,4.2,6,6.1,9.5,3.6C461.8,600.6,462.2,598.2,462.3,595.5z"/>
		<path class="st17" d="M424.8,628.4c-1.6,0-3.2,0.1-4.7,0c-1.5-0.1-2,0.4-1.7,2c0.9,4.7,4.8,6.5,9.6,4.4c0.6-0.3,1.2-0.3,1.9-0.4
			c-0.4,0.7-0.6,1.8-1.2,2.1c-3.2,1.5-6.5,1.9-9.5-0.3c-3.5-2.7-3.7-6.7-3-10.6c0.5-2.8,2.1-5,4.8-6.1c2.5-1,5.1-1,7.4,0.8
			c2.3,1.8,2.8,4.5,2.6,7.3c0,0.4-1,0.9-1.5,1C427.9,628.5,426.3,628.4,424.8,628.4z M423.5,626.6c1.1,0,2.2-0.1,3.3,0
			c1.7,0.2,2.1-0.5,1.7-2.1c-0.6-2.2-1.8-3.6-4.2-3.9c-2.2-0.3-4.5,1.2-5.5,3.5c-1,2.2-0.8,2.5,1.6,2.5
			C421.5,626.6,422.5,626.6,423.5,626.6z"/>
		<path class="st17" d="M399.8,628.1c0,2.6,0,5.2,0,7.8c0,0.4-0.4,1.1-0.8,1.1c-0.4,0.1-1.3-0.3-1.3-0.6c-0.1-2.1-0.7-1.2-1.7-0.4
			c-4.3,3.4-9.7,1.2-10.3-4.2c-0.4-3.7-0.2-7.4-0.2-11.1c0-0.5,0.7-1,1.1-1.5c0.4,0.6,1.2,1.1,1.2,1.7c0.1,3.1,0,6.1,0.1,9.2
			c0.1,3.8,1.6,5.5,4.4,5.6c3,0,5.1-2.2,5.2-5.7c0.1-2.9,0-5.8,0.1-8.6c0-0.7,0.6-2,1-2c1.7-0.2,1.1,1.3,1.2,2.1
			C399.9,623.6,399.8,625.9,399.8,628.1C399.8,628.1,399.8,628.1,399.8,628.1z"/>
		<path class="st17" d="M374.6,637.1c-1.9,0-3.7,0-5.6,0c-1.8,0.1-1.9-0.6-0.9-1.9c2.8-3.8,5.6-7.6,8.4-11.4
			c0.5-0.7,0.9-1.6,1.4-2.3c-0.9-0.1-1.7-0.3-2.6-0.4c-1.8-0.1-3.5,0.1-5.3-0.1c-0.6,0-1.1-0.6-1.7-0.9c0.5-0.3,1-1,1.6-1
			c3.5-0.1,7.1,0,10.6-0.1c1.9,0,1.5,0.8,0.7,1.8c-3,4-5.9,8.1-8.9,12.1c-0.4,0.5-0.6,1.1-0.9,1.6c0.6,0.1,1.2,0.3,1.8,0.3
			c2.3,0,4.7,0,7,0.1c0.5,0,1.1,0.6,1.6,1c-0.5,0.3-1,0.9-1.6,1C378.4,637.2,376.5,637.1,374.6,637.1z"/>
		<path class="st17" d="M436.8,605.1c-0.5-0.1-1.8-0.3-2.8-0.8c-0.4-0.2-0.6-1.2-0.8-1.8c0.5,0,1.1-0.1,1.6-0.1
			c1.5,0.2,3,0.7,4.3,0.5c1-0.2,2.3-1.3,2.4-2.1c0.1-1-0.6-2.4-1.5-3.2c-1-0.9-2.5-1.2-3.7-1.9c-2.6-1.3-3.5-2.9-3.1-5.3
			c0.3-2.1,2.1-3.8,4.7-4.1c1.4-0.2,3-0.1,4.4,0.3c0.5,0.1,0.8,1.2,1.2,1.8c-0.6,0-1.2,0.1-1.8,0.1c-1.4,0-2.8-0.4-4.1-0.1
			c-0.9,0.2-1.9,1.4-2,2.2c-0.1,0.9,0.6,2.1,1.3,2.8c0.8,0.7,1.9,1,3,1.5c3.6,1.6,4.8,3.4,4.1,6C443.4,603.7,441,605.1,436.8,605.1z
			"/>
		<path class="st17" d="M386.8,595.8c0,5.6,3.7,8.5,8.9,6.9c0.5-0.2,1.2,0,1.8,0c-0.4,0.6-0.7,1.5-1.3,1.8
			c-4.4,2.1-9.6-0.1-11.1-4.8c-1.2-3.7-0.9-7.4,1.7-10.5c2.2-2.6,5.3-3.3,8.6-2.7c0.6,0.1,1.3,0.3,1.8,0.6c0.3,0.3,0.2,1,0.3,1.5
			c-0.4,0-0.9,0.2-1.3,0.1C390.6,587.2,386.8,590,386.8,595.8z"/>
		<path class="st17" d="M408.4,621.1c1.3-0.7,2.8-1.5,4.4-2.1c0.4-0.1,1.7,0.8,1.8,1.4c0.3,1.6-1,0.8-1.7,0.7
			c-2.3,0-3.8,1.3-4.2,3.4c-0.5,3.1-0.4,6.3-0.8,9.4c-0.1,1.1-0.7,3.1-1,3.1c-2.4-0.1-1.2-2.1-1.2-3.2c-0.2-4.1-0.1-8.2,0-12.3
			c0-0.8,0.7-1.6,1-2.4C407.3,619.8,407.9,620.5,408.4,621.1z"/>
		<path class="st17" d="M404.2,589c1.5-0.8,3-1.8,4.6-2.4c0.4-0.2,1.3,0.7,2,1.1c-0.6,0.3-1.2,0.9-1.7,0.9c-2.5,0-3.9,1.5-4.3,3.6
			c-0.5,2.8-0.5,5.7-0.6,8.5c-0.1,0.9,0.1,1.9-0.1,2.8c-0.1,0.4-0.7,0.9-1.2,1c-0.2,0.1-0.9-0.6-0.9-1c-0.1-5.3-0.1-10.5,0-15.8
			c0-0.4,0.7-1.1,0.9-1c0.5,0.1,1,0.6,1.2,1C404.3,588.2,404.2,588.8,404.2,589z"/>
		<path class="st17" d="M380.1,595.7c0,2.5,0.1,5,0,7.5c0,0.5-0.7,1-1.1,1.5c-0.4-0.5-1.1-1-1.1-1.5c-0.1-5-0.1-10,0-15
			c0-0.5,0.7-1,1.1-1.5c0.4,0.5,1,1,1.1,1.5C380.2,590.7,380.1,593.2,380.1,595.7z"/>
	</g>
</g>
<g>
	<path class="st17" d="M473.9,376.9c2.3,0.2,4.7,0.3,7,0.7c5.6,0.9,7.6,4.9,6.5,10.2c-0.6,2.8-2,5.1-4.2,6.9
		c-5.5,4.5-11.8,5.6-18.6,3.4c-1.2-0.4-2.4-1.1-3.4-1.9c-3.4-2.7-3.9-7.2-1.1-10.5c1-1.2,2.1-2.1,3.3-3.1c1.3-1.1,1.3-1.2,0.1-1.9
		c-4.7-2.9-3.2-5.2-0.7-7.9c0.4-0.5,0.9-0.9,1.5-1.3c0.7-0.6,0.7-1-0.1-1.4c-5.3-3.1-5.5-13,1-17.1c3.7-2.4,7.8-2.7,11.9-0.9
		c1.5,0.7,3,1,4.6,0.8c1.7-0.2,3.4-0.1,5.1-0.2c0.9,0,1.5,0.1,1.4,1.2c0,1,0,2-1.4,2c-1,0-2.1,0-3.1,0c-1.2,0-1.5,0.5-1.1,1.5
		c0.7,1.7,0.8,3.4,0.6,5.3c-0.6,5.3-5.4,8.9-10.2,9.3c-1.5,0.1-3,0-4.5-0.1c-1.2-0.1-2,0.4-2.5,1.4c-1,1.7-0.6,2.9,1.2,3.6
		c0.7,0.3,1.5,0.3,2.2,0.4c0.8,0.1,1.5,0,2.3,0c0.8,0,1.5,0,2.3,0C473.9,377.1,473.9,377,473.9,376.9z M473.5,381.9
		c0,0.1,0,0.2,0,0.2c-1.2,0-2.5,0.1-3.7,0c-2.7-0.3-5.6,2.9-5.9,4.9c-0.6,4-0.3,5.3,2.9,7.2c3.1,1.8,6.6,2,10.1,1.2
		c4.4-1,6.7-3.8,6.3-8.2c-0.2-2.3-1.3-3.9-3.6-4.5C477.6,382.2,475.5,382.1,473.5,381.9z M477.6,361.5c0.1-2.1-0.3-4.6-2.2-6.7
		c-2.6-2.8-6.7-2.2-8.5,1.1c-1.7,3.2-1.1,9.2,1.3,12c2.2,2.6,6,2.5,8.1-0.2C477.6,366.1,477.6,364.1,477.6,361.5z"/>
	<path class="st17" d="M381.4,358.4c2.5,0,4.9,0,7.4,0c0.4,0,1.1,0.4,1.2,0.7c0.3,0.8-0.4,0.9-1,1c-2.4,0.5-3.1,2.2-3,4.4
		c0.1,3.1,0,6.2,0.1,9.4c0,2.6,0.1,2.6-2.4,3.1c-3.4,0.7-6.8,1.6-10.3,1.9c-9.2,0.8-20.4-2.6-25.1-12.8c-4.6-9.9-2.4-25.8,12.5-31.2
		c6.5-2.3,13-2.7,19.7-1.4c1.4,0.3,2.8,0.6,4.2,0.8c1.2,0.1,1.3,0.7,1.3,1.7c-0.1,2.8-0.1,5.7-0.1,8.5c0,0.9-0.3,1.4-1.2,1.5
		c-1,0.1-0.8-0.7-1-1.3c-0.6-1.6-1-3.3-1.9-4.7c-1.6-2.4-3.9-3.8-6.7-4.3c-6.4-1.1-12.2-0.2-17,4.5c-2.9,2.8-4.3,6.4-4.7,10.3
		c-0.5,4.4-0.4,8.9,1,13.2c1.9,5.9,5.6,10.1,11.6,11.7c4.2,1.1,8.6,1,12.8-0.5c1.2-0.5,1.9-1.1,1.8-2.5c-0.1-2.8,0-5.7,0-8.5
		c0-2-0.5-2.6-2.5-3.2c-1.4-0.4-2.8-0.5-4.1-0.8c-0.4-0.1-0.8-0.5-1.2-0.8c0.4-0.3,0.8-0.8,1.2-0.8
		C376.3,358.4,378.8,358.4,381.4,358.4C381.4,358.4,381.4,358.4,381.4,358.4z"/>
	<path class="st17" d="M394.5,365.1c-0.2-7.9,6.7-14.4,14-14.3c7.5,0.1,13.8,5.8,13.7,13.8c0,7.5-5.5,14.2-14,14.5
		C400.4,379.3,394.5,373.1,394.5,365.1z M400.2,363.2c0,4.3,0.9,7.8,3.3,10.8c3,3.8,9.4,3.3,11.5-1.3c2.5-5.5,1.9-10.8-0.9-15.9
		c-0.3-0.6-0.8-1-1.3-1.5c-3.5-3.3-8.4-2.6-10.9,1.5C400.6,358.9,400.1,361.3,400.2,363.2z"/>
	<path class="st17" d="M454.8,364.8c0.4,6.5-4.7,14.4-14,14.3c-8.2-0.1-13.7-5.7-13.7-13.9c0-9.6,7.7-14.3,13.9-14.4
		C448.8,350.8,455.5,357.5,454.8,364.8z M449.4,366c-0.5-2.4-0.8-4.8-1.6-7.1c-1-2.8-3.8-5.9-7.7-5.6c-3.2,0.2-5.6,2.3-6.7,6
		c-1,3.3-1,6.7,0.2,10c0.7,1.8,1.5,3.7,2.8,5.1c3.2,3.6,8.5,2.9,11-1.2C448.7,370.9,449.3,368.6,449.4,366z"/>
	<path class="st17" d="M521.6,363.1c-2.5,0-4.9,0-7.4,0c-1,0-1.6,0.2-1.5,1.4c0.6,5.6,3.6,9.6,9.4,10.3c2.1,0.3,3.9-0.5,5.6-1.6
		c0.5-0.3,0.9-0.8,1.4-1c0.4-0.1,1.2-0.1,1.4,0.2c0.2,0.3,0.2,1.1-0.1,1.4c-6.2,7.4-15.7,6.7-20.5-0.3c-5.4-8.1-1.3-18.5,6.7-21.8
		c4.6-1.9,11.4-0.7,13.8,4.8c0.3,0.6,0.5,1.2,0.6,1.9c0.8,3.9,0.1,4.7-3.8,4.7C525.4,363.1,523.5,363.1,521.6,363.1z M519.1,360.7
		C519.1,360.7,519.1,360.7,519.1,360.7c1.7,0,3.4,0,5.1,0c1.3,0,1.6-0.6,1.5-1.8c-0.2-4.3-4.8-6.9-8.6-4.8c-2.2,1.2-3.3,3.3-4.1,5.5
		c-0.3,0.8,0,1.1,0.7,1.1C515.5,360.7,517.3,360.7,519.1,360.7z"/>
	<path class="st17" d="M494.6,353.8c0-5.8,0-11.5,0-17.3c0-2.9-0.1-2.9-2.7-3.8c-0.4-0.2-0.9-0.3-1.3-0.5c-0.3-0.2-0.6-0.5-0.6-0.8
		c0-0.3,0.4-0.7,0.6-0.8c0.7-0.3,1.4-0.4,2.2-0.6c2-0.5,4-1,6-1.5c1-0.3,1.4,0,1.3,1.1c-0.2,2.3-0.5,4.7-0.5,7
		c-0.1,9.4,0,18.7,0,28.1c0,2.6,0,5.3,0,7.9c0,2.6,0.5,3.1,3.1,3.3c0.4,0,0.8-0.1,1.1,0.1c0.3,0.2,0.7,0.6,0.7,1c0,0.3-0.4,1-0.7,1
		c-4.4,0.1-8.9,0.1-13.3,0c-0.2,0-0.5-0.5-0.6-0.8c-0.1-0.2,0.1-0.6,0.3-0.7c0.3-0.2,0.7-0.2,1.1-0.3c3-0.9,3.2-1.1,3.2-4.3
		C494.6,365.9,494.6,359.8,494.6,353.8L494.6,353.8z"/>
	<path class="st17" d="M426.5,391c-0.3,0.2-0.6,0.6-0.8,0.6c-0.6-0.1-1.5-0.3-1.6-0.7c-0.6-1.9-2.1-1.5-3.5-1.5
		c-0.8,0-1.4,0.1-1.7,1.1c-0.1,0.5-0.6,1-1,1.2c-0.3,0.2-1,0.1-1.3-0.1c-0.2-0.1-0.1-0.8,0-1.2c0.9-2.5,1.8-4.9,2.8-7.3
		c0.4-0.9,0.6-2,2.1-1.9c1.3,0.1,1.5,1,1.8,1.8c0.9,2.3,1.8,4.7,2.7,7C426.1,390.2,426.3,390.5,426.5,391z M422.7,386.6
		c-0.6-0.9-1.1-1.5-1.5-2.1c-0.3,0.7-0.7,1.4-1,2.2c0,0.1,0.6,0.5,1,0.5C421.6,387.2,422,386.9,422.7,386.6z"/>
	<path class="st17" d="M436.2,388.9c0-1.2,0-2.4,0-3.7c0-1,0.3-1.3,1.3-1.3c0.9,0,1.8-0.2,2.7-0.2c0.4,0,0.7,0,1.1,0.1
		c2.1,0.6,3.1,2.7,2.5,5.3c-0.4,1.9-1.9,3-4,2.6c-0.9-0.2-1.2-0.3-1.2,0.7c0,0.4,0.1,0.9,0,1.1c-0.4,0.4-0.9,0.9-1.4,1
		c-0.3,0.1-0.9-0.7-1-1.1C436.1,391.9,436.2,390.4,436.2,388.9C436.2,388.9,436.2,388.9,436.2,388.9z M441.7,387.8
		c0-1.1,0-2.1-1.4-2.3c-1.1-0.1-1.9,0.9-1.9,2.3c0,1.1,0.9,2.1,1.8,2.2C441.1,390.1,441.7,389.4,441.7,387.8z"/>
	<path class="st17" d="M435.2,387.7c0.1,2.6-1.8,4.4-4.3,3.9c-0.9-0.2-1.2-0.2-1.2,0.7c0,0.5,0.1,1-0.1,1.4
		c-0.2,0.4-0.8,0.7-1.2,0.8c-0.3,0-0.9-0.5-0.9-0.8c-0.1-3-0.1-6,0-9c0-0.3,0.7-0.7,1.2-0.8c0.6-0.1,1.2,0.2,1.8,0.1
		C433.5,383.6,435.1,384.8,435.2,387.7z M431.3,385.6c-1.1,0-1.6,0.6-1.6,2.1c0,1.1,0.1,2.1,1.4,2.3c0.9,0.1,1.9-1.1,1.9-2.4
		C433.1,386.5,432.3,385.6,431.3,385.6z"/>
	<path class="st17" d="M448,391.9c-0.7-0.3-1.7-0.7-2.5-1.2c-0.3-0.2-0.4-0.9-0.6-1.4c0.5-0.1,1.1-0.3,1.6-0.1
		c0.7,0.2,1.3,0.7,2,0.9c0.3,0.1,0.7-0.3,1.1-0.5c-0.3-0.2-0.5-0.5-0.8-0.6c-0.8-0.3-1.6-0.5-2.4-0.9c-0.9-0.4-1.4-1.1-1.3-2.2
		c0.1-1.1,0.7-1.6,1.7-2c1.4-0.5,2.8-0.3,4,0.5c0.3,0.2,0.6,0.9,0.5,1.2c-0.1,0.3-0.8,0.6-1.1,0.5c-1-0.2-1.8-1-2.9-0.4
		c0.9,0.4,1.9,0.8,2.8,1.2c1,0.4,2,0.8,1.9,2.1c-0.1,1.3-0.8,2.1-2,2.5C449.4,391.7,448.8,391.7,448,391.9z"/>
</g>
<g>
	<path class="st17" d="M416,963.8c0-0.2,0-0.4,0-0.6c0-5.2,0-10.5,0-15.7c0-0.4,0-0.8-0.1-1.2c0-0.3,0.1-0.4,0.4-0.4
		c0.4,0,0.8,0,1.2,0c0.3,0,0.5,0.2,0.5,0.5c0,0.3,0,0.7,0,1c0,0,0.1,0,0.1,0c0.1-0.1,0.1-0.2,0.2-0.3c1-1.9,3.7-1.9,5-0.7
		c1.1,1.1,1.5,2.4,1.7,3.9c0.2,1.5,0.2,3-0.2,4.5c-0.4,1.6-1,2.9-2.6,3.6c-1.2,0.6-2.6,0.3-3.4-0.6c-0.2-0.2-0.3-0.4-0.5-0.7
		c0,2.2,0,4.3,0,6.4C417.5,963.8,416.8,963.8,416,963.8z M418.2,952.4C418.2,952.4,418.2,952.4,418.2,952.4c0.1,0.6,0,1.2,0.1,1.8
		c0.1,0.6,0.2,1.3,0.4,1.8c0.3,0.9,1.2,1.4,2.1,1.2c0.8-0.1,1.3-0.7,1.5-1.4c0.3-0.8,0.5-1.6,0.5-2.5c0.1-1.5,0.1-3-0.5-4.4
		c-0.3-0.8-0.8-1.4-1.8-1.5c-0.9-0.1-1.5,0.5-1.9,1.3c-0.1,0.3-0.3,0.5-0.3,0.8C418.3,950.5,418.3,951.4,418.2,952.4z"/>
	<path class="st17" d="M404.5,951.5c0.1-0.4,0.1-0.8,0.2-1.3c0.2-1.5,0.8-2.8,2-3.7c1.9-1.4,4.4-1,5.7,1c0.7,1.1,1,2.2,1.1,3.5
		c0.1,1.7,0.1,3.3-0.5,4.9c-0.6,1.6-1.6,2.7-3.3,3c-1.8,0.3-3.4-0.5-4.3-2.2c-0.5-0.9-0.7-1.9-0.8-3c0-0.1-0.1-0.3-0.1-0.4
		C404.5,952.7,404.5,952.1,404.5,951.5z M411.5,952.3c0-0.6-0.1-1.2-0.2-1.8c-0.1-0.9-0.3-1.7-0.9-2.4c-0.7-0.9-1.8-1-2.5-0.1
		c-0.4,0.5-0.8,1.1-0.9,1.7c-0.2,1.2-0.3,2.4-0.3,3.6c0,0.9,0.3,1.9,0.6,2.8c0.2,0.7,0.7,1.2,1.5,1.3c0.8,0.1,1.5-0.4,1.8-1.2
		C411.3,954.9,411.4,953.6,411.5,952.3z"/>
	<path class="st17" d="M498.5,947.5c-0.1-0.2-0.3-0.3-0.3-0.5c0-0.4,0-0.7-0.1-1.1c-0.1,0.1-0.2,0.3-0.2,0.4
		c-0.1,0.3-0.2,0.6-0.3,0.8c-0.1,0.1-0.2,0.3-0.3,0.3c-0.1,0-0.3-0.2-0.3-0.3c-0.2-0.4-0.3-0.8-0.6-1.2c0,0.2,0,0.4,0,0.6
		c0,0.2,0,0.4,0,0.6c0,0.1-0.1,0.2-0.2,0.3c0-0.1-0.1-0.2-0.1-0.3c0-0.5,0-0.9,0-1.4c0-0.1,0.1-0.3,0.2-0.3c0.1,0,0.3,0.1,0.4,0.2
		c0.2,0.5,0.4,0.9,0.7,1.5c0.2-0.4,0.3-0.8,0.5-1.2c0.1-0.4,0.4-0.6,0.8-0.6C498.5,946.1,498.5,946.8,498.5,947.5z"/>
	<path class="st17" d="M460.3,888.5c0.3,0.2,0.5,0.4,0.8,0.7c1.7,1.5,3.5,3.1,5.2,4.7c0.6,0.6,1.1,1.3,2,1.5
		c0.4,0.1,0.8,0.2,1.2,0.2c2.6-0.2,5.3-0.4,7.9-0.7c0.4,0,0.9-0.3,1.3-0.5c0.2-0.1,0.4-0.2,0.6-0.4c0,0.2,0,0.4,0,0.6
		c0,1.1,0,2.3,0,3.4c0,4.7,0.1,9.4,0.1,14c0,0.7,0,0.7-0.7,0.7c-0.6,0-1.2,0.1-1.8,0.2c0,0,0,0.1-0.1,0.1c0.5,0.5,1,1,1.6,1.6
		c-0.7,0.1-1.4,0.2-2,0.2c-2.7,0.2-5.4,0.5-8,0.7c-0.1,0-0.2,0-0.4,0.1c-0.5,0.1-0.8,0-1.2-0.4c-1.9-1.9-3.8-3.8-5.6-5.7
		c-0.3-0.3-0.5-0.6-0.8-0.9c0.5,0,1-0.1,1.6-0.1c0-0.1,0.1-0.1,0.1-0.2c-0.2-0.1-0.4-0.2-0.5-0.3c-0.6-0.5-1.1-1.1-1.7-1.7
		c-0.3-0.3-0.4-0.6-0.4-1.1c0-5.2,0-10.4,0-15.7c0-1.2,0-1.2-1.2-1.1c-2.3,0.2-4.6,0.4-6.9,0.6c-2.7,0.2-5.3,0.5-8,0.7
		c-2,0.2-4,0.3-6,0.5c-0.5,0-1.1,0.1-1.6,0.2c-1,0.2-1.7,1.1-1.7,2.1c0,0.6,0,1.2,0,1.8c0,0.3-0.1,0.5-0.4,0.5
		c-0.7,0.1-1.3,0.1-2.2,0.2c0.7,0.9,1.6,1.6,2.3,2.4c-0.1-0.1-0.3-0.1-0.4-0.2c-0.6-0.4-1.3-0.4-2-0.3c-1.2,0.1-2.5,0.2-3.7,0.3
		c-1.2,0.1-2.5,0.2-3.7,0.3c-0.2,0-0.4,0-0.5,0.1c-0.5,0.3-0.8,0.1-1.2-0.2c-2.2-2-4.4-4-6.6-6c-0.2-0.2-0.5-0.4-0.8-0.7
		c0.7-0.1,1.3-0.1,2-0.2c-0.1-0.1-0.1-0.2-0.2-0.3c-0.7-0.7-1.4-1.3-2-2c-0.2-0.2-0.3-0.6-0.3-0.9c0-4,0-7.9,0-11.9
		c0-2.2,1.8-4,4-4.2c2.4-0.2,4.8-0.4,7.3-0.6c2-0.2,4-0.3,6-0.5c2.3-0.2,4.5-0.4,6.8-0.6c2-0.2,4-0.3,6-0.5c1.9-0.2,3.9-0.4,5.8-0.5
		c1.6-0.1,3.2-0.3,4.9-0.4c1.9-0.2,3.9-0.4,5.8-0.5c1.6-0.1,3.2-0.3,4.8-0.4c0.7-0.1,1.4-0.1,2.2-0.2c1.1-0.1,2,0.3,2.8,1.1
		c1.9,1.9,3.8,3.7,5.7,5.6c0.2,0.2,0.4,0.4,0.6,0.6c-0.6,0-1.1-0.1-1.6-0.1c-1.3,0-2.6,0.1-3.8,0.1c-1.2,0.1-2.4,0.2-3.7,0.3
		c-1.7,0.1-3.3,0.3-5,0.4c-1.6,0.1-3.1,0.3-4.7,0.4c-2.4,0.2-4.8,0.4-7.2,0.6c-1.6,0.1-3.2,0.3-4.9,0.4c-1.9,0.2-3.9,0.4-5.8,0.5
		c-1.2,0.1-2.4,0.2-3.6,0.3c-1.7,0.1-3.4,0.4-5.1,0.4c-1.9,0.1-3.8,0.5-5.7,0.9c-1.2,0.2-2.1,0.9-2.8,1.9c-0.1,0.1-0.1,0.3-0.2,0.4
		c0,0,0.1,0.1,0.1,0.1c0.1-0.1,0.2-0.1,0.3-0.2c0.8-0.8,1.7-1.2,2.8-1.1c2.8,0.1,5.7-0.1,8.5-0.4c1.9-0.2,3.9-0.3,5.8-0.5
		c2.7-0.2,5.3-0.5,8-0.7c1.9-0.2,3.9-0.3,5.8-0.5c2.3-0.2,4.7-0.4,7-0.6c1.5-0.1,3.1-0.3,4.6-0.4c2-0.2,4.1-0.3,6.1-0.6
		c1.4-0.1,2.8-0.3,4.1-0.5c1.1-0.1,2.4,0.7,2.9,1.8c0.2,0.4,0.3,0.9,0.3,1.3c0,3.8,0,7.7,0,11.5c0,0.4-0.1,0.6-0.6,0.6
		c-0.6,0-1.3,0.1-2,0.2c0.8,0.8,1.5,1.5,2.3,2.4c-0.2,0-0.3,0-0.3-0.1c-0.8-0.6-1.7-0.4-2.5-0.4c-1.6,0.1-3.3,0.3-4.9,0.4
		c-0.8,0.1-1.5,0.1-2.3,0.2c-0.1,0-0.1,0-0.2,0c-0.6,0.5-1,0.1-1.4-0.3c-1.4-1.3-2.8-2.5-4.2-3.8c-0.4-0.3-0.7-0.6-1.1-1
		c-0.6-0.6-0.8-0.6-1.7-0.5C460.4,888.4,460.4,888.4,460.3,888.5z"/>
	<path class="st17" d="M414.4,913.8c0.6,0.5,1.1,1,1.6,1.5c1.9,1.8,3.8,3.5,5.7,5.3c0.1,0.1,0.3,0.1,0.6,0.3
		c0.1,0.5,0.1,0.5,0.7,0.4c1.6-0.1,3.1-0.3,4.7-0.4c1.6-0.1,3.2-0.3,4.9-0.4c0.7-0.1,0.7,0,0.8,0.7c0,0.7,0,1.4,0.2,2
		c0.3,1.1,1.5,1.8,2.7,1.7c1.6-0.2,3.2-0.3,4.8-0.4c2-0.2,3.9-0.4,5.9-0.5c1.5-0.1,3.1-0.3,4.6-0.4c2-0.2,4-0.4,6-0.5
		c1.5-0.1,3.1-0.3,4.6-0.4c1.1-0.1,2.3-0.2,3.4-0.3c1.5-0.2,2.6-1.4,2.7-3c0-0.5,0-1,0-1.5c0-0.3,0.2-0.5,0.5-0.5
		c1.9-0.2,3.8-0.3,5.6-0.5c1.3-0.1,2.5-0.2,3.8-0.4c1.1-0.1,1.1-0.1,1.1,1c0,3.6,0,7.1,0,10.7c0,2.4-1.6,4.1-3.9,4.3
		c-2.1,0.2-4.3,0.4-6.4,0.6c-2.2,0.2-4.4,0.4-6.7,0.6c-2,0.2-4,0.3-6,0.5c-1.5,0.1-3,0.3-4.6,0.4c-1.2,0.1-2.4,0.2-3.7,0.3
		c-2,0.2-4,0.4-6.1,0.5c-1.5,0.1-3.1,0.3-4.6,0.4c-2,0.2-4,0.4-6,0.5c-1.6,0.1-3.1,0.3-4.7,0.4c-0.5,0-1.1,0.1-1.6,0.1
		c-0.9-0.1-1.6-0.5-2.2-1.1c-2-2-3.9-3.9-5.9-5.8c-0.7-0.7-1.4-1.4-2.1-2.1c-0.5-0.5-0.7-1.2-0.7-1.9c0-3.8,0-7.5,0-11.3
		C414.4,914.2,414.4,914.1,414.4,913.8z"/>
	<path class="st17" d="M414.3,912.8c0.8-0.3,1.6-0.1,2.5-0.4c-0.1-0.2-0.2-0.3-0.3-0.4c-0.6-0.6-1.2-1.1-1.7-1.8
		c-0.2-0.2-0.4-0.6-0.4-0.9c0-1.9,0-3.7,0-5.6c0-4-0.1-8-0.1-11.9c0-0.1,0-0.1,0-0.3c0.7,0.7,1.4,1.3,2.1,1.9
		c1.8,1.6,3.6,3.3,5.4,4.9c0.3,0.3,0.6,0.5,1,0.8c0.8,0.5,1.7,0.3,2.5,0.2c1.7-0.1,3.4-0.3,5.1-0.4c0.7-0.1,1.4-0.1,2-0.2
		c0.2,0,0.5-0.2,0.7-0.3c0.3-0.2,0.5-0.3,0.9-0.6c0,0.2,0,0.3,0,0.5c0,0.7,0,1.4,0,2.1c0,4.9,0.1,9.7,0.1,14.6c0,0.6,0,0.6,0.6,0.5
		c1.6-0.1,3.1-0.3,4.7-0.4c2-0.2,4-0.4,6-0.5c1.6-0.1,3.1-0.3,4.7-0.4c2-0.2,4.1-0.4,6.1-0.5c0.4,0,0.9-0.1,1.3-0.1
		c1.1-0.1,2-1,2-2.1c0-0.7,0-1.4,0-2.3c0.2,0.2,0.4,0.2,0.5,0.4c2.1,2,4.1,4.1,6.2,6.1c0.3,0.3,0.4,0.6,0.4,1c0,0.8,0,1.5,0,2.3
		c0,0.9-0.6,1.5-1.5,1.5c-2.7,0.2-5.3,0.5-8,0.7c-2,0.2-4,0.3-6,0.5c-2.3,0.2-4.5,0.4-6.8,0.6c-1.5,0.1-3.1,0.3-4.6,0.4
		c-1.1,0.1-2.3,0.2-3.4,0.3c-1,0.1-1.3-0.3-1.3-1.2c0-0.9,0-1.8,0-2.7c0-0.6-0.1-0.6-0.6-0.6c-2.1,0.2-4.2,0.4-6.2,0.5
		c-1.9,0.2-3.8,0.4-5.8,0.5c-0.2,0-0.5-0.1-0.6-0.2c-0.7-0.6-1.5-1.3-2.2-2c-1.5-1.4-2.9-2.8-4.4-4.1
		C414.9,913.1,414.7,913,414.3,912.8z"/>
	<path class="st17" d="M486.4,951.9c0.1-0.2,0.2-0.3,0.3-0.3c1-1.7,2-3.5,3.1-5.2c0.1-0.2,0.4-0.3,0.7-0.4c0.6-0.1,1.2,0,1.8,0
		c-0.1,0.2-0.2,0.4-0.3,0.6c-1,1.4-1.9,2.9-2.9,4.3c-0.3,0.4-0.2,0.7,0,1.1c1.2,2.2,2.4,4.4,3.6,6.6c0,0,0,0.1,0,0.2
		c-0.7,0-1.5,0-2.2,0c-0.2,0-0.3-0.3-0.4-0.5c-0.8-1.6-1.6-3.2-2.4-4.9c-0.3-0.5-0.3-0.5-0.7,0c-0.3,0.4-0.5,0.9-0.4,1.4
		c0,1.2,0,2.3,0,3.5c0,0.4-0.1,0.6-0.5,0.5c-0.4,0-0.8,0-1.2,0c-0.3,0-0.5-0.1-0.4-0.4c0-0.1,0-0.2,0-0.3c0-5.6,0-11.3,0-16.9
		c0-0.7,0-0.7,0.7-0.7c1.7,0,1.4-0.1,1.4,1.4C486.4,945.1,486.4,948.4,486.4,951.9z"/>
	<path class="st17" d="M439.9,947.4c0.2-0.2,0.4-0.4,0.5-0.6c1.1-1.1,2.4-1.3,3.7-0.9c1.3,0.4,1.9,1.4,2.1,2.7
		c0.1,0.4,0.1,0.9,0.1,1.3c0,2.7,0,5.5,0,8.2c0,0.5-0.1,0.6-0.6,0.6c-0.3,0-0.6,0-0.9,0c-0.7,0-0.7,0-0.7-0.7c0-2.5,0-5,0-7.5
		c0-0.5-0.1-1-0.2-1.5c-0.2-0.9-0.7-1.4-1.6-1.5c-0.7-0.1-1.5,0.4-1.9,1.1c-0.4,0.8-0.5,1.6-0.5,2.4c0,2.4,0,4.7,0,7.1
		c0,0.6,0,0.6-0.6,0.6c-0.3,0-0.6,0-0.9,0c-0.6,0-0.6,0-0.6-0.6c0-2.9,0-5.7,0-8.6c0-1-0.1-1.9-0.1-2.9c0-0.5,0.1-0.6,0.5-0.6
		c0.4,0,1-0.1,1.3,0.1C439.9,946.3,439.8,946.9,439.9,947.4z"/>
	<path class="st17" d="M470.5,957.4c-0.5,0.4-0.8,0.8-1.2,1.1c-1.8,1.1-4.2,0.1-4.8-2c-0.7-2.7,0.7-4.9,3.5-5.6
		c0.6-0.1,1.2-0.2,1.7-0.3c0.4,0,0.5-0.2,0.5-0.6c0-0.3-0.1-0.7-0.1-1c-0.3-1.3-1.3-1.9-2.6-1.6c-0.5,0.1-0.9,0.3-1.3,0.4
		c-0.3,0.1-0.5,0.1-0.6-0.2c-0.4-1-0.3-1.1,0.7-1.5c1.1-0.4,2.2-0.4,3.3-0.3c1.4,0.2,2.2,1.1,2.6,2.4c0.2,0.7,0.3,1.5,0.3,2.2
		c0,2.3,0,4.6,0,7c0,0.2,0,0.5,0.1,0.7c0,0.3-0.1,0.5-0.4,0.5c-0.4,0-0.7,0-1.1,0c-0.3,0-0.5-0.2-0.5-0.5
		C470.6,957.9,470.5,957.7,470.5,957.4z M470.3,953.8C470.3,953.8,470.3,953.8,470.3,953.8c-0.1-0.4-0.1-0.9-0.1-1.3
		c0-0.3-0.1-0.4-0.4-0.4c-0.7,0.2-1.4,0.2-2,0.5c-1.5,0.7-1.6,2.7-1.1,3.8c0.4,0.8,1.2,1.1,2,0.8c0.7-0.3,1.2-0.8,1.3-1.6
		C470.3,955,470.3,954.4,470.3,953.8z"/>
	<path class="st17" d="M432.3,952.5c-0.9,0-1.8,0-2.7,0c-0.4,0-0.5,0.1-0.5,0.5c0.1,0.9,0.2,1.8,0.6,2.7c0.5,1,1.3,1.5,2.4,1.5
		c0.7,0,1.4-0.1,2.1-0.3c0.3-0.1,0.5,0,0.6,0.4c0.3,1,0.2,1.1-0.8,1.3c-1,0.3-2,0.3-3,0.2c-1.6-0.2-2.7-1.1-3.3-2.5
		c-1.1-2.7-1.1-5.4,0.1-8c0.8-1.8,2.3-2.7,4.3-2.5c1.2,0.1,2,0.8,2.6,1.7c0.8,1.4,1,3,0.9,4.5c0,0.4-0.3,0.5-0.6,0.5
		C434.1,952.5,433.2,952.5,432.3,952.5C432.3,952.5,432.3,952.5,432.3,952.5z M431.3,951C431.3,951,431.3,951,431.3,951
		c0.5,0,1,0,1.5,0c0.6,0,0.7-0.1,0.6-0.6c-0.1-0.7-0.3-1.4-0.6-2c-0.6-1.3-2.1-1.4-2.9-0.2c-0.5,0.7-0.7,1.5-0.8,2.4
		c0,0.3,0.1,0.4,0.4,0.5C430.2,951,430.7,951,431.3,951z"/>
	<path class="st17" d="M458.3,951.5c0-1.1,0-2.3,0-3.4c0-0.6-0.1-0.6-0.6-0.6c0,0-0.1,0-0.1,0c-1,0-1,0.1-1-1.1
		c0-0.3,0.1-0.4,0.4-0.4c0.2,0,0.5,0,0.7,0c0.4,0,0.6-0.1,0.6-0.5c0-0.4,0-0.8,0-1.2c0-0.3,0.1-0.5,0.5-0.7c0.4-0.1,0.8-0.3,1.3-0.5
		c0.3-0.1,0.5-0.1,0.5,0.3c0,0.2,0,0.5,0,0.7c0,2-0.2,1.8,1.8,1.8c0.1,0,0.3,0,0.4,0c0.3,0,0.5,0.1,0.5,0.5c0,1,0,1-1,1
		c-0.4,0-0.7,0-1.1,0c-0.5,0-0.6,0.1-0.6,0.6c0,0.4,0,0.7,0,1.1c0,1.9,0,3.7,0,5.6c0,0.5,0.1,0.9,0.2,1.4c0.2,0.8,0.8,1.2,1.6,1.1
		c0.5-0.1,0.6,0.1,0.6,0.5c0.1,1,0,1.2-1.1,1.2c-0.6,0-1.2,0-1.7-0.2c-1.3-0.4-1.7-1.5-1.7-2.7C458.3,954.5,458.4,953,458.3,951.5
		C458.3,951.5,458.3,951.5,458.3,951.5z"/>
	<path class="st17" d="M452.7,945.7c0.6,0.2,1.3,0.3,1.9,0.5c0.4,0.1,0.5,0.4,0.3,0.8c0,0,0,0.1-0.1,0.1c-0.3,0.8-0.3,0.8-1.1,0.5
		c-0.8-0.3-1.6-0.4-2.4,0.3c-0.7,0.7-0.7,1.9,0.1,2.6c0.4,0.4,1,0.6,1.4,1c0.6,0.5,1.3,1,1.8,1.6c1.6,2,0.5,5-2,5.6
		c-1.2,0.3-2.5,0.3-3.6-0.2c-0.5-0.2-0.6-0.4-0.4-0.9c0,0,0-0.1,0-0.1c0.3-0.8,0.3-0.8,1.1-0.5c0.7,0.3,1.4,0.3,2.1,0.2
		c1.3-0.2,1.9-1.9,1.1-3c-0.3-0.5-0.8-0.8-1.3-1.2c-0.6-0.5-1.3-0.9-1.9-1.4c-1.1-1-1.4-2.3-0.8-3.7c0.6-1.3,1.7-2,3.1-2.1
		c0.1,0,0.2,0,0.4,0C452.7,945.7,452.7,945.7,452.7,945.7z"/>
	<path class="st17" d="M474.9,952.5c0-1.4,0.3-2.7,1-3.9c1.3-2.4,3.4-3.2,5.9-2.7c0.5,0.1,0.6,0.3,0.5,0.8c-0.2,1-0.2,1-1.3,0.8
		c-1.3-0.3-2.5,0.3-3.1,1.7c-0.9,2-1,4.2-0.1,6.2c0.6,1.5,2.1,2.1,3.6,1.7c0.6-0.2,0.7-0.1,0.8,0.5c0,0.1,0.1,0.2,0.1,0.4
		c0.1,0.4-0.1,0.6-0.5,0.7c-3,0.8-5.7-0.4-6.5-3.6C475.1,954.2,475,953.3,474.9,952.5z"/>
	<path class="st17" d="M493.4,945.6c0.3-0.3,1.9-0.3,2.2-0.1c-0.1,0-0.1,0.1-0.2,0.1c-0.7,0.1-0.7,0.1-0.7,0.7c0,0.3,0,0.5,0,0.8
		c0,0.1-0.1,0.2-0.2,0.2c-0.1-0.1-0.2-0.2-0.2-0.3c0-0.3,0-0.7,0-1c0-0.4-0.1-0.5-0.5-0.5C493.8,945.7,493.6,945.6,493.4,945.6z"/>
</g>
<g>
	<path class="st17" d="M797.3,1076.1c0.2,4.2,0.5,8.4,0.5,12.7c0,0.9-1.3,1.8-2,2.8c-0.7-0.8-2-1.6-2-2.3c0-4.4,0.4-8.7,0.6-13.1
		C795.3,1076.1,796.3,1076.1,797.3,1076.1z"/>
	<path class="st17" d="M750.1,1098.6c1.2-0.1,2.7-0.6,3.6-0.1c3.1,1.7,6.2,3.6,9.1,5.7c0.7,0.5,0.8,1.9,1.1,2.8
		c-1.1,0.2-2.5,1-3.3,0.6c-3.6-1.8-7-4-10.4-6.1C750.1,1100.6,750.1,1099.6,750.1,1098.6z"/>
	<path class="st17" d="M942.9,1119.7c-0.6,1.3-1.1,3.7-1.9,3.8c-1.7,0.2-3.7-0.4-5.2-1.3c-3.7-2.4-7.3-2.9-10.5-0.9
		c-3.1,2-4.5,5.7-3.6,9.4c1.5,6.2,8.6,8.5,14.1,4.8c1.5-1,3.3-1.8,5.1-2.1c2-0.4,2.1,0.7,1.1,2.3c-3.5,6.1-11.5,8.6-17.9,5.6
		c-6.7-3.2-9.7-10.9-6.7-17.7c3-6.8,10.1-10,16.9-7.6c1.5,0.5,2.6,1.5,4.6,0C941.1,1114.2,942.4,1115.7,942.9,1119.7z"/>
	<path class="st17" d="M1021.9,1126.8c0,2.1-0.1,4.3,0,6.4c0.1,1.8-0.5,3.6,1.6,5.2c1.8,1.4,0.7,3.6-1.8,3.8
		c-1.3,0.1-3.2,0.4-3.8-0.2c-1.4-1.5-2.2-0.9-3.6-0.3c-4.5,1.9-9,0.6-11.7-3.3c-2.6-3.6-2.5-8.7,0.2-12.3c2.9-3.8,7.3-5,11.8-3.2
		c0.8,0.3,1.6,0.5,2.4,0.7c-0.3-1.1-0.4-2.3-0.8-3.4c-0.4-1.2-1.1-2.3-1.6-3.4c1.8-0.3,3.7-0.9,5.5-0.8c0.7,0,1.6,1.7,1.7,2.6
		C1022,1121.2,1021.9,1124,1021.9,1126.8z M1005.4,1132.3c0.1,3.3,3.2,6.4,6.3,6.2c3-0.2,5.6-3.1,5.5-6.4c-0.1-3.5-2.9-6.2-6.3-6.1
		C1007.8,1126.2,1005.3,1129,1005.4,1132.3z"/>
	<path class="st17" d="M906.5,1129.1c0,3.6,0.1,7.2-0.1,10.8c0,0.7-0.8,1.5-1.3,2.2c-0.4-0.8-1.1-1.5-1.1-2.3
		c-0.1-5.2,0-10.5,0-15.7c0-0.6-0.5-1.3-0.7-1.9c-0.4,0.5-0.9,0.9-1.1,1.5c-2,5-3.9,10-6,15c-0.5,1.2-1.6,2.3-2.4,3.4
		c-0.9-1.2-2.1-2.3-2.7-3.6c-1.6-3.6-2.9-7.3-4.5-10.9c-0.7-1.7-1.7-3.4-2.6-5c-0.2,2-0.6,3.9-0.6,5.9c-0.1,3.6,0.1,7.2-0.1,10.8
		c0,1-0.8,1.9-1.2,2.8c-0.4-0.9-1.2-1.8-1.2-2.7c-0.1-6.9-0.1-13.7,0-20.6c0-1,1-2,1.5-3c1,0.8,2.6,1.3,3.1,2.3
		c2.5,5.7,4.6,11.5,7,17.2c0.3,0.8,1.1,1.5,1.6,2.2c0.4-0.7,0.8-1.4,1.1-2.2c2.2-5.6,4.4-11.2,6.6-16.9c0.6-1.6,1.3-3.4,3.3-2.6
		c0.8,0.3,1.4,2.2,1.4,3.4C906.6,1122.6,906.5,1125.8,906.5,1129.1z"/>
	<path class="st17" d="M997,1130.2c0.9,2.5-1.7,6,2.1,8.4c1,0.6,0.9,3.5-2,3.5c-3.5,0-6.8-1.1-10.5,0.1c-3,1-6.2-2.1-6.8-5.6
		c-0.4-2.1-0.1-4.2-0.4-6.3c-0.2-1.3-0.8-2.6-1.2-3.9c-0.3-1.1-0.6-2.2-0.9-3.4c1.7-0.3,3.4-0.8,5.1-0.7c0.7,0,1.7,1.3,1.8,2.1
		c0.2,2.8,0,5.5,0.1,8.3c0.1,3.6,1.6,5.8,4,5.5c3.2-0.4,4.3-2.7,4-5.6c-0.3-2.4,1-5-2.1-6.9c-1.6-1-0.3-3.3,1.9-3.6
		c4.2-0.6,4.8-0.1,4.8,4.1C997,1127.6,997,1128.7,997,1130.2z"/>
	<path class="st17" d="M965.8,1121.6c5.4-0.1,10.3,4.7,10.5,10.2c0.2,5.6-4.8,10.6-10.6,10.7c-5.6,0.1-10.4-4.6-10.5-10.1
		C955.2,1126.8,960.2,1121.7,965.8,1121.6z M971.5,1132.1c-0.1-3.3-2.8-6.1-5.8-6.1c-3.1,0-5.8,2.8-5.8,6c0,3.2,2.7,6,5.8,6
		C969,1138.2,971.6,1135.4,971.5,1132.1z"/>
	<path class="st17" d="M856,1129.1c0-3.6,0.1-7.2,0-10.8c-0.1-1.9,0.7-2.7,2.6-2.6c3.6,0.1,7.2-0.2,10.8,0.2c5.9,0.6,8,5,4.8,10.1
		c-0.9,1.5-1,2,0.3,3.5c4.5,4.8,2.5,10.7-3.9,12.3c-0.3,0.1-0.6,0.2-1,0.2c-4.4-0.1-8.8-0.1-13.1-0.2c-0.2-4.2-0.4-8.4-0.6-12.7
		C855.8,1129.1,855.9,1129.1,856,1129.1z M864.7,1139.9c1.3,0,2.6,0.1,3.9,0c3.6-0.3,5.4-1.9,5.5-4.9c0.1-3-1.6-5.1-5-5.5
		c-2.9-0.4-5.8-0.3-8.7-0.1c-0.7,0-1.7,0.9-2,1.6C856.5,1137.1,858.6,1139.9,864.7,1139.9z M864,1127.1
		C864,1127.1,864,1127.1,864,1127.1c1.5,0,2.9,0.1,4.4-0.1c2.4-0.3,4.5-1.2,4.7-4.1c0.2-2.9-1.4-4.7-4.3-5c-2.7-0.3-5.5-0.3-8.3-0.1
		c-0.8,0.1-1.8,1.5-2.1,2.4c-0.4,1.4-0.4,3,0,4.3c0.2,0.9,1.2,2,2.2,2.3C861.6,1127.4,862.8,1127.1,864,1127.1z"/>
	<path class="st17" d="M774.5,1110.9c0.2-4.4,3-6.3,7-7.1c2.4,0.2,4.7,0.5,7,0.7l-0.1-0.1c-1.2,2.3-2.4,4.6-3.5,6.9
		c1.3,1.5,2.5,2.9,3.8,4.4c0,0.9,0,1.8,0.1,2.7c0,1.1-0.2,2.3-0.1,3.4c0.3,2.7-1.1,3.7-3.6,3.6c-1.2-0.1-2.4-0.2-3.6-0.3l0,0
		c0.8-1.7,1.5-3.5,2.6-5c1.3-1.6,1.1-2.1-0.9-2.1c-2.9,0-5.7,0.1-8.6,0.1l0,0c0.4-1.5,0.4-3.5,1.3-4.4
		C779.8,1110.4,775.6,1111.6,774.5,1110.9z M778.3,1116.5c0.5-0.4,1-0.6,1-0.9c0.1-0.3-0.3-0.7-0.5-1.1c-0.4,0.3-0.9,0.5-1.1,0.9
		C777.6,1115.6,778,1116,778.3,1116.5z M785.6,1106.5c-0.7-0.3-1.1-0.4-1.5-0.6c-0.1,0.4-0.3,0.8-0.4,1.2c0,0.1,0.6,0.4,0.8,0.3
		C784.9,1107.3,785.1,1106.9,785.6,1106.5z"/>
	<path class="st17" d="M951.9,1126.7c0,2.3-0.2,4.6,0.1,6.8c0.2,1.6,0.9,3.2,1.6,4.6c1.3,2.2,0.7,3.7-1.8,4c-0.8,0.1-1.7,0.1-2.4,0
		c-1.6-0.3-3.9-0.2-4.7-1.2c-1.1-1.5,0.2-2.9,2.1-3.5c0.4-0.2,0.4-1.8,0.4-2.8c0-3.4,0-6.9,0-10.3c0-1.8,0.6-3.9-1.9-4.9
		c-0.5-0.2-0.8-1.9-0.5-2.6c0.3-0.6,1.5-1,2.3-1.2c4.3-0.6,4.8-0.1,4.8,4.1C951.9,1122.1,951.9,1124.4,951.9,1126.7
		C951.9,1126.7,951.9,1126.7,951.9,1126.7z"/>
	<path class="st17" d="M798.3,1132.8c-0.9,0.1-1.8,0.2-2.7,0.3c-0.4-0.1-0.7-0.2-1.1-0.3l-0.1-0.1c-1-0.2-2.1-0.5-3.1-0.7
		c1.9-2.4,3.8-4.8,5.7-7.2c2,0,3.9,0,5.9,0c0.8,0,1.5,0.1,2.3,0.1c-0.2-0.6-0.3-1.2-0.5-1.8c-0.6-1.6-1.3-3.1-2-4.7
		c0.6-1-0.4-4.2,2.8-1.8c1.2,0.9,3.2,1,4.8,1.4c0,2.3-0.1,4.6-0.1,6.9c-0.2,0.3-0.3,0.6-0.5,0.8c-4.4,0.6-6.4,2.3-6.5,6.3
		c-0.1,8.3,0.1,16.5,0.1,24.8c0,1.8-0.2,3.5-0.3,5.3c0,0.1-0.3,0.1-0.4,0.2c-0.1-1.9-0.3-3.8-0.3-5.7c0-5.2,0-10.4,0.1-15.6
		c0-1.7-0.1-3.5,0.1-5.2c0.2-2.6-0.7-3.7-3.4-3.1C798.7,1132.8,798.5,1132.8,798.3,1132.8z"/>
	<path class="st17" d="M795.5,1101.6c0.6-0.7,1.2-1.5,1.9-2.2c4.7-4.7,10.1-2.8,12.7,4.3c-0.2,0.2-0.3,0.4-0.4,0.6
		c-1.2,0.1-2.4,0.1-3.6,0.2c-1.6-0.1-3.2-0.2-4.8-0.1c-0.2,0-0.7,1.2-0.5,1.6c0.3,0.7,1,1.2,1.6,1.8c0,2.1-0.1,4.1-0.1,6.2
		c-2-1-4-2-5.9-3c-0.1-0.1-0.3-0.1-0.5-0.2c-0.2-1-0.3-2-0.5-3.1C795.3,1105.7,795.4,1103.6,795.5,1101.6z M800.8,1101.4
		c-0.7-0.1-1.3-0.2-2-0.3c0,0.3,0,0.6,0,0.9c0.7-0.1,1.4-0.1,2.1-0.2c0.4,0.2,0.9,0.5,1.3,0.4c0.6-0.1,1.2-0.4,1.7-0.7
		c-0.6-0.2-1.2-0.5-1.8-0.6C801.7,1100.9,801.3,1101.2,800.8,1101.4z"/>
	<path class="st17" d="M781.6,1125.2c1.2,0.1,2.4,0.2,3.6,0.3c1.2,2.2,2.4,4.4,3.6,6.6c-0.4,0.2-0.8,0.4-1.2,0.6
		c-2.8,0.1-2.3,2.2-2.3,3.9c0,7.6,0,15.3,0,22.9c0,0.7-0.2,1.4-0.3,2.1c-0.1-0.6-0.2-1.3-0.2-1.9c0-5.2,0-10.4,0-15.6
		c0-2-0.6-2.9-2.5-1.4c-0.8-0.4-1.5-0.7-2.2-1.1c0-1.2-0.1-2.4-0.1-3.6c2.7-1.4,2.3-3.6,1.6-5.9c-0.1-1.1-0.1-2.3-0.2-3.4
		C781.3,1127.5,781.5,1126.3,781.6,1125.2z M785.2,1135.2c-0.8-0.8-1.4-1.5-2.1-2.2c-0.3,0.6-1,1.3-0.9,1.9c0.2,0.9,0.9,1.8,1.4,2.7
		C784,1136.9,784.5,1136.3,785.2,1135.2z"/>
	<path class="st17" d="M823.9,1132.3c-0.3,0.1-0.7,0.2-1,0.3c-0.6-0.1-1.3-0.3-1.9-0.4c-6.5-5.8-6.6-8.2-0.7-13.6
		c1.2-0.1,2.4-0.1,3.6-0.2l-0.1-0.1c0.1,2.3,0.2,4.6,0.3,6.9C824,1127.5,823.9,1129.9,823.9,1132.3z M820.8,1122.2
		c-0.6,1.5-0.7,1.9-0.9,2.3c0.4,0.1,0.8,0.3,1.2,0.3c0.1,0,0.4-0.5,0.4-0.7C821.4,1123.7,821.2,1123.3,820.8,1122.2z"/>
	<path class="st17" d="M781.6,1125.2c-0.1,1.2-0.2,2.3-0.3,3.5c-1.1,1.1-2.3,2.2-3.4,3.3c-0.4,0.1-0.8,0.1-1.1,0.2
		c-1.1,0.1-2.2,0.1-3.2,0.2c-1.9,0-3.8,0.1-5.6,0.1c0.2-1.3,0.4-2.6,0.7-4c2-1.2,4-2.3,6-3.5
		C776.8,1125.1,779.2,1125.1,781.6,1125.2L781.6,1125.2z M772.6,1128c-0.3,0.7-0.4,1.1-0.6,1.4c0.4,0.1,0.8,0.3,1.2,0.4
		c0.1,0,0.4-0.6,0.3-0.8C773.4,1128.8,773.1,1128.5,772.6,1128z"/>
	<path class="st17" d="M814.2,1096.6c-0.5-1.5-1.5-2.9-1.1-3.8c1.4-3.4,3-6.8,4.8-10c0.4-0.7,1.9-1,2.8-0.9c0.4,0.1,1.2,1.7,1,2.3
		c-1.6,3.7-3.4,7.3-5.2,10.9C816.3,1095.6,815.5,1095.8,814.2,1096.6z"/>
	<path class="st17" d="M841.3,1099.6c-0.2,0.8-0.2,1.1-0.3,1.1c-3.9,2.5-7.8,5-11.7,7.5c-0.6-1.1-1.7-3-1.6-3
		c3.6-2.5,7.2-4.9,11-7.1C839.1,1097.8,840.5,1099.1,841.3,1099.6z"/>
	<path class="st17" d="M820.3,1118.5c-6,5.4-5.9,7.8,0.7,13.6c-0.7,0.2-1.4,0.4-2.1,0.7c-0.3,0-0.7,0-1,0.1l-0.4-0.2l-0.3,0.2
		c-0.1-0.2-0.3-0.3-0.4-0.5c0-4.5-2.6-6.6-6.6-7.4c0-2.3,0.1-4.6,0.1-6.9l0,0c2.1-0.1,4.3-0.2,6.4-0.3
		C817.8,1118,819,1118.3,820.3,1118.5z"/>
	<path class="st17" d="M770,1080.4c1.7,1.5,2.6,1.9,3,2.7c1.6,3,3.2,6,4.4,9.2c0.4,0.9-0.3,2.3-0.5,3.4c-1.1-0.6-2.8-0.8-3.3-1.8
		c-1.7-2.8-3.1-5.7-4.2-8.7C769,1084.1,769.6,1082.7,770,1080.4z"/>
	<path class="st17" d="M779.9,1141.6c0.7,0.4,1.5,0.7,2.2,1.1c0.1,5.3,0.2,10.7,0.2,16c0,0.8-0.6,1.6-1,2.4
		c-0.6-0.8-1.7-1.6-1.7-2.5C779.6,1152.9,779.8,1147.3,779.9,1141.6z"/>
	<path class="st17" d="M774.5,1110.9c1.1,0.7,5.3-0.5,1.6,3c-1,0.9-0.9,2.9-1.3,4.4c-2.3,1.1-4.7,2.3-7,3.4
		C767.4,1114,768.2,1112.7,774.5,1110.9z"/>
	<path class="st17" d="M806.3,1147c0-4.2,0-8.5,0-12.7c0-0.5,0.5-1,0.8-1.5c0.3,0.5,0.8,1,0.8,1.5c0,5.5,0,11-0.1,16.4
		c0,3.2,0.1,6.4,0,9.6c0,0.5-0.5,1-0.8,1.4c-0.2-0.5-0.7-1-0.7-1.6C806.2,1155.8,806.3,1151.4,806.3,1147z"/>
	<path class="st17" d="M795.5,1101.6c-0.1,2.1-0.2,4.1-0.3,6.2c-1.9-1.9-3.7-3.9-6.8-3.3l0.1,0.1c0.1-2.4,0.1-4.8,0.2-7.2
		C792.3,1096.7,793.9,1099,795.5,1101.6z"/>
	<path class="st17" d="M850.4,1128.6c0,3.9,0.1,7.8-0.1,11.7c0,0.5-0.9,1-1.3,1.6c-0.3-0.5-0.9-1-0.9-1.5c-0.1-7.6-0.1-15.3,0-22.9
		c0-0.5,0.9-1,1.4-1.5c0.3,0.7,0.9,1.3,0.9,2C850.5,1121.4,850.4,1125,850.4,1128.6C850.4,1128.6,850.4,1128.6,850.4,1128.6z"/>
	<path class="st17" d="M809.7,1104.3c0.1-0.2,0.2-0.4,0.4-0.6c3.8,1.2,7,2.8,6.7,7.6l0,0c-2.2,1.4-4.4,2.8-6.6,4.2
		C810,1111.8,809.8,1108,809.7,1104.3z"/>
	<path class="st17" d="M767.7,1121.7c2.3-1.1,4.7-2.3,7-3.4l0,0c-0.1,2.3-0.2,4.5-0.2,6.8c-2,1.2-4,2.3-6,3.5
		c-0.3-1.2-0.6-2.4-0.9-3.6C767.6,1123.8,767.7,1122.8,767.7,1121.7z"/>
	<path class="st17" d="M767.6,1124.9c0.3,1.2,0.6,2.4,0.9,3.6c-0.2,1.3-0.4,2.6-0.7,4c0,0.2-0.1,0.3-0.1,0.5c-0.3-0.2-0.6-0.1-0.9,0
		c-0.7-0.1-1.3-0.2-2-0.3c-1.1-0.1-2.1-0.1-3.2-0.2c-2.4-2.7-0.2-4.4,1.5-5.9C764.3,1125.7,766.1,1125.5,767.6,1124.9z"/>
	<path class="st17" d="M788.7,1097.3c-0.1,2.4-0.1,4.8-0.2,7.2c-2.4-0.2-4.7-0.5-7-0.7C782.7,1098.8,784.1,1097.5,788.7,1097.3z"/>
	<path class="st17" d="M818.8,1132.8c0.7-0.2,1.4-0.4,2.1-0.7c0.6,0.1,1.3,0.3,1.9,0.4c-1.8,2.8-1.6,5.6-0.1,8.4
		c0.4,0.5,0.9,1.1,1.3,1.6c0.2,1,0.5,1.9,0.5,2.9c-0.1,1.5-0.4,3-0.7,4.5c-0.4-1.3-0.8-2.5-1.3-3.8c-0.1-0.2-0.5-0.4-0.8-0.5
		l-0.2-0.2c-0.5-0.8-1-1.6-1.5-2.4C819.7,1139.7,819.2,1136.2,818.8,1132.8z"/>
	<path class="st17" d="M823.9,1132.3c0.1-2.4,0.1-4.8,0.2-7.2c2.2,0.1,4.4,0.1,6.7,0.2c-0.8,2.1-1.7,4.2-2.5,6.3
		c-0.2,0-0.4,0-0.4,0.3c-0.3,0.1-0.6,0.3-0.9,0.4c-0.7,0.1-1.5,0.2-2.2,0.2C824.4,1132.5,824.1,1132.4,823.9,1132.3z"/>
	<path class="st17" d="M820.3,1118.5c-1.2-0.2-2.4-0.5-3.7-0.7c0-2.2,0.1-4.4,0.1-6.5l0,0c5.1,0.7,6.3,1.9,7.1,7.1
		C822.6,1118.4,821.4,1118.4,820.3,1118.5z"/>
	<path class="st17" d="M830.7,1125.3c-2.2-0.1-4.4-0.1-6.7-0.2c-0.1-2.3-0.2-4.6-0.3-6.9C828.9,1119,830.1,1120.2,830.7,1125.3z"/>
	<path class="st17" d="M810,1125c4.1,0.8,6.7,2.9,6.6,7.4c-6.8,0.1-6.8,0.1-7.1-6.6C809.7,1125.6,809.9,1125.3,810,1125z"/>
	<path class="st17" d="M761.7,1132.6c1,0.1,2.1,0.1,3.2,0.2c0,3.2,0.1,6.5,0,9.7c0,0.6-0.6,1.3-0.9,1.9c-0.5-0.6-1.3-1.1-1.4-1.7
		c-0.3-1.6-0.4-3.2-0.5-4.8C761.9,1136.1,761.8,1134.4,761.7,1132.6z"/>
	<path class="st17" d="M817.9,1140c0.1,4.7,0.2,9.4,0.2,14c0,1-0.7,2-1,2.9c-0.5-1-1.3-2-1.3-3.1c-0.1-4.7,0.1-9.4,0.2-14
		C816.6,1139.9,817.3,1139.9,817.9,1140z"/>
	<path class="st17" d="M798.3,1132.8c0.2-0.1,0.4,0,0.6,0c0.1,9.6,0.1,19.2,0.2,28.8c0,0.6-0.2,1.2-0.4,1.9
		c-0.2-0.7-0.5-1.4-0.5-2.1c-0.1-2.6,0-5.2,0-7.8c0-0.6,0-1.2,0-1.9C798.3,1145.4,798.3,1139.1,798.3,1132.8z"/>
	<path class="st17" d="M812,1145.8c0-3.4,0-6.8,0-10.3c0-0.6,0.3-1.2,0.5-1.8c0.2,0.5,0.7,1,0.7,1.5c0,7.3,0.1,14.7,0,22
		c0,0.5-0.4,1.1-0.6,1.6c-0.2-0.6-0.5-1.2-0.5-1.8C812,1153.3,812,1149.5,812,1145.8z"/>
	<path class="st17" d="M787.6,1132.6c0.4-0.2,0.8-0.4,1.2-0.6c0.8,0,1.7,0,2.5,0c1,0.2,2.1,0.5,3.1,0.7c-5.9,0.6-5.8,0.6-5.9,6.8
		c0,1.7-0.2,3.5-0.4,5.2c-0.2-1.8-0.4-3.6-0.5-5.4C787.5,1137.1,787.6,1134.9,787.6,1132.6z"/>
	<path class="st17" d="M824.6,1132.5c0.7-0.1,1.5-0.2,2.2-0.2c0,4,0.1,8.1,0.1,12.1c0,0.6-0.4,1.1-0.7,1.7c-0.2-0.6-0.6-1.1-0.6-1.7
		c-0.1-2.4,0.1-4.8-0.1-7.3C825.5,1135.5,825,1134,824.6,1132.5z"/>
	<path class="st17" d="M821.7,1145.7c0,1.6,0.1,3.2,0,4.8c-0.1,0.9-0.5,1.7-0.8,2.5c-0.4-0.8-1-1.5-1-2.3c-0.1-1.8,0.2-3.5,0.3-5.3
		c0.5,0,0.9,0,1.4,0.1L821.7,1145.7z"/>
	<path class="st17" d="M798.2,1151.7c0,0.6,0,1.2,0,1.9c-1.5,1.1-3.2,2.9-4.5,0c-0.3-0.7,0.6-2.7,1.3-2.9
		C795.9,1150.3,797.1,1151.3,798.2,1151.7z"/>
	<path class="st17" d="M817.9,1140c-0.6,0-1.3-0.1-1.9-0.1c0.1-1.2,0.2-2.4,0.3-3.6c0.5,0,1-0.1,1.4-0.1
		C819,1137.4,819.8,1138.6,817.9,1140z"/>
	<path class="st17" d="M774.8,1133.3c0,3.5,0.1,7.1,0,10.6c0,0.7-0.4,1.4-0.6,2.1c-0.2-0.8-0.5-1.5-0.5-2.3c0-3.5,0-7.1,0-10.6
		C774.1,1133.2,774.4,1133.3,774.8,1133.3z"/>
	<path class="st17" d="M767.9,1138.1c0,3.3,0.1,6.5,0.1,9.8c0,0.4-0.3,0.9-0.5,1.3c-0.3-0.5-0.8-0.9-0.8-1.4c0-3.3,0-6.5,0.1-9.8
		C767.2,1138,767.5,1138.1,767.9,1138.1z"/>
	<path class="st17" d="M781.4,1132.1c0.7,2.3,1,4.5-1.6,5.9c0-1.7-0.1-3.5-0.1-5.2C780.2,1132.5,780.8,1132.3,781.4,1132.1z"/>
	<path class="st17" d="M827.8,1131.9c0.1-0.2,0.2-0.3,0.4-0.3c0.2,3,0.3,6,0.5,9c0,0.4-0.3,0.9-0.4,1.3c-0.2-0.5-0.6-1-0.6-1.5
		C827.6,1137.6,827.7,1134.8,827.8,1131.9z"/>
	<path class="st17" d="M781.4,1132.1c-0.6,0.2-1.2,0.5-1.8,0.7c-0.5-0.1-1.1-0.2-1.6-0.2c0.1-0.2,0-0.4-0.2-0.5
		c1.1-1.1,2.3-2.2,3.4-3.3C781.3,1129.8,781.3,1130.9,781.4,1132.1z"/>
	<path class="st17" d="M795.4,1140.1c-0.1,2.6-0.2,5.3-0.3,7.9c-0.1,0-0.3,0-0.3,0c0-2.7-0.1-5.3-0.1-8c0-0.2,0.1-0.3,0.2-0.4
		C795.2,1139.5,795.4,1139.7,795.4,1140.1z"/>
	<path class="st17" d="M795.5,1160.8c0,0.7,0.1,1.3,0,1.9c-0.1,0.3-0.5,0.6-0.7,0.9c-0.1-0.3-0.4-0.6-0.4-0.8
		c-0.1-0.6-0.1-1.3-0.1-1.9c0.1-1.2,0.4-2.5,0.6-3.7c0.3,1.2,0.6,2.4,0.9,3.6C795.7,1160.7,795.6,1160.8,795.5,1160.8z"/>
	<path class="st17" d="M823.2,1139.9c0-1.7,0.1-3.4,0.1-5.1c0.1,1.7,0.2,3.4,0.2,5.1L823.2,1139.9z"/>
	<path class="st17" d="M795.4,1140.1c0-0.4-0.2-0.6-0.5-0.5c-0.1-0.8-0.1-1.5-0.2-2.3c0.3-0.2,0.6-0.4,0.8-0.6
		C797.4,1137.8,796.9,1138.9,795.4,1140.1z"/>
	<path class="st17" d="M817.7,1136.2c-0.5,0-1,0.1-1.4,0.1c0.3-1.1,0.6-2.2,0.9-3.3l0.3-0.2l0.4,0.2
		C817.7,1134,817.7,1135.1,817.7,1136.2z"/>
	<path class="st17" d="M823.2,1139.9l0.3,0c0.2,0.9,0.3,1.8,0.5,2.7c-0.4-0.5-0.9-1.1-1.3-1.6C822.9,1140.6,823,1140.3,823.2,1139.9
		z"/>
	<path class="st17" d="M821.6,1145.5c-0.5,0-0.9,0-1.4-0.1c0-0.8-0.1-1.6-0.1-2.3C820.6,1143.9,821.1,1144.7,821.6,1145.5z"/>
	<path class="st17" d="M775.5,1152.1c-0.6-0.5-1-0.8-1.5-1.2c0.5-0.4,1-1,1.6-1.1c0.4-0.1,1,0.6,1.5,0.9
		C776.7,1151.2,776.2,1151.6,775.5,1152.1z"/>
	<path class="st17" d="M775,1155.4c-0.3,0.5-0.5,1.1-0.8,1.6c-0.2-0.7-0.5-1.4-0.5-2.2c0-0.6,0.3-1.1,0.5-1.7
		C774.5,1153.8,774.7,1154.5,775,1155.4z"/>
	<path class="st17" d="M795.5,1136.6c-0.3,0.2-0.6,0.4-0.8,0.6c0-1.4-0.1-2.9-0.1-4.3c0.4,0.1,0.7,0.2,1.1,0.3
		C795.6,1134.3,795.5,1135.4,795.5,1136.6z"/>
	<path class="st17" d="M811.1,1144.3c-0.3,0.5-0.5,0.9-0.7,1.3c-0.4-0.3-0.8-0.6-1.1-1c-0.1-0.1,0.4-0.8,0.7-0.9
		C810.3,1143.7,810.6,1144.1,811.1,1144.3z"/>
	<path class="st17" d="M790.1,1147.8c-0.8,0.3-1.2,0.7-1.7,0.7c-0.3,0-0.8-0.9-0.7-1c0.3-0.4,0.8-0.8,1.3-0.9
		C789.1,1146.5,789.5,1147.2,790.1,1147.8z"/>
	<path class="st17" d="M775.5,1147.2c0.7,0.4,1.2,0.7,1.7,1c-0.5,0.3-1,0.8-1.5,0.8c-0.6,0-1.1-0.4-1.7-0.7
		C774.5,1148,775,1147.6,775.5,1147.2z"/>
	<path class="st17" d="M788.4,1151.1c0.6,0.6,1.2,0.9,1.2,1.1c-0.1,0.5-0.5,1-0.9,1.3c-0.1,0.1-1-0.4-1-0.7
		C787.7,1152.4,788,1151.9,788.4,1151.1z"/>
	<path class="st17" d="M811.1,1153c-0.6,0.3-0.9,0.5-1.3,0.6c-0.1,0-0.5-0.5-0.4-0.7c0.1-0.3,0.5-0.6,0.7-0.9
		C810.3,1152.2,810.6,1152.5,811.1,1153z"/>
	<path class="st17" d="M767.9,1138.1c-0.4,0-0.8-0.1-1.1-0.1c0-0.7,0-1.4,0-2.1c0.4,0,0.8-0.1,1.2-0.1
		C767.9,1136.6,767.9,1137.3,767.9,1138.1z"/>
	<path class="st17" d="M791.2,1160.6c-0.5,0.3-1.1,0.8-1.2,0.8c-0.4-0.3-0.7-0.8-1-1.3c0.4-0.2,0.8-0.6,1.2-0.5
		C790.6,1159.6,790.8,1160.1,791.2,1160.6z"/>
	<path class="st17" d="M774.8,1133.3c-0.4-0.1-0.7-0.1-1.1-0.2c-0.2-0.2-0.2-0.5-0.3-0.7c1.1-0.1,2.2-0.1,3.2-0.2
		c0,0.3-0.1,0.6-0.1,0.9C776,1133.2,775.4,1133.2,774.8,1133.3z"/>
	<path class="st17" d="M767.9,1135.8c-0.4,0-0.8,0.1-1.2,0.1c0-1,0-1.9,0.1-2.9c0.3-0.2,0.6-0.2,0.9,0
		C767.8,1133.9,767.9,1134.9,767.9,1135.8z"/>
	<path class="st17" d="M776.5,1133.1c0.1-0.3,0.1-0.6,0.1-0.9c0.4-0.1,0.8-0.1,1.1-0.2c0.2,0.1,0.3,0.3,0.2,0.5
		C777.5,1132.7,777,1132.9,776.5,1133.1z"/>
	<path class="st17" d="M809.7,1104.3c0.2,3.7,0.3,7.5,0.5,11.2c0,0.9,0,1.7,0.1,2.6l0,0c-1.6-0.4-3.6-0.5-4.8-1.4
		c-3.2-2.5-2.2,0.7-2.8,1.8c-1.1,0-2.3,0-3.4-0.1c-2.7,0-5.4-0.1-8.1-0.1c-0.8,0.1-1.5,0.1-2.3,0.2c0-0.9,0-1.8-0.1-2.7
		c1.2-1.4,2.4-2.9,3.6-4.3c1.1-0.2,2.3-0.4,3.4-0.7c0.2,0.1,0.3,0.1,0.5,0.2c2,1,4,2,5.9,3c0-2.1,0.1-4.1,0.1-6.2
		c1.3-1.1,2.5-2.2,3.8-3.3C807.2,1104.4,808.4,1104.3,809.7,1104.3z M794.7,1115.3c1.7,0.2,3.5,0.3,5.2,0.5c0-0.3,0-0.6,0-0.9
		C798.1,1115.1,796.4,1115.2,794.7,1115.3c-0.6-0.2-1.2-0.5-1.8-0.7c0,0.5,0,1,0,1.4C793.4,1115.8,794.1,1115.6,794.7,1115.3z
		 M807.8,1110.5c-0.4-0.5-0.7-1-1-1c-0.3,0-0.7,0.4-1.1,0.6c0.2,0.4,0.4,0.9,0.7,1C806.8,1111.2,807.2,1110.8,807.8,1110.5z"/>
	<path class="st17" d="M788.8,1118.5c0.8-0.1,1.5-0.1,2.3-0.2c2,2.2,3.9,4.3,5.9,6.5c-1.9,2.4-3.8,4.8-5.7,7.2c-0.8,0-1.7,0-2.5,0
		c-1.2-2.2-2.4-4.4-3.6-6.6c2.5,0.1,3.9-0.9,3.6-3.6C788.6,1120.7,788.8,1119.6,788.8,1118.5z M791.6,1123.1
		c-0.3,0.5-0.8,0.8-0.8,1.1c0,0.3,0.5,0.6,0.8,1c0.4-0.4,0.7-0.8,1.1-1.2C792.4,1123.7,792.1,1123.4,791.6,1123.1z"/>
	<path class="st17" d="M774.5,1125c0.1-2.3,0.2-4.5,0.2-6.8c2.9,0,5.7-0.1,8.6-0.1c2,0,2.2,0.5,0.9,2.1c-1.1,1.4-1.8,3.3-2.6,5
		C779.2,1125.1,776.8,1125.1,774.5,1125z"/>
	<path class="st17" d="M795.7,1110.8c-1.1,0.2-2.3,0.4-3.4,0.7c-2.5,0-4.9-0.1-7.4-0.1c1.2-2.3,2.4-4.6,3.5-6.9
		c3.1-0.6,4.9,1.4,6.8,3.3C795.4,1108.8,795.6,1109.8,795.7,1110.8z"/>
	<path class="st17" d="M784.9,1111.4c2.5,0,4.9,0.1,7.4,0.1c-1.2,1.4-2.4,2.9-3.6,4.3C787.5,1114.3,786.2,1112.8,784.9,1111.4z"/>
	<path class="st17" d="M778.3,1116.5c-0.3-0.5-0.7-1-0.6-1.1c0.2-0.4,0.7-0.6,1.1-0.9c0.2,0.4,0.6,0.8,0.5,1.1
		C779.3,1115.9,778.8,1116.1,778.3,1116.5z"/>
	<path class="st17" d="M785.6,1106.5c-0.5,0.5-0.8,0.8-1.1,1c-0.2,0.1-0.8-0.2-0.8-0.3c0.1-0.4,0.3-0.8,0.4-1.2
		C784.6,1106,784.9,1106.2,785.6,1106.5z"/>
	<path class="st17" d="M796.9,1124.8c-2-2.2-3.9-4.3-5.9-6.5c2.7,0,5.4,0.1,8.1,0.1c1.2,2.1,2.4,4.2,3.6,6.3
		C800.9,1124.8,798.9,1124.8,796.9,1124.8z"/>
	<path class="st17" d="M802.8,1124.8c-1.2-2.1-2.4-4.2-3.6-6.3c1.1,0,2.3,0,3.4,0.1c0.7,1.6,1.3,3.1,2,4.7c0.2,0.6,0.3,1.2,0.5,1.8
		C804.3,1124.9,803.6,1124.9,802.8,1124.8z"/>
	<path class="st17" d="M806,1104.5c-1.3,1.1-2.5,2.2-3.8,3.3c-0.6-0.6-1.3-1.1-1.6-1.8c-0.2-0.4,0.3-1.5,0.5-1.6
		C802.8,1104.3,804.4,1104.4,806,1104.5z"/>
	<path class="st17" d="M800.8,1101.4c0.4-0.2,0.9-0.5,1.3-0.5c0.6,0.1,1.2,0.4,1.8,0.6c-0.6,0.2-1.1,0.6-1.7,0.7
		c-0.4,0.1-0.9-0.3-1.3-0.4L800.8,1101.4z"/>
	<path class="st17" d="M800.8,1101.4l0,0.4c-0.7,0.1-1.4,0.1-2.1,0.2c0-0.3,0-0.6,0-0.9C799.5,1101.2,800.2,1101.3,800.8,1101.4z"/>
	<path class="st17" d="M785.2,1135.2c-0.7,1.1-1.2,1.7-1.6,2.4c-0.5-0.9-1.2-1.7-1.4-2.7c-0.1-0.5,0.6-1.2,0.9-1.9
		C783.8,1133.7,784.4,1134.4,785.2,1135.2z"/>
	<path class="st17" d="M820.8,1122.2c0.4,1.1,0.6,1.5,0.7,1.9c0,0.2-0.2,0.7-0.4,0.7c-0.4,0-0.8-0.2-1.2-0.3
		C820.1,1124.1,820.2,1123.7,820.8,1122.2z"/>
	<path class="st17" d="M772.6,1128c0.5,0.5,0.8,0.7,1,1.1c0.1,0.2-0.2,0.8-0.3,0.8c-0.4-0.1-0.8-0.2-1.2-0.4
		C772.2,1129.1,772.3,1128.7,772.6,1128z"/>
	<path class="st17" d="M810.2,1118.1c0-0.9,0-1.7-0.1-2.6c2.2-1.4,4.4-2.8,6.6-4.2c0,2.2-0.1,4.4-0.1,6.5
		C814.5,1117.9,812.3,1118,810.2,1118.1z"/>
	<path class="st17" d="M794.7,1115.4c1.7-0.2,3.5-0.3,5.2-0.5c0,0.3,0,0.6,0,0.9C798.2,1115.6,796.4,1115.5,794.7,1115.4
		L794.7,1115.4z"/>
	<path class="st17" d="M807.8,1110.5c-0.6,0.3-1.1,0.7-1.4,0.6c-0.3-0.1-0.5-0.7-0.7-1c0.4-0.2,0.8-0.6,1.1-0.6
		C807.1,1109.5,807.4,1110,807.8,1110.5z"/>
	<path class="st17" d="M794.7,1115.4L794.7,1115.4c-0.6,0.2-1.2,0.4-1.9,0.7c0-0.5,0-1,0-1.4
		C793.4,1114.9,794.1,1115.1,794.7,1115.4z"/>
	<path class="st17" d="M791.6,1123.1c0.4,0.4,0.8,0.6,1.1,0.9c-0.4,0.4-0.7,0.8-1.1,1.2c-0.3-0.3-0.8-0.6-0.8-1
		C790.9,1123.9,791.3,1123.5,791.6,1123.1z"/>
</g>
<line class="st53" x1="325" y1="306.8" x2="437.8" y2="306.8"/>
<line class="st53" x1="838.1" y1="1033.7" x2="951" y2="1033.7"/>
<line class="st53" x1="333.9" y1="810.4" x2="446.7" y2="810.4"/>
<line class="st53" x1="326.1" y1="554.7" x2="439" y2="554.7"/>
<line class="st4" x1="571.2" y1="1056.1" x2="498" y2="1056.1"/>
</svg>
