<?xml version="1.0" encoding="utf-8"?>
<!-- Generator: Adobe Illustrator 19.2.1, SVG Export Plug-In . SVG Version: 6.00 Build 0)  -->
<svg version="1.1" id="Ebene_1" xmlns="http://www.w3.org/2000/svg" xmlns:xlink="http://www.w3.org/1999/xlink" x="0px" y="0px"
	 viewBox="0 0 1083 842" style="enable-background:new 0 0 1083 842;" xml:space="preserve">
<style type="text/css">
	.st0{clip-path:url(#SVGID_2_);fill:url(#SVGID_3_);}
	.st1{fill:url(#SVGID_4_);}
	.st2{fill:url(#SVGID_5_);}
	.st3{fill:#20313C;}
	.st4{clip-path:url(#SVGID_7_);fill:url(#SVGID_8_);}
	.st5{fill:none;}
	.st6{fill:#FFFFFF;}
	.st7{font-family:'HelenPro-Regular';}
	.st8{font-size:21px;}
	.st9{fill:#D4D2D3;}
	.st10{fill:url(#SVGID_9_);}
	.st11{fill:#B9173E;}
	.st12{fill:url(#SVGID_10_);}
	.st13{clip-path:url(#SVGID_12_);fill:url(#SVGID_13_);}
	.st14{clip-path:url(#SVGID_15_);fill:url(#SVGID_16_);}
	.st15{fill:url(#SVGID_17_);}
	.st16{fill:url(#SVGID_18_);}
</style>
<g>
	<g>
		<g>
			<g>
				<defs>
					<polygon id="SVGID_1_" points="0,272.4 0,419.3 324.1,419.3 356,345.9 324.1,272.4 					"/>
				</defs>
				<clipPath id="SVGID_2_">
					<use xlink:href="#SVGID_1_"  style="overflow:visible;"/>
				</clipPath>
				
					<linearGradient id="SVGID_3_" gradientUnits="userSpaceOnUse" x1="304.5612" y1="778.2143" x2="305.5102" y2="778.2143" gradientTransform="matrix(375.1194 0 0 -375.1194 -114246.8047 292269.125)">
					<stop  offset="0" style="stop-color:#191816"/>
					<stop  offset="3.293890e-02" style="stop-color:#1B1C1B"/>
					<stop  offset="0.1505" style="stop-color:#202528"/>
					<stop  offset="0.2829" style="stop-color:#222B32"/>
					<stop  offset="0.4366" style="stop-color:#212F38"/>
					<stop  offset="0.6311" style="stop-color:#21313C"/>
					<stop  offset="1" style="stop-color:#21313D"/>
				</linearGradient>
				<rect y="272.4" class="st0" width="356" height="146.9"/>
			</g>
		</g>
	</g>
	<g>
		<g>
			
				<linearGradient id="SVGID_4_" gradientUnits="userSpaceOnUse" x1="759.3" y1="92.95" x2="785" y2="92.95" gradientTransform="matrix(1 0 0 1 0 279)">
				<stop  offset="0" style="stop-color:#191816"/>
				<stop  offset="3.293890e-02" style="stop-color:#1B1C1B"/>
				<stop  offset="0.1505" style="stop-color:#202528"/>
				<stop  offset="0.2829" style="stop-color:#222B32"/>
				<stop  offset="0.4366" style="stop-color:#212F38"/>
				<stop  offset="0.6311" style="stop-color:#21313C"/>
				<stop  offset="1" style="stop-color:#21313D"/>
			</linearGradient>
			<path class="st1" d="M784.4,391.9c0.1-1.8,0.6-8.3,0.6-10.1c0-9.6-2.7-23.5-5-32.3l-20.7,2.1c1.7,6.8,5.4,22.9,5.4,30.3
				c0,1.8-0.8,10.8-1,12.5L784.4,391.9z"/>
			
				<linearGradient id="SVGID_5_" gradientUnits="userSpaceOnUse" x1="566.2" y1="115" x2="784.4999" y2="115" gradientTransform="matrix(1 0 0 1 0 279)">
				<stop  offset="0" style="stop-color:#191816"/>
				<stop  offset="3.293890e-02" style="stop-color:#1B1C1B"/>
				<stop  offset="0.1505" style="stop-color:#202528"/>
				<stop  offset="0.2829" style="stop-color:#222B32"/>
				<stop  offset="0.4366" style="stop-color:#212F38"/>
				<stop  offset="0.6311" style="stop-color:#21313C"/>
				<stop  offset="1" style="stop-color:#21313D"/>
			</linearGradient>
			<path class="st2" d="M764.3,388.9c-3.6,45.8-41.9,81.9-88.7,81.9c-49.2,0-89-39.9-89-89c0-49.2,39.9-89,89-89
				c41.2,0,75.8,28,85.9,66.1l19.3-6.5c-12.9-46-55.1-79.9-105.2-79.9c-60.4,0-109.4,49-109.4,109.4c0,55.4,41.3,101.1,94.7,108.3
				l14.6,25.3l14.6-25.3c51.1-6.9,91-49,94.4-101.1h-20.2L764.3,388.9L764.3,388.9z"/>
		</g>
		<g>
			<path class="st3" d="M631.8,370.3l5.2,7.8c1.3,2,2.5,3.9,3.7,5.9h0.2c1.2-2.2,2.4-4,3.6-6l5.1-7.7h7.1l-12.3,17.5l12.7,18.7h-7.5
				l-5.3-8.1c-1.4-2.1-2.6-4.1-3.9-6.3h-0.2c-1.2,2.2-2.5,4.1-3.8,6.3l-5.2,8.1H624l12.8-18.5l-12.3-17.7L631.8,370.3L631.8,370.3z"
				/>
			<path class="st3" d="M681.6,406.4v-13.2H659v-4.3l21.7-31h7.1v30.2h6.8v5.2h-6.8v13.2h-6.2V406.4z M681.6,388.1v-16.2
				c0-2.5,0.1-5.1,0.2-7.6h-0.2c-1.5,2.8-2.7,4.9-4,7.2L665.7,388v0.1H681.6z"/>
			<path class="st3" d="M731.8,381.6c0,16.5-6.1,25.6-16.9,25.6c-9.5,0-15.9-8.9-16.1-25c0-16.3,7-25.3,16.9-25.3
				C726,357.1,731.8,366.2,731.8,381.6z M705.5,382.4c0,12.6,3.9,19.8,9.9,19.8c6.7,0,9.9-7.8,9.9-20.2c0-12-3.1-19.8-9.9-19.8
				C709.7,362.1,705.5,369.2,705.5,382.4z"/>
		</g>
	</g>
	<g>
		<g>
			<g>
				<defs>
					<polygon id="SVGID_6_" points="0,413 0,560.8 517.3,560.8 568.7,486.9 517.3,413 					"/>
				</defs>
				<clipPath id="SVGID_7_">
					<use xlink:href="#SVGID_6_"  style="overflow:visible;"/>
				</clipPath>
				
					<linearGradient id="SVGID_8_" gradientUnits="userSpaceOnUse" x1="302.0833" y1="778.0005" x2="303.4841" y2="778.0005" gradientTransform="matrix(407 0 0 -407 -122949.3281 317133.0938)">
					<stop  offset="0" style="stop-color:#921838"/>
					<stop  offset="3.175431e-02" style="stop-color:#971839"/>
					<stop  offset="0.1555" style="stop-color:#A6183B"/>
					<stop  offset="0.3062" style="stop-color:#B1173D"/>
					<stop  offset="0.5101" style="stop-color:#B7173D"/>
					<stop  offset="1" style="stop-color:#B9173E"/>
				</linearGradient>
				<rect y="413" class="st4" width="568.7" height="147.8"/>
			</g>
		</g>
	</g>
	<g>
		<rect x="277" y="441.3" class="st5" width="256.6" height="106.2"/>
		<text transform="matrix(1 0 0 1 302.2241 457.3032)" class="st6 st7 st8">80% от световните </text>
		<text transform="matrix(1 0 0 1 293.8241 482.5032)" class="st6 st7 st8">корпорации ще са в </text>
		<text transform="matrix(1 0 0 1 352.3241 507.7032)" class="st6 st7 st8">облаците </text>
		<text transform="matrix(1 0 0 1 320.6241 532.9032)" class="st6 st7 st8">до края на 2016</text>
		<g>
			<path class="st9" d="M445.7,134.7c48.1,0.5,86.9,39.6,86.9,87.8c0,1.8-0.2,3.5-0.3,5.2h20.1c0.1-1.7,0.2-3.5,0.2-5.2
				c0-59.3-47.8-107.3-107-107.8L445.7,134.7L445.7,134.7z"/>
			
				<linearGradient id="SVGID_9_" gradientUnits="userSpaceOnUse" x1="337" y1="-44.5" x2="552.2999" y2="-44.5" gradientTransform="matrix(1 0 0 1 0 279)">
				<stop  offset="0" style="stop-color:#921838"/>
				<stop  offset="3.175431e-02" style="stop-color:#971839"/>
				<stop  offset="0.1555" style="stop-color:#A6183B"/>
				<stop  offset="0.3062" style="stop-color:#B1173D"/>
				<stop  offset="0.5101" style="stop-color:#B7173D"/>
				<stop  offset="1" style="stop-color:#B9173E"/>
			</linearGradient>
			<path class="st10" d="M532.3,229.5c-3.6,45.2-41.3,80.8-87.4,80.8c-48.5,0-87.8-39.3-87.8-87.8c0-48.2,38.8-87.3,86.9-87.8v-20
				c-59.1,0.5-107,48.5-107,107.8c0,54.7,40.7,99.7,93.4,106.8l14.4,25l14.4-25c50.4-6.8,89.8-48.3,93.1-99.7L532.3,229.5
				L532.3,229.5z"/>
		</g>
		<g>
			<path class="st11" d="M381.3,239.5c0-6,3.6-10.3,9.5-12.8l-0.1-0.2c-5.3-2.5-7.6-6.6-7.6-10.8c0-7.6,6.4-12.7,14.8-12.7
				c9.3,0,13.9,5.8,13.9,11.8c0,4.1-2,8.4-7.9,11.2v0.2c6,2.4,9.7,6.6,9.7,12.4c0,8.3-7.1,13.9-16.3,13.9
				C387.3,252.5,381.3,246.5,381.3,239.5z M407,239.2c0-5.8-4.1-8.6-10.5-10.5c-5.6,1.6-8.6,5.3-8.6,9.9c-0.2,4.9,3.5,9.1,9.6,9.1
				C403.3,247.8,407,244.2,407,239.2z M389.2,215.3c0,4.8,3.6,7.4,9.1,8.8c4.1-1.4,7.3-4.3,7.3-8.7c0-3.8-2.3-7.8-8.1-7.8
				C392.2,207.6,389.2,211.2,389.2,215.3z"/>
			<path class="st11" d="M451.5,227.2c0,16.3-6,25.3-16.7,25.3c-9.4,0-15.7-8.8-15.8-24.6c0-16.1,6.9-24.9,16.7-24.9
				C445.7,203,451.5,212,451.5,227.2z M425.5,228c0,12.5,3.8,19.5,9.7,19.5c6.6,0,9.8-7.7,9.8-20c0-11.8-3-19.5-9.7-19.5
				C429.6,208,425.5,214.9,425.5,228z"/>
			<path class="st11" d="M479,217.3c0,10.1-5.3,15.1-11.5,15.1c-6,0-11.1-4.8-11.2-14.4c0-9.6,5.2-15,11.6-15
				C474.6,203,479,208.1,479,217.3z M461.5,217.7c-0.1,6.1,2.1,10.8,6.2,10.8c4.3,0,6.2-4.6,6.2-10.9c0-5.8-1.7-10.7-6.2-10.7
				C463.6,206.9,461.5,211.7,461.5,217.7z M467.1,252.5l28.1-49.5h4.1l-28.1,49.5H467.1z M510.2,237.1c0,10.1-5.3,15.1-11.4,15.1
				c-6,0-11.1-4.8-11.2-14.4c0-9.7,5.2-15,11.6-15C505.9,222.8,510.2,228,510.2,237.1z M492.7,237.5c-0.1,6.1,2.3,10.8,6.3,10.8
				c4.3,0,6.2-4.6,6.2-10.9c0-5.8-1.7-10.7-6.2-10.7C494.9,226.7,492.7,231.5,492.7,237.5z"/>
		</g>
	</g>
	<g>
		<rect x="15.4" y="298.8" class="st5" width="321.6" height="128.5"/>
		<text transform="matrix(1 0 0 1 30.6885 314.7329)" class="st6 st7 st8">94% от ИТ мениджърите в </text>
		<text transform="matrix(1 0 0 1 15.5885 339.9329)" class="st6 st7 st8">света смятат, че сигурността </text>
		<text transform="matrix(1 0 0 1 72.8885 365.1329)" class="st6 st7 st8">на бизнеса им се е </text>
		<text transform="matrix(1 0 0 1 64.3885 390.3329)" class="st6 st7 st8">подобрила в облака</text>
		<g>
			
				<linearGradient id="SVGID_10_" gradientUnits="userSpaceOnUse" x1="37.5" y1="-149.35" x2="255.6" y2="-149.35" gradientTransform="matrix(1 0 0 1 0 279)">
				<stop  offset="0" style="stop-color:#191816"/>
				<stop  offset="3.293890e-02" style="stop-color:#1B1C1B"/>
				<stop  offset="0.1505" style="stop-color:#202528"/>
				<stop  offset="0.2829" style="stop-color:#222B32"/>
				<stop  offset="0.4366" style="stop-color:#212F38"/>
				<stop  offset="0.6311" style="stop-color:#21313C"/>
				<stop  offset="1" style="stop-color:#21313D"/>
			</linearGradient>
			<path class="st12" d="M235.4,124.7c-3.6,45.8-41.9,81.8-88.6,81.8c-49.1,0-89-39.8-89-89c0-49.1,39.8-89,89-89
				c41.2,0,75.7,28,85.9,66L252,88C239.1,42,197,8.2,146.9,8.2C86.4,8.4,37.5,57.3,37.5,117.6c0,55.4,41.2,101,94.6,108.2l14.6,25.3
				l14.6-25.3c51.1-6.9,90.9-48.9,94.3-101.1C255.6,124.7,235.4,124.7,235.4,124.7z"/>
			<path class="st9" d="M255.8,122.9c0.1-1.8,0.2-3.5,0.2-5.3c0-9.6-1.4-18.8-3.7-27.7L233,96.4c1.7,6.8,2.6,13.9,2.6,21.2
				c0,1.8-0.2,3.5-0.3,5.3C235.3,122.9,255.8,122.9,255.8,122.9z"/>
		</g>
		<g>
			<path class="st3" d="M89.3,137.6c1.4,0.1,3.1,0,5.3-0.2c3.8-0.5,7.4-2.1,10.2-4.7c3.2-2.9,5.5-7.2,6.4-12.9H111
				c-2.7,3.3-6.6,5.2-11.4,5.2c-8.7,0-14.3-6.6-14.3-14.9c0-9.2,6.6-17.2,16.6-17.2c9.9,0,16,8.1,16,20.5c0,10.7-3.6,18.1-8.4,22.8
				c-3.7,3.7-8.9,5.9-14.1,6.5c-2.4,0.4-4.5,0.4-6,0.4L89.3,137.6L89.3,137.6z M91.7,109.7c0,6,3.7,10.3,9.3,10.3
				c4.4,0,7.8-2.2,9.6-5.1c0.4-0.6,0.6-1.3,0.6-2.4c0-8.3-3.1-14.6-9.9-14.6C95.7,97.9,91.7,102.8,91.7,109.7z"/>
			<path class="st3" d="M144.1,142.3V129h-22.5v-4.3l21.6-31h7.1v30.2h6.8v5.2h-6.8v13.2L144.1,142.3L144.1,142.3z M144.1,123.9
				v-16.2c0-2.5,0.1-5.1,0.2-7.6h-0.2c-1.5,2.8-2.7,4.9-4,7.2l-11.9,16.5v0.1C128.2,123.9,144.1,123.9,144.1,123.9z"/>
			<path class="st3" d="M184,107.4c0,10.2-5.4,15.3-11.6,15.3c-6,0-11.3-4.9-11.3-14.6s5.3-15.2,11.7-15.2
				C179.5,92.9,184,98.1,184,107.4z M166.2,107.8c-0.1,6.2,2.2,10.9,6.3,10.9c4.3,0,6.3-4.6,6.3-11c0-5.9-1.7-10.8-6.3-10.8
				C168.4,96.9,166.2,101.7,166.2,107.8z M171.9,143.1l28.5-50.2h4.2l-28.5,50.2H171.9z M215.6,127.5c0,10.2-5.4,15.3-11.6,15.3
				c-6,0-11.3-4.9-11.3-14.6c0-9.8,5.3-15.2,11.7-15.2C211.2,113,215.6,118.2,215.6,127.5z M197.8,127.9c-0.1,6.2,2.3,10.9,6.3,10.9
				c4.3,0,6.3-4.6,6.3-11c0-5.9-1.7-10.8-6.3-10.8C200,117,197.8,121.8,197.8,127.9z"/>
		</g>
	</g>
	<g>
		<g>
			<g>
				<defs>
					<polygon id="SVGID_11_" points="0,559.7 0,699 740.9,699 814.6,629.3 740.9,559.7 					"/>
				</defs>
				<clipPath id="SVGID_12_">
					<use xlink:href="#SVGID_11_"  style="overflow:visible;"/>
				</clipPath>
				
					<linearGradient id="SVGID_13_" gradientUnits="userSpaceOnUse" x1="304.1866" y1="777.4586" x2="307.5032" y2="777.4586" gradientTransform="matrix(375.1194 0 0 -375.1194 -114106.3047 292269.125)">
					<stop  offset="0" style="stop-color:#191816"/>
					<stop  offset="3.293890e-02" style="stop-color:#1B1C1B"/>
					<stop  offset="0.1505" style="stop-color:#202528"/>
					<stop  offset="0.2829" style="stop-color:#222B32"/>
					<stop  offset="0.4366" style="stop-color:#212F38"/>
					<stop  offset="0.6311" style="stop-color:#21313C"/>
					<stop  offset="1" style="stop-color:#21313D"/>
				</linearGradient>
				<rect y="559.7" class="st13" width="1244.1" height="139.3"/>
			</g>
		</g>
	</g>
	<g>
		<g>
			<g>
				<defs>
					<polygon id="SVGID_14_" points="0,699.2 0,842 975.5,842 1073.3,770.6 975.5,699.2 					"/>
				</defs>
				<clipPath id="SVGID_15_">
					<use xlink:href="#SVGID_14_"  style="overflow:visible;"/>
				</clipPath>
				
					<linearGradient id="SVGID_16_" gradientUnits="userSpaceOnUse" x1="304.2474" y1="777.3034" x2="306.8909" y2="777.3034" gradientTransform="matrix(407 0 0 -407 -123831.3281 317133.0938)">
					<stop  offset="0" style="stop-color:#921838"/>
					<stop  offset="3.175431e-02" style="stop-color:#971839"/>
					<stop  offset="0.1555" style="stop-color:#A6183B"/>
					<stop  offset="0.3062" style="stop-color:#B1173D"/>
					<stop  offset="0.5101" style="stop-color:#B7173D"/>
					<stop  offset="1" style="stop-color:#B9173E"/>
				</linearGradient>
				<rect y="699.2" class="st14" width="1073.3" height="142.8"/>
			</g>
		</g>
	</g>
	<text transform="matrix(1 0 0 1 441.7212 609.2666)" class="st6 st7 st8">Моделът на облака е 40 пъти </text>
	<text transform="matrix(1 0 0 1 474.2212 629.1182)" class="st6 st7 st8">по-ефективен за МСП в </text>
	<text transform="matrix(1 0 0 1 450.9858 648.9712)" class="st6 st7 st8">сравнение с традиционния </text>
	<text transform="matrix(1 0 0 1 481.5679 668.8252)" class="st6 st7 st8">модел (според Forbes) </text>
	<text transform="matrix(1 0 0 1 788.5757 738.4512)" class="st6 st7 st8">по 545 услуги се  </text>
	<text transform="matrix(1 0 0 1 764.4741 759.896)" class="st6 st7 st8">използват средно от </text>
	<text transform="matrix(1 0 0 1 788.7759 781.3403)" class="st6 st7 st8">фирми в облака </text>
	<text transform="matrix(1 0 0 1 778.0347 802.7861)" class="st6 st7 st8">в световен мащаб </text>
	<g>
		<g>
			
				<linearGradient id="SVGID_17_" gradientUnits="userSpaceOnUse" x1="998.6357" y1="246.55" x2="1024.3357" y2="246.55" gradientTransform="matrix(1 0 0 1 0 279)">
				<stop  offset="0" style="stop-color:#921838"/>
				<stop  offset="3.175431e-02" style="stop-color:#971839"/>
				<stop  offset="0.1555" style="stop-color:#A6183B"/>
				<stop  offset="0.3062" style="stop-color:#B1173D"/>
				<stop  offset="0.5101" style="stop-color:#B7173D"/>
				<stop  offset="1" style="stop-color:#B9173E"/>
			</linearGradient>
			<path class="st15" d="M1023.8,545.5c0.1-1.8,0.6-8.3,0.6-10.1c0-9.6-2.7-23.5-5-32.3l-20.7,2.1c1.7,6.8,5.4,22.9,5.4,30.3
				c0,1.8-0.8,10.8-1,12.5L1023.8,545.5z"/>
			
				<linearGradient id="SVGID_18_" gradientUnits="userSpaceOnUse" x1="805.6" y1="268.55" x2="1024" y2="268.55" gradientTransform="matrix(1 0 0 1 0 279)">
				<stop  offset="0" style="stop-color:#921838"/>
				<stop  offset="3.175431e-02" style="stop-color:#971839"/>
				<stop  offset="0.1555" style="stop-color:#A6183B"/>
				<stop  offset="0.3062" style="stop-color:#B1173D"/>
				<stop  offset="0.5101" style="stop-color:#B7173D"/>
				<stop  offset="1" style="stop-color:#B9173E"/>
			</linearGradient>
			<path class="st16" d="M1003.7,542.5c-3.6,45.8-41.9,81.9-88.7,81.9c-49.2,0-89-39.9-89-89c0-49.2,39.9-89,89-89
				c41.2,0,75.8,28,85.9,66.1l19.3-6.5c-12.9-46-55.1-79.9-105.2-79.9c-60.4,0-109.4,49-109.4,109.4c0,55.4,41.3,101.1,94.7,108.3
				L915,669l14.6-25.3c51.1-6.9,91-49,94.4-101.1h-20.3V542.5z"/>
		</g>
		<g>
			<path class="st11" d="M893.1,517h-18.5l-1.9,12.5c1.1-0.1,2.2-0.3,4-0.3c3.7,0,7.5,0.8,10.5,2.6c3.8,2.2,6.9,6.4,6.9,12.5
				c0,9.5-7.5,16.6-18.1,16.6c-5.3,0-9.8-1.5-12.1-3l1.6-5c2,1.2,6,2.7,10.4,2.7c6.2,0,11.5-4,11.5-10.5c-0.1-6.3-4.3-10.8-14-10.8
				c-2.8,0-4.9,0.3-6.7,0.5l3.1-23.3H893L893.1,517L893.1,517z"/>
			<path class="st11" d="M922.8,560v-13.2h-22.6v-4.3l21.7-31h7.1v30.2h6.8v5.2H929V560H922.8z M922.8,541.7v-16.2
				c0-2.5,0.1-5.1,0.2-7.6h-0.2c-1.5,2.8-2.7,4.9-4,7.2l-11.9,16.5v0.1H922.8z"/>
			<path class="st11" d="M969.8,517h-18.5l-1.9,12.5c1.1-0.1,2.2-0.3,4-0.3c3.7,0,7.5,0.8,10.5,2.6c3.8,2.2,6.9,6.4,6.9,12.5
				c0,9.5-7.5,16.6-18.1,16.6c-5.3,0-9.8-1.5-12.1-3l1.6-5c2,1.2,6,2.7,10.4,2.7c6.2,0,11.5-4,11.5-10.5c-0.1-6.3-4.3-10.8-14-10.8
				c-2.8,0-4.9,0.3-6.7,0.5l3.1-23.3h23.2L969.8,517L969.8,517z"/>
		</g>
	</g>
</g>
</svg>
