<?xml version="1.0" encoding="utf-8"?>
<!-- Generator: Adobe Illustrator 19.2.1, SVG Export Plug-In . SVG Version: 6.00 Build 0)  -->
<svg version="1.1" id="Ebene_1" xmlns="http://www.w3.org/2000/svg" xmlns:xlink="http://www.w3.org/1999/xlink" x="0px" y="0px"
	 viewBox="0 0 320 200" style="enable-background:new 0 0 320 200;" xml:space="preserve">
<style type="text/css">
	.st0{fill:#1CA2C6;}
	.st1{fill:#FFFFFF;}
	.st2{font-family:'HelenProRegular', 'Arial', sans-serif;}
	.st3{font-size:28px;}
	.st4{fill:none;}
</style>
<rect x="0.2" class="st0" width="320" height="200"/>
<g>
	<path class="st1" d="M212.5,45.7c-1.4-1.7-3.2-2.9-5.5-3.5c-2.4-0.7-4.8-0.5-7,0.3c-1.4,0.6-2.9,1.8-4.5,3.7l-0.6,0.8l19.8,5.3
		v-0.8C214.6,49.3,213.9,47.4,212.5,45.7"/>
	<path class="st1" d="M156.2,65.2c-13.8,0-25,11.2-25,25s11.2,25,25,25s25-11.2,25-25S170,65.2,156.2,65.2 M156.2,102.5
		c-6.8,0-12.3-5.5-12.3-12.3s5.5-12.3,12.3-12.3s12.3,5.5,12.3,12.3S163,102.5,156.2,102.5"/>
	<path class="st1" d="M118.2,62c1.5-1.5,2.2-3.5,2.2-5.9s-0.7-4.3-2.2-5.8c-1.4-1.5-3.3-2.3-5.5-2.3s-4,0.8-5.5,2.3
		c-1.4,1.5-2.2,3.5-2.2,5.8c0,2.4,0.7,4.4,2.1,5.9s3.3,2.3,5.5,2.3C114.9,64.3,116.8,63.5,118.2,62"/>
	<path class="st1" d="M234.4,81.7h-2.5v24.6h3.4c3.4,0,5.8-0.4,7.4-1.2c1.5-0.8,2.8-2.1,3.7-3.9c1-1.8,1.5-4.1,1.5-6.8
		c0-4.1-1.2-7.3-3.5-9.6C242.3,82.7,239,81.7,234.4,81.7"/>
	<path class="st1" d="M235.4,67h-10.8c2.8-4.1,4.5-9.1,4.5-14.4c0-14.1-11.4-25.5-25.5-25.5c-7.3,0-13.9,3.1-18.5,8
		c-5.5-10.3-16.4-17.2-28.9-17.2c-14,0-25.9,8.8-30.7,21.1c-3.6-2.8-8.2-4.4-13.1-4.4C100.6,34.5,91,44.1,91,56c0,4,1.1,7.8,3,11
		h-9.1c-15.3,0-27.6,12.4-27.6,27.6c0,15.3,12.4,26,27.6,26H133c6.4,4.9,14.5,7.9,23.2,7.9s16.8-2.9,23.2-7.9h55.9
		c15.3,0,27.6-10.7,27.6-26C263,79.4,250.6,67,235.4,67 M156.2,25.6c14,0,25.5,11.4,25.5,25.5c0,4-0.9,7.7-2.5,11.1
		c-1.7-1.4-3.6-2.7-5.5-3.7c0.9-2.3,1.5-4.7,1.5-7.3c0-10.4-8.5-18.9-18.9-18.9s-18.9,8.5-18.9,18.9c0,2.6,0.5,5.1,1.5,7.3
		c-2,1.1-3.8,2.3-5.5,3.7c-1.6-3.3-2.5-7.1-2.5-11.1C130.8,37,142.2,25.6,156.2,25.6 M74,100.9c1.1,2,2.7,3.6,4.8,4.7
		c2.1,1.1,4.4,1.7,6.9,1.7c2.2,0,4.1-0.4,5.9-1.2c1.8-0.8,3.7-2.3,5.9-4.4l5,5.2c-2.9,2.8-5.6,4.8-8.2,5.8c-2.6,1.1-5.5,1.6-8.8,1.6
		c-6.1,0-11-1.9-14.9-5.8c-3.9-3.8-5.8-8.8-5.8-14.8c0-3.9,0.9-7.3,2.6-10.4c1.8-3,4.3-5.4,7.5-7.3c3.3-1.8,6.8-2.8,10.6-2.8
		c3.2,0,6.3,0.7,9.3,2c3,1.4,5.5,3.3,7.7,5.8l-5.2,4.9c-3.5-3.7-7.5-5.6-11.9-5.6c-3.7,0-6.9,1.3-9.4,3.8s-3.8,5.7-3.8,9.4
		C72.3,96.5,72.9,98.8,74,100.9 M99.1,56.2c0-4.1,1.5-7.5,4.5-10.3c2.6-2.4,5.7-3.6,9.1-3.6c2.5,0,4.8,0.6,7,1.9
		c2.2,1.2,3.9,2.9,5.1,5s1.8,4.4,1.8,6.9s-0.6,4.8-1.8,6.9c-1.2,2.1-2.9,3.8-5,5.1c-2.1,1.2-4.5,1.8-7,1.8c-3.7,0-7-1.3-9.6-4
		C100.4,63.3,99.1,60,99.1,56.2 M124.5,113.5h-18.2v-39h7.4v31.9h10.8C124.5,106.4,124.5,113.5,124.5,113.5z M156.2,121.8
		c-17.4,0-31.6-14.2-31.6-31.6s14.2-31.6,31.6-31.6s31.6,14.2,31.6,31.6S173.6,121.8,156.2,121.8 M218.7,97.7c0,3.9-0.2,6.6-0.7,8.2
		c-0.4,1.5-1.3,3-2.5,4.4s-2.7,2.5-4.3,3.1c-1.6,0.7-3.5,1-5.7,1c-2.8,0-5.3-0.6-7.4-1.9c-2.1-1.3-3.6-2.9-4.5-4.9
		c-0.9-1.9-1.4-5.2-1.4-9.9V74.5h7.4v25.2c0,2.2,0.2,3.7,0.6,4.6c0.4,0.9,1,1.6,1.9,2.2c0.9,0.5,1.9,0.8,3.2,0.8s2.4-0.3,3.4-0.9
		c0.9-0.6,1.6-1.4,2-2.3s0.5-2.7,0.5-5.3V74.5h7.4L218.7,97.7L218.7,97.7z M220.5,57.8l-0.3,1l-26.9-7.2l-0.1,0.7
		c-0.3,2.6,0.3,4.9,1.7,6.9s3.5,3.3,6.2,4.1c3.1,0.8,6.1,0.5,9-1l5.2,4.4c-2.2,1.7-4.5,2.7-6.9,3.2c-2.7,0.5-5.6,0.3-8.9-0.5
		c-5-1.3-8.7-4-11-8s-2.8-8.4-1.5-13.2c1.3-4.9,4-8.5,8-10.9c2.6-1.5,5.4-2.3,8.3-2.3c1.6,0,3.2,0.2,4.8,0.7c5,1.3,8.7,4.1,11,8.1
		C221.5,47.8,221.9,52.5,220.5,57.8 M253.9,102.8c-1,2.5-2.4,4.6-4.1,6.3c-1.8,1.7-3.7,2.8-5.7,3.4s-5.6,1-10.6,1h-8.9v-39h8.8
		c5.7,0,9.9,0.7,12.6,2.1c2.8,1.4,5,3.7,6.8,6.8c1.8,3.2,2.7,6.9,2.7,11.1C255.4,97.5,254.9,100.3,253.9,102.8"/>
</g>
<text transform="matrix(1 0 0 1 49.0279 172.6577)" class="st1 st2 st3">Oблачни решения</text>
<path class="st4" d="M37.5,1.5"/>
<path class="st4" d="M1073.4-21.3"/>
<path class="st4" d="M37.5,1.5"/>
<path class="st4" d="M1073.4-21.3"/>
<path class="st4" d="M37.5,1.5"/>
<path class="st4" d="M1073.4-21.3"/>
</svg>
