<?xml version="1.0" encoding="utf-8"?>
<!-- Generator: Adobe Illustrator 19.2.1, SVG Export Plug-In . SVG Version: 6.00 Build 0)  -->
<svg version="1.1" id="Ebene_1" xmlns="http://www.w3.org/2000/svg" xmlns:xlink="http://www.w3.org/1999/xlink" x="0px" y="0px"
	 viewBox="0 0 1080 202.6" style="enable-background:new 0 0 1080 202.6;" xml:space="preserve">
<style type="text/css">
	.st0{fill:#1CA2C6;}
	.st1{fill:#FFFFFF;}
	.st2{font-family:'HelenPro-Bold';}
	.st3{font-size:60px;}
	.st4{fill:none;}
</style>
<rect y="-0.4" class="st0" width="1080" height="203"/>
<path class="st1" d="M245.9,70.6c-1.9-2.3-4.4-3.9-7.4-4.7c-3.3-0.9-6.5-0.7-9.5,0.5c-1.9,0.8-3.9,2.4-6,5l-0.8,1l26.8,7.2v-1.1
	C248.7,75.5,247.7,72.9,245.9,70.6"/>
<path class="st1" d="M169.6,97.1c-18.7,0-33.8,15.1-33.8,33.8s15.1,33.8,33.8,33.8s33.8-15.1,33.8-33.8
	C203.4,112.2,188.3,97.1,169.6,97.1 M169.6,147.5c-9.2,0-16.6-7.4-16.6-16.6c0-9.2,7.4-16.6,16.6-16.6s16.6,7.4,16.6,16.6
	C186.2,140.1,178.8,147.5,169.6,147.5"/>
<path class="st1" d="M118.1,92.7c2-2.1,3-4.7,3-8c0-3.2-1-5.9-2.9-7.9s-4.4-3.1-7.5-3.1c-2.9,0-5.4,1-7.4,3.1c-2,2-2.9,4.7-2.9,7.9
	c0,3.3,1,5.9,2.9,8c1.9,2,4.4,3.1,7.4,3.1C113.6,95.8,116.1,94.8,118.1,92.7"/>
<path class="st1" d="M275.5,119.3h-3.4v33.3h4.7c4.6,0,7.9-0.5,10-1.6s3.8-2.8,5.1-5.3c1.3-2.5,2-5.6,2-9.2c0-5.6-1.6-10-4.7-13
	C286.3,120.7,281.7,119.3,275.5,119.3"/>
<path class="st1" d="M276.9,99.5h-14.6c3.8-5.6,6.1-12.3,6.1-19.6c0-19.1-15.4-34.5-34.5-34.5c-9.9,0-18.8,4.2-25.1,10.8
	c-7.5-13.9-22.2-23.4-39.2-23.4c-19,0-35.1,11.9-41.6,28.6c-4.9-3.8-11.1-6-17.7-6c-16.1,0-29.2,13.1-29.2,29.2
	c0,5.4,1.5,10.5,4.1,14.9H73c-20.7,0-37.4,16.8-37.4,37.4c0,20.7,16.8,35.2,37.5,35.2h65.2c8.7,6.7,19.6,10.6,31.5,10.6
	c11.8,0,22.7-4,31.5-10.6h75.8c20.7,0,37.4-14.5,37.4-35.2C314.3,116.2,297.5,99.5,276.9,99.5 M169.6,43.3c19,0,34.5,15.5,34.5,34.5
	c0,5.4-1.2,10.4-3.4,15c-2.3-1.9-4.9-3.6-7.5-5.1c1.3-3,2-6.4,2-9.9c0-14.1-11.5-25.6-25.6-25.6S144,63.7,144,77.8
	c0,3.5,0.7,6.9,2,9.9c-2.7,1.5-5.2,3.2-7.5,5.1c-2.2-4.5-3.4-9.6-3.4-15C135.1,58.8,150.6,43.3,169.6,43.3 M58.2,145.4
	c1.5,2.7,3.7,4.9,6.5,6.4c2.8,1.6,5.9,2.3,9.3,2.3c2.9,0,5.6-0.5,8-1.6s5.1-3.1,8-5.9l6.8,7.1c-3.9,3.8-7.6,6.4-11.1,7.9
	s-7.4,2.2-11.9,2.2c-8.2,0-14.9-2.6-20.2-7.8c-5.2-5.2-7.8-11.9-7.8-20c0-5.3,1.2-9.9,3.6-14c2.4-4.1,5.8-7.4,10.2-9.9
	s9.2-3.7,14.3-3.7c4.4,0,8.5,0.9,12.6,2.8c4,1.8,7.5,4.5,10.4,7.9l-7,6.7c-4.8-5.1-10.2-7.6-16.1-7.6c-5,0-9.3,1.7-12.8,5.2
	c-3.5,3.5-5.2,7.7-5.2,12.8C55.9,139.5,56.6,142.6,58.2,145.4 M92.1,84.8c0-5.5,2.1-10.2,6.1-13.9c3.6-3.2,7.7-4.8,12.3-4.8
	c3.3,0,6.5,0.8,9.5,2.5c2.9,1.7,5.3,4,6.9,6.8c1.6,2.9,2.5,6,2.5,9.3s-0.8,6.5-2.5,9.4s-4,5.2-6.8,6.8c-2.9,1.6-6.1,2.5-9.5,2.5
	c-5.1,0-9.5-1.8-13.1-5.4C93.9,94.4,92.1,90,92.1,84.8 M126.6,162.5h-24.7v-52.8H112v43.2h14.6C126.6,152.9,126.6,162.5,126.6,162.5
	z M169.6,173.7c-23.6,0-42.8-19.2-42.8-42.8s19.2-42.8,42.8-42.8s42.8,19.2,42.8,42.8C212.4,154.5,193.2,173.7,169.6,173.7
	 M254.3,141.1c0,5.3-0.3,9-0.9,11.1c-0.6,2.1-1.7,4-3.4,6c-1.7,1.9-3.6,3.3-5.8,4.3c-2.2,0.9-4.8,1.4-7.7,1.4c-3.8,0-7.2-0.9-10-2.6
	c-2.8-1.8-4.9-4-6.1-6.6c-1.2-2.6-1.8-7.1-1.8-13.4v-31.5h10.1v34.1c0,2.9,0.3,5,0.8,6.2s1.4,2.2,2.5,2.9c1.2,0.7,2.6,1.1,4.3,1.1
	c1.8,0,3.3-0.4,4.6-1.2s2.2-1.8,2.7-3.1s0.7-3.7,0.7-7.2v-32.9h10.1L254.3,141.1L254.3,141.1z M256.7,87l-0.4,1.3l-36.4-9.8l-0.1,1
	c-0.4,3.5,0.4,6.7,2.3,9.3c1.9,2.7,4.7,4.5,8.4,5.5c4.2,1.1,8.3,0.7,12.2-1.3l7.1,6c-2.9,2.3-6.1,3.7-9.3,4.4
	c-3.6,0.7-7.6,0.5-12-0.7c-6.8-1.8-11.8-5.5-14.9-10.9c-3.1-5.4-3.8-11.4-2.1-17.9c1.8-6.6,5.4-11.6,10.8-14.8
	c3.5-2.1,7.3-3.2,11.2-3.2c2.1,0,4.3,0.3,6.6,0.9c6.8,1.8,11.8,5.5,14.9,11C258,73.4,258.6,79.8,256.7,87 M301.9,148
	c-1.4,3.4-3.2,6.2-5.6,8.5s-5,3.8-7.7,4.7c-2.8,0.9-7.6,1.3-14.4,1.3h-12.1v-52.8H274c7.7,0,13.4,0.9,17.1,2.9
	c3.7,1.9,6.8,5,9.2,9.3c2.4,4.3,3.6,9.3,3.6,15C304,140.9,303.3,144.6,301.9,148"/>
<text transform="matrix(1 0 0 1 408.291 154.658)" class="st1 st2 st3">Oблачни решения</text>
<path class="st4" d="M0,10.7"/>
<path class="st4" d="M1080,10.7"/>
<path class="st4" d="M0,10.7"/>
<path class="st4" d="M1080,10.7"/>
<path class="st4" d="M0,10.7"/>
<path class="st4" d="M1080,10.7"/>
<line class="st4" x1="0" y1="10.7" x2="1080" y2="10.7"/>
<line class="st4" x1="0" y1="10.7" x2="1080" y2="10.7"/>
</svg>
