<?xml version="1.0" encoding="utf-8"?>
<!-- Generator: Adobe Illustrator 19.2.1, SVG Export Plug-In . SVG Version: 6.00 Build 0)  -->
<svg version="1.1" id="Ebene_1" xmlns="http://www.w3.org/2000/svg" xmlns:xlink="http://www.w3.org/1999/xlink" x="0px" y="0px"
	 viewBox="0 0 276 146.7" style="enable-background:new 0 0 276 146.7;" xml:space="preserve">
<style type="text/css">
	.st0{fill:#1CA2C6;}
	.st1{fill:#FFFFFF;}
	.st2{fill:none;}
</style>
<path class="st0" d="M230.4,69.5h-13.5c3.6-5.2,5.6-11.4,5.6-18.1c0-17.6-14.3-32-32-32c-9.2,0-17.4,3.9-23.2,10
	c-7-12.9-20.6-21.6-36.3-21.6c-17.6,0-32.6,11-38.5,26.5c-4.5-3.5-10.2-5.6-16.4-5.6c-14.9,0-27,12.1-27,27c0,5,1.4,9.7,3.8,13.8
	H41.6C22.5,69.5,6.9,85,6.9,104.2s15.5,32.6,34.7,32.6h60.3c8.1,6.2,18.2,9.9,29.2,9.9s21.1-3.7,29.2-9.9h70.2
	c19.1,0,34.7-13.5,34.7-32.6C265.1,85,249.6,69.5,230.4,69.5"/>
<path class="st1" d="M201.7,42.8c-1.7-2.1-4.1-3.6-6.9-4.3c-3.1-0.8-6-0.7-8.8,0.4c-1.8,0.7-3.6,2.2-5.6,4.6l-0.8,0.9l24.9,6.7V50
	C204.4,47.3,203.4,44.9,201.7,42.8"/>
<path class="st1" d="M131.1,67.3c-17.3,0-31.3,14-31.3,31.3s14,31.3,31.3,31.3s31.3-14,31.3-31.3C162.4,81.3,148.4,67.3,131.1,67.3
	 M131.1,114c-8.5,0-15.4-6.9-15.4-15.4s6.9-15.4,15.4-15.4s15.4,6.9,15.4,15.4S139.6,114,131.1,114"/>
<path class="st1" d="M83.4,63.3c1.8-1.9,2.7-4.4,2.7-7.4s-0.9-5.4-2.7-7.3c-1.8-1.9-4.1-2.8-6.9-2.8c-2.7,0-5,1-6.8,2.9S67,53,67,56
	s0.9,5.5,2.7,7.4c1.8,1.9,4.1,2.8,6.8,2.8C79.2,66.1,81.5,65.2,83.4,63.3"/>
<path class="st1" d="M229.1,87.9H226v30.9h4.3c4.3,0,7.3-0.5,9.3-1.5c1.9-1,3.5-2.6,4.7-4.9c1.2-2.3,1.8-5.1,1.8-8.5
	c0-5.2-1.5-9.2-4.4-12.1C239.1,89.2,234.9,87.9,229.1,87.9"/>
<path class="st1" d="M230.4,69.5h-13.5c3.6-5.2,5.6-11.4,5.6-18.1c0-17.6-14.3-32-32-32c-9.2,0-17.4,3.9-23.2,10
	c-7-12.9-20.6-21.6-36.3-21.6c-17.6,0-32.6,11-38.5,26.5c-4.5-3.5-10.2-5.6-16.4-5.6c-14.9,0-27,12.1-27,27c0,5,1.4,9.7,3.8,13.8
	H41.6C22.5,69.5,6.9,85,6.9,104.2s15.5,32.6,34.7,32.6h60.3c8.1,6.2,18.2,9.9,29.2,9.9s21.1-3.7,29.2-9.9h70.2
	c19.1,0,34.7-13.5,34.7-32.6C265.1,85,249.6,69.5,230.4,69.5 M131.1,17.5c17.6,0,32,14.3,32,32c0,5-1.1,9.7-3.2,13.9
	c-2.2-1.8-4.5-3.3-7-4.7c1.2-2.8,1.9-5.9,1.9-9.2c0-13.1-10.6-23.7-23.7-23.7c-13,0-23.7,10.6-23.7,23.7c0,3.3,0.7,6.4,1.9,9.2
	c-2.5,1.4-4.8,2.9-7,4.7c-2-4.2-3.2-8.9-3.2-13.9C99.1,31.9,113.4,17.5,131.1,17.5 M27.9,112c1.4,2.5,3.4,4.5,6,6
	c2.6,1.4,5.5,2.2,8.6,2.2c2.7,0,5.2-0.5,7.4-1.5c2.2-1,4.7-2.8,7.4-5.5l6.3,6.6c-3.6,3.5-7,6-10.2,7.3c-3.2,1.4-6.9,2-11,2
	c-7.6,0-13.8-2.4-18.7-7.2c-4.8-4.8-7.3-11-7.3-18.5c0-4.9,1.1-9.2,3.3-13s5.4-6.8,9.5-9.1c4.1-2.3,8.5-3.5,13.3-3.5
	c4,0,7.9,0.9,11.7,2.6c3.7,1.7,7,4.1,9.7,7.3l-6.5,6.2c-4.4-4.7-9.4-7-14.9-7c-4.7,0-8.6,1.6-11.8,4.8c-3.2,3.2-4.8,7.1-4.8,11.8
	C25.7,106.6,26.4,109.5,27.9,112 M59.3,55.9c0-5.1,1.9-9.5,5.7-12.9c3.3-3,7.1-4.5,11.4-4.5c3.1,0,6,0.8,8.8,2.3
	c2.7,1.5,4.9,3.7,6.4,6.3c1.5,2.7,2.3,5.6,2.3,8.6c0,3.1-0.8,6-2.3,8.7s-3.7,4.8-6.3,6.3c-2.7,1.5-5.6,2.3-8.8,2.3
	c-4.7,0-8.8-1.7-12.1-5C61,64.8,59.3,60.7,59.3,55.9 M91.2,127.8H68.3V78.9h9.3v40h13.6C91.2,118.9,91.2,127.8,91.2,127.8z
	 M131.1,138.2c-21.8,0-39.6-17.8-39.6-39.6S109.2,59,131.1,59c21.8,0,39.6,17.8,39.6,39.6C170.7,120.5,152.9,138.2,131.1,138.2
	 M209.5,108.1c0,4.9-0.3,8.3-0.8,10.2c-0.6,1.9-1.6,3.7-3.2,5.5c-1.6,1.8-3.4,3.1-5.4,3.9c-2,0.9-4.4,1.3-7.1,1.3
	c-3.5,0-6.6-0.8-9.3-2.4c-2.6-1.6-4.5-3.7-5.6-6.1c-1.1-2.4-1.7-6.6-1.7-12.4V78.9h9.3v31.6c0,2.7,0.2,4.7,0.7,5.8s1.3,2,2.4,2.7
	c1.1,0.7,2.4,1,4,1s3.1-0.4,4.2-1.1c1.2-0.8,2-1.7,2.5-2.9s0.7-3.4,0.7-6.7V78.8h9.3L209.5,108.1L209.5,108.1z M211.7,57.9l-0.4,1.2
	l-33.7-9l-0.1,0.9c-0.3,3.3,0.4,6.2,2.1,8.6c1.7,2.5,4.4,4.2,7.8,5.1c3.9,1,7.7,0.6,11.3-1.2l6.6,5.5c-2.7,2.1-5.6,3.4-8.6,4
	c-3.3,0.6-7.1,0.4-11.2-0.7c-6.3-1.7-10.9-5.1-13.8-10.1c-2.9-5-3.5-10.6-1.9-16.5c1.6-6.1,5-10.7,10-13.7c3.3-1.9,6.8-2.9,10.4-2.9
	c2,0,4,0.3,6.1,0.8c6.3,1.7,11,5.1,13.8,10.2C212.9,45.4,213.5,51.3,211.7,57.9 M253.6,114.5c-1.3,3.2-3,5.8-5.2,7.9
	c-2.2,2.1-4.6,3.5-7.2,4.3s-7,1.2-13.4,1.2h-11.2V79h11c7.1,0,12.4,0.9,15.8,2.6c3.5,1.8,6.3,4.6,8.5,8.6s3.4,8.6,3.4,13.9
	C255.5,107.8,254.9,111.3,253.6,114.5"/>
<path class="st2" d="M-62.5,5256.1"/>
</svg>
