<?xml version="1.0" encoding="utf-8"?>
<!-- Generator: Adobe Illustrator 19.2.1, SVG Export Plug-In . SVG Version: 6.00 Build 0)  -->
<svg version="1.1" id="Ebene_1" xmlns="http://www.w3.org/2000/svg" xmlns:xlink="http://www.w3.org/1999/xlink" x="0px" y="0px"
	 viewBox="0 0 1000 898.6" style="enable-background:new 0 0 1000 898.6;" xml:space="preserve">
<style type="text/css">
	.st0{fill:#E72A4B;}
	.st1{fill:#FFFFFF;}
	.st2{font-family:'HelenPro-Bold';}
	.st3{font-size:39.1783px;}
	.st4{font-family:'HelenPro-Regular';}
	.st5{font-size:24.1984px;}
	.st6{fill:#008CB0;}
	.st7{font-size:20.7415px;}
	.st8{font-size:46.0921px;}
	.st9{fill:#AE1838;}
	.st10{font-size:41.4829px;}
	.st11{fill:#F9FAFB;}
	.st12{font-size:35.9604px;}
	.st13{font-size:21.405px;}
	.st14{fill:#007697;}
	.st15{font-size:32.3963px;}
	.st16{font-size:14.7256px;}
	.st17{font-size:30.8232px;}
	.st18{font-size:22.2506px;}
	.st19{font-size:34.5691px;}
	.st20{font-size:20.5488px;}
	.st21{font-size:17.124px;}
	.st22{fill:#13506C;}
	.st23{fill:none;stroke:#FFFFFF;stroke-width:15;stroke-miterlimit:10;}
</style>
<a xlink:href="https://onecloud.bg/bg/klienti"  xlink:show="new">
	<g id="Gruppe_9">
		<path class="st0" d="M70.2,180.8c-23.8,85.8-23.8,178.7,0,264.4c65.3-20.1,130.5-40.2,195.8-60.3c-12.9-46.6-12.9-97.1,0-143.8
			C200.7,221,135.4,200.9,70.2,180.8"/>
		<text transform="matrix(1 0 0 1 87.8913 271.4658)" class="st1 st2 st3">1000 + </text>
		<text transform="matrix(1 0 0 1 98.9338 300.5048)" class="st1 st4 st5">системи </text>
		<text transform="matrix(1 0 0 1 69.9924 329.542)" class="st1 st4 st5">мигрирани в </text>
		<text transform="matrix(1 0 0 1 106.9416 358.58)" class="st1 st4 st5">облака </text>
	</g>
</a>
<a xlink:href="https://onecloud.bg/bg/klienti"  xlink:show="new">
	<g id="Gruppe_11">
		<path class="st6" d="M499.2,4c-82.4,0-148.3,24.7-197.7,64.2c43.5,53.9,87,107.7,130.5,161.6c16.8-13.5,39.2-21.8,67.2-21.8V4
			L499.2,4z"/>
		<path class="st6" d="M499.2,4c82.4,0,148.3,24.7,197.7,64.2c-43.5,53.9-87,107.7-130.5,161.6c-16.8-13.5-39.2-21.8-67.2-21.8V4
			L499.2,4z"/>
		<text transform="matrix(1 0 0 1 400.8366 59.792)" class="st1 st2 st5">18/20</text>
		<text transform="matrix(1 0 0 1 461.2443 59.792)" class="st1 st4 st7"> най - успешни </text>
		<text transform="matrix(1 0 0 1 374.3776 84.6806)" class="st1 st4 st7">компании са ни клиенти</text>
	</g>
</a>
<a xlink:href="https://onecloud.bg/bg/za-nas"  xlink:show="new">
	<g id="Gruppe_2">
		<path class="st0" d="M928.2,180.8c23.8,85.8,23.8,178.7,0,264.4c-65.3-20.1-130.5-40.2-195.8-60.3c12.9-46.6,12.9-97.1,0-143.8
			C797.7,221,863,200.9,928.2,180.8"/>
		<text transform="matrix(1 0 0 1 833.2897 318.6689)" class="st1 st4 st5"> ИТ </text>
		<text transform="matrix(1 0 0 1 793.322 289.6308)" class="st1 st2 st8">300 +</text>
		<text transform="matrix(1 0 0 1 771.2185 347.708)" class="st1 st4 st5">сертфиката в </text>
		<text transform="matrix(1 0 0 1 809.8151 376.7461)" class="st1 st4 st5">облака </text>
	</g>
</a>
<a xlink:href="https://www.stone.bg/"  xlink:show="new">
	<g id="Gruppe_3">
		<path class="st9" d="M994.4,465.7c-27.5,99-82.5,189.7-164.9,255.7c-43.5-53.8-87-107.7-130.6-161.5
			c49.8-39.9,83.1-94.8,99.7-154.6C863.8,425.5,929.1,445.6,994.4,465.7"/>
		<path class="st9" d="M840.7,418.4c0,484.6-108.1,200.5-273.4,184.3c165.3-16.2,171.9-106.4,185.4-211.5
			C782,400.3,811.4,409.3,840.7,418.4"/>
		<text transform="matrix(1 0 0 1 800.3679 500.2285)" class="st1 st2 st10">1000+ </text>
		<text transform="matrix(1 0 0 1 782.4597 525.1172)" class="st1 st4 st7">човекогодини </text>
		<text transform="matrix(1 0 0 1 809.7351 550.0068)" class="st1 st4 st7">опит в ИТ </text>
	</g>
</a>
<a xlink:href="https://onecloud.bg/bg/klienti"  xlink:show="new">
	<g id="Gruppe_8">
		<path class="st9" d="M4,465.7c27.5,99,82.5,189.7,164.9,255.7c43.5-53.8,87.1-107.7,130.6-161.5c-49.9-39.9-83.1-94.8-99.7-154.6
			C134.6,425.5,69.3,445.6,4,465.7"/>
		<path class="st9" d="M157.7,418.4c-18.6,315.2,63.4,190,228.8,173.8c-25-93.6-127.3-95.9-140.8-200.9
			C216.4,400.3,187,409.3,157.7,418.4"/>
		<text transform="matrix(1 0 0 1 35.2868 508.288)" class="st11 st2 st12">100 000 000 +</text>
		<text transform="matrix(1 0 0 1 86.8723 533.9746)" class="st11 st4 st13"> транзакции </text>
	</g>
</a>
<a xlink:href="https://onecloud.bg/bg/klienti"  xlink:show="new">
	<g id="Gruppe_7">
		<path class="st14" d="M325.6,808.6c-101.2-22.4-183.8-75.5-242.5-145.9c77.3-56.6,154.7-113.2,232.1-169.8
			c27,32.4,65,56.8,111.6,67.1C393.1,642.9,359.4,725.7,325.6,808.6"/>
		<text transform="matrix(1 0 0 1 189.069 637.6006)" class="st1 st2 st10">150 + </text>
		<text transform="matrix(1 0 0 1 179.8316 662.4912)" class="st1 st4 st7">тестови ДР </text>
		<text transform="matrix(1 0 0 1 155.5148 687.3789)" class="st1 st4 st7">превключвания</text>
	</g>
</a>
<a xlink:href="https://onecloud.bg/bg/partniori"  xlink:show="new">
	<g id="Gruppe_6">
		<path class="st6" d="M509.4,865.7c-99.3,10-181.7-10.9-245.9-51.1c46.1-68.2,92.2-136.4,138.3-204.6
			c21.8,13.7,49.9,20.8,83.6,17.4L509.4,865.7z"/>
		<text transform="matrix(1 0 0 1 361.4558 734.5204)" class="st1 st2 st10">50 + </text>
		<text transform="matrix(1 0 0 1 337.7839 759.4111)" class="st1 st4 st7">партньора в </text>
		<text transform="matrix(1 0 0 1 355.9519 784.2988)" class="st1 st4 st7">страната </text>
	</g>
</a>
<a xlink:href="https://onecloud.bg/bg/klienti"  xlink:show="new">
	<g id="Gruppe_1">
		<path class="st14" d="M741.1,13.8C801.5,62.1,841.8,128.6,862,201.1c-65.3,20.1-130.5,40.3-195.8,60.4
			c-9.3-33.4-27.8-64-55.6-86.2C654,121.4,697.5,67.6,741.1,13.8"/>
		<text transform="matrix(1 0 0 1 684.9606 138.9873)" class="st1 st2 st15">10 000 + </text>
		<text transform="matrix(1 0 0 1 708.3356 163.2899)" class="st1 st4 st16">потребителя </text>
		<text transform="matrix(1 0 0 1 723.7356 180.99)" class="st1 st4 st16">в облака </text>
	</g>
</a>
<a xlink:href="https://onecloud.bg/bg/klienti"  xlink:show="new">
	<g id="Gruppe_4">
		<path class="st6" d="M628.6,808.6c112.6-14.9,207.4-64.9,277.6-135.9C826.5,604,746.8,535.3,667.1,466.6
			c-32.3,32.7-76,55.7-127.8,62.5C569.1,622.3,598.9,715.4,628.6,808.6"/>
		<text transform="matrix(1 0 0 1 642.4646 627.1445)" class="st1 st2 st17">100 + </text>
		<text transform="matrix(1 0 0 1 727.4675 625.4433)" class="st1 st4 st18">часа </text>
		<text transform="matrix(1 0 0 1 727.4675 652.1445)" class="st1 st4 st18">годишно </text>
		<text transform="matrix(1 0 0 1 727.4675 678.8447)" class="st1 st4 st18">обучения </text>
		<text transform="matrix(1 0 0 1 727.4675 705.5459)" class="st1 st4 st18">на клиенти </text>
	</g>
</a>
<a xlink:href="https://onecloud.bg/bg/klienti"  xlink:show="new">
	<g id="Gruppe_5">
		<path class="st14" d="M480.9,895c98.6,2.8,178.6-32.6,239.5-91.2c-49.7-83.7-99.5-167.3-149.2-251c-20.7,20-47.9,32-81.4,31
			L480.9,895z"/>
		<text transform="matrix(1 0 0 1 540.6794 734.5204)" class="st1 st2 st19">100% </text>
		<text transform="matrix(1 0 0 1 520.9904 759.4091)" class="st1 st4 st7">успеваемост</text>
		<text transform="matrix(1 0 0 1 508.7521 784.2998)" class="st1 st4 st7"> при миграции </text>
	</g>
</a>
<a>
	<g id="Gruppe_10">
		<path class="st14" d="M257.3,13.8c-60.4,48.3-100.7,114.8-120.9,187.3c65.3,20.1,130.5,40.3,195.8,60.4
			c9.3-33.4,27.8-64,55.7-86.2C344.4,121.4,300.8,67.6,257.3,13.8"/>
		<text transform="matrix(1 0 0 1 179.4441 139.9912)" class="st1 st2 st20">21 600 000 kWh </text>
		<text transform="matrix(1 0 0 1 197.2653 168.0957)" class="st1 st4 st21">спестена </text>
		<text transform="matrix(1 0 0 1 169.2653 188.5957)" class="st1 st4 st21">електроенергия</text>
	</g>
</a>
<path class="st22" d="M758,372.4c0,142.9-115.9,258.8-258.8,258.8S240.4,515.3,240.4,372.4s115.9-258.8,258.8-258.8
	S758,229.5,758,372.4"/>
<path class="st1" d="M578.1,320c-2.2-2.6-5.1-4.5-8.6-5.4c-3.8-1-7.5-0.8-11,0.5c-2.2,0.9-4.5,2.8-7,5.7l-1,1.2l30.9,8.3V329
	C581.4,325.6,580.3,322.6,578.1,320"/>
<path class="st1" d="M490.2,351.6c-21.5,0-39,17.5-39,39s17.5,39,39,39s39-17.5,39-39S511.8,351.6,490.2,351.6 M490.2,409.8
	c-10.6,0-19.2-8.6-19.2-19.2s8.6-19.2,19.2-19.2s19.2,8.6,19.2,19.2S500.8,409.8,490.2,409.8"/>
<path class="st1" d="M430.9,346.6c2.3-2.4,3.4-5.5,3.4-9.2s-1.1-6.8-3.4-9.1c-2.2-2.3-5.1-3.5-8.6-3.5c-3.4,0-6.3,1.2-8.5,3.6
	c-2.3,2.4-3.4,5.4-3.4,9.1c0,3.8,1.1,6.9,3.4,9.2c2.2,2.4,5.1,3.5,8.5,3.5S428.6,349,430.9,346.6"/>
<path class="st1" d="M612.3,377.3h-3.9v38.4h5.4c5.3,0,9.1-0.6,11.5-1.8c2.4-1.2,4.3-3.3,5.9-6.1c1.5-2.9,2.3-6.4,2.3-10.6
	c0-6.5-1.8-11.5-5.4-15C624.7,378.9,619.5,377.3,612.3,377.3"/>
<path class="st1" d="M613.8,354.4H597c4.4-6.4,7-14.2,7-22.5c0-22-17.8-39.8-39.8-39.8c-11.4,0-21.7,4.8-28.9,12.5
	c-8.7-16-25.6-26.9-45.1-26.9c-21.9,0-40.5,13.7-47.9,32.9c-5.7-4.3-12.7-6.9-20.4-6.9c-18.6,0-33.6,15-33.6,33.6
	c0,6.3,1.7,12.1,4.7,17.2h-14.2c-23.8,0-43.1,19.3-43.1,43.2c0,23.8,19.3,40.6,43.2,40.6H454c10.1,7.7,22.6,12.3,36.3,12.3
	c13.6,0,26.2-4.6,36.3-12.3h87.3c23.8,0,43.1-16.8,43.1-40.6C657,373.7,637.7,354.4,613.8,354.4 M490.2,289.7
	c21.9,0,39.8,17.8,39.8,39.8c0,6.2-1.4,12-3.9,17.3c-2.7-2.2-5.6-4.2-8.7-5.8c1.5-3.5,2.3-7.4,2.3-11.4c0-16.2-13.2-29.4-29.5-29.4
	c-16.2,0-29.4,13.2-29.4,29.4c0,4,0.8,7.9,2.3,11.4c-3.1,1.7-6,3.6-8.7,5.8c-2.5-5.2-3.9-11.1-3.9-17.3
	C450.5,307.5,468.3,289.7,490.2,289.7 M361.8,407.2c1.8,3.1,4.3,5.6,7.5,7.4s6.8,2.7,10.7,2.7c3.4,0,6.4-0.6,9.2-1.9
	c2.8-1.3,5.8-3.5,9.2-6.9l7.9,8.2c-4.5,4.4-8.7,7.4-12.7,9.1s-8.6,2.5-13.7,2.5c-9.5,0-17.2-3-23.2-9s-9-13.7-9-23.1
	c0-6.1,1.4-11.5,4.1-16.2s6.7-8.5,11.8-11.4c5.1-2.9,10.6-4.3,16.5-4.3c5,0,9.8,1.1,14.5,3.2s8.7,5.1,12,9l-8.1,7.7
	c-5.5-5.8-11.7-8.7-18.6-8.7c-5.8,0-10.7,2-14.7,6s-6,8.9-6,14.7C359.2,400.5,360.1,404.1,361.8,407.2 M400.9,337.5
	c0-6.4,2.4-11.8,7-16c4.1-3.7,8.9-5.6,14.2-5.6c3.8,0,7.5,1,10.9,2.9s6.1,4.6,8,7.9s2.9,6.9,2.9,10.7c0,3.9-1,7.5-2.9,10.9
	c-1.9,3.3-4.6,6-7.8,7.9c-3.3,1.9-7,2.8-11,2.8c-5.8,0-10.9-2.1-15-6.3C403,348.5,400.9,343.4,400.9,337.5 M440.7,426.9h-28.5v-60.8
	h11.6v49.8h16.9V426.9z M490.2,439.9c-27.2,0-49.3-22.1-49.3-49.3c0-27.2,22.1-49.3,49.3-49.3c27.2,0,49.3,22.1,49.3,49.3
	S517.4,439.9,490.2,439.9 M587.9,402.4c0,6.1-0.3,10.4-1,12.7c-0.7,2.4-2,4.7-4,6.9c-1.9,2.2-4.2,3.8-6.7,4.9s-5.5,1.6-8.9,1.6
	c-4.4,0-8.3-1-11.5-3c-3.3-2-5.6-4.6-7-7.6s-2.1-8.2-2.1-15.4v-36.3h11.6v39.3c0,3.4,0.3,5.8,0.9,7.2c0.6,1.4,1.6,2.5,2.9,3.4
	c1.4,0.8,3,1.3,4.9,1.3c2,0,3.8-0.5,5.3-1.4s2.5-2.1,3.1-3.6c0.6-1.4,0.8-4.2,0.8-8.3v-37.9h11.6L587.9,402.4L587.9,402.4z
	 M590.6,340l-0.4,1.5l-41.9-11.2l-0.1,1.1c-0.4,4.1,0.5,7.7,2.7,10.7c2.2,3.1,5.4,5.2,9.7,6.3c4.9,1.3,9.6,0.8,14-1.5l8.2,6.9
	c-3.4,2.6-7,4.3-10.8,5c-4.1,0.8-8.8,0.5-13.9-0.8c-7.8-2.1-13.6-6.3-17.2-12.6c-3.6-6.2-4.4-13.2-2.4-20.6
	c2-7.6,6.2-13.3,12.5-17.1c4.1-2.4,8.4-3.6,13-3.6c2.4,0,5,0.4,7.6,1c7.9,2.1,13.6,6.4,17.2,12.7C592.1,324.3,592.8,331.7,590.6,340
	 M642.7,410.3c-1.6,3.9-3.7,7.2-6.4,9.8c-2.7,2.6-5.7,4.4-8.9,5.4s-8.7,1.5-16.6,1.5h-14v-60.8h13.7c8.8,0,15.4,1.1,19.7,3.3
	c4.3,2.2,7.8,5.8,10.6,10.7c2.8,4.9,4.2,10.7,4.2,17.3C645.1,402.1,644.3,406.4,642.7,410.3"/>
<path class="st23" d="M758,372.4c0,142.9-115.9,258.8-258.8,258.8S240.4,515.3,240.4,372.4s115.9-258.8,258.8-258.8
	S758,229.5,758,372.4z"/>
</svg>
