<?xml version="1.0" encoding="utf-8"?>
<!-- Generator: Adobe Illustrator 19.2.1, SVG Export Plug-In . SVG Version: 6.00 Build 0)  -->
<svg version="1.1" id="Ebene_1" xmlns="http://www.w3.org/2000/svg" xmlns:xlink="http://www.w3.org/1999/xlink" x="0px" y="0px"
	 viewBox="0 0 1000 898.6" style="enable-background:new 0 0 1000 898.6;" xml:space="preserve">
<style type="text/css">
	.st0{fill:#AE1838;}
	.st1{fill:#008CB0;}
	.st2{fill:#007697;}
	.st3{fill:#E72A4B;}
	.st4{fill:#13506C;}
	.st5{fill:#FFFFFF;}
	.st6{fill:none;stroke:#FFFFFF;stroke-width:15;stroke-miterlimit:10;}
	.st7{font-family:'OpenSans-Extrabold';}
	.st8{font-size:39.1783px;}
	.st9{font-family:'OpenSans-Semibold';}
	.st10{font-size:24.1984px;}
	.st11{font-size:34.5691px;}
	.st12{font-size:20.7415px;}
	.st13{font-size:41.4829px;}
	.st14{font-size:46.0921px;}
	.st15{font-size:32.3963px;}
	.st16{font-size:14.7256px;}
	.st17{fill:#F9FAFB;}
	.st18{font-size:35.9604px;}
	.st19{font-size:21.405px;}
	.st20{font-family:'OpenSans-Bold';}
	.st21{font-size:30.8232px;}
	.st22{font-size:22.2506px;}
	.st23{font-size:20.5488px;}
	.st24{font-family:'OpenSans';}
	.st25{font-size:17.124px;}
</style>
<path class="st0" d="M4,465.7c27.5,99,82.5,189.7,164.9,255.7c43.5-53.8,87.1-107.7,130.6-161.5c-49.9-39.9-83.1-94.8-99.7-154.6
	C134.6,425.5,69.3,445.6,4,465.7"/>
<path class="st0" d="M157.7,418.4C139.1,733.6,333.9,639.2,499.2,623c-165.3-16.2-240-126.7-253.5-231.7
	C216.4,400.3,187,409.3,157.7,418.4"/>
<path class="st0" d="M994.4,465.7c-27.5,99-82.5,189.7-164.9,255.7c-43.5-53.8-87-107.7-130.6-161.5c49.8-39.9,83.1-94.8,99.7-154.6
	C863.8,425.5,929.1,445.6,994.4,465.7"/>
<path class="st0" d="M840.7,418.4c0,484.6-176.2,248.4-341.5,232.2c165.3-16.2,240-154.3,253.5-259.4
	C782,400.3,811.4,409.3,840.7,418.4"/>
<g>
	<path class="st1" d="M628.6,808.6c112.6-14.9,207.4-64.9,277.6-135.9C826.5,604,746.8,535.3,667.1,466.6
		c-32.3,32.7-76,55.7-127.8,62.5C569.1,622.3,598.9,715.4,628.6,808.6"/>
	<path class="st2" d="M480.9,895c98.6,2.8,178.6-32.6,239.5-91.2c-49.7-83.7-99.5-167.3-149.2-251c-20.7,20-47.9,32-81.4,31
		L480.9,895z"/>
	<path class="st2" d="M325.6,808.6c-101.2-22.4-183.8-75.5-242.5-145.9c77.3-56.6,154.7-113.2,232.1-169.8
		c27,32.4,65,56.8,111.6,67.1C393.1,642.9,359.4,725.7,325.6,808.6"/>
	<path class="st1" d="M509.4,865.7c-99.3,10-181.7-10.9-245.9-51.1c46.1-68.2,92.2-136.4,138.3-204.6c21.8,13.7,49.9,20.8,83.6,17.4
		L509.4,865.7z"/>
</g>
<path class="st2" d="M257.3,13.8c-60.4,48.3-100.7,114.8-120.9,187.3c65.3,20.1,130.5,40.3,195.8,60.4c9.3-33.4,27.8-64,55.7-86.2
	C344.4,121.4,300.8,67.6,257.3,13.8"/>
<path class="st2" d="M359.8,140.5c-59.9,68.8-58.7,162.8-25.7,223.5c-3.7-71.5,34.2-131.5,84.4-150.8
	C398.9,188.9,379.3,164.7,359.8,140.5"/>
<path class="st3" d="M70.2,180.8c-23.8,85.8-23.8,178.7,0,264.4c65.3-20.1,130.5-40.2,195.8-60.3c-12.9-46.6-12.9-97.1,0-143.8
	C200.7,221,135.4,200.9,70.2,180.8"/>
<path class="st3" d="M223.8,228.2C207.9,343.8,258,455.3,344.9,504c-67.3-74.7-68.6-179.1-33.1-248.7
	C282.5,246.3,253.1,237.2,223.8,228.2"/>
<path class="st1" d="M499.2,4c-82.4,0-148.3,24.7-197.7,64.2c43.5,53.9,87,107.7,130.5,161.6c16.8-13.5,39.2-21.8,67.2-21.8L499.2,4
	L499.2,4z"/>
<path class="st1" d="M499.2,164.1c-79.5,16.2-102.7,75.2-99,118.5c25.7-36,68.5-43,99-26.8V164.1z"/>
<path class="st2" d="M741.1,13.8C801.5,62.1,841.8,128.6,862,201.1c-65.3,20.1-130.5,40.3-195.8,60.4c-9.3-33.4-27.8-64-55.6-86.2
	C654,121.4,697.5,67.6,741.1,13.8"/>
<path class="st2" d="M638.6,140.5c59.9,68.8,58.7,162.8,25.7,223.5c3.7-71.5-34.2-131.5-84.4-150.8
	C599.5,188.9,619.1,164.7,638.6,140.5"/>
<path class="st3" d="M928.2,180.8c23.8,85.8,23.8,178.7,0,264.4c-65.3-20.1-130.5-40.2-195.8-60.3c12.9-46.6,12.9-97.1,0-143.8
	C797.7,221,863,200.9,928.2,180.8"/>
<path class="st3" d="M774.6,228.2c15.9,115.6-34.2,227.1-121.1,275.8c67.3-74.7,68.6-179.1,33.1-248.7
	C715.9,246.3,745.2,237.2,774.6,228.2"/>
<path class="st1" d="M499.2,4c82.4,0,148.3,24.7,197.7,64.2c-43.5,53.9-87,107.7-130.5,161.6c-16.8-13.5-39.2-21.8-67.2-21.8
	L499.2,4L499.2,4z"/>
<path class="st1" d="M499.2,164.1c79.5,16.2,102.7,75.2,99,118.5c-25.7-36-68.5-43-99-26.8L499.2,164.1L499.2,164.1z"/>
<path class="st4" d="M758,372.4c0,142.9-115.9,258.8-258.8,258.8S240.4,515.3,240.4,372.4c0-142.9,115.9-258.8,258.8-258.8
	S758,229.5,758,372.4"/>
<path class="st5" d="M578.1,320c-2.2-2.6-5.1-4.5-8.6-5.4c-3.8-1-7.5-0.8-11,0.5c-2.2,0.9-4.5,2.8-7,5.7l-1,1.2l30.9,8.3V329
	C581.4,325.6,580.3,322.6,578.1,320"/>
<path class="st5" d="M490.2,351.6c-21.5,0-39,17.5-39,39s17.5,39,39,39s39-17.5,39-39S511.8,351.6,490.2,351.6 M490.2,409.8
	c-10.6,0-19.2-8.6-19.2-19.2s8.6-19.2,19.2-19.2s19.2,8.6,19.2,19.2S500.8,409.8,490.2,409.8"/>
<path class="st5" d="M430.9,346.6c2.3-2.4,3.4-5.5,3.4-9.2s-1.1-6.8-3.4-9.1c-2.2-2.3-5.1-3.5-8.6-3.5c-3.4,0-6.3,1.2-8.5,3.6
	c-2.3,2.4-3.4,5.4-3.4,9.1c0,3.8,1.1,6.9,3.4,9.2c2.2,2.4,5.1,3.5,8.5,3.5S428.6,349,430.9,346.6"/>
<path class="st5" d="M612.3,377.3h-3.9v38.4h5.4c5.3,0,9.1-0.6,11.5-1.8c2.4-1.2,4.3-3.3,5.9-6.1c1.5-2.9,2.3-6.4,2.3-10.6
	c0-6.5-1.8-11.5-5.4-15C624.7,378.9,619.5,377.3,612.3,377.3"/>
<path class="st5" d="M613.8,354.4H597c4.4-6.4,7-14.2,7-22.5c0-22-17.8-39.8-39.8-39.8c-11.4,0-21.7,4.8-28.9,12.5
	c-8.7-16-25.6-26.9-45.1-26.9c-21.9,0-40.5,13.7-47.9,32.9c-5.7-4.3-12.7-6.9-20.4-6.9c-18.6,0-33.6,15-33.6,33.6
	c0,6.3,1.7,12.1,4.7,17.2h-14.2c-23.8,0-43.1,19.3-43.1,43.2c0,23.8,19.3,40.6,43.2,40.6H454c10.1,7.7,22.6,12.3,36.3,12.3
	c13.6,0,26.2-4.6,36.3-12.3h87.3c23.8,0,43.1-16.8,43.1-40.6C657,373.7,637.7,354.4,613.8,354.4 M490.2,289.7
	c21.9,0,39.8,17.8,39.8,39.8c0,6.2-1.4,12-3.9,17.3c-2.7-2.2-5.6-4.2-8.7-5.8c1.5-3.5,2.3-7.4,2.3-11.4c0-16.2-13.2-29.4-29.5-29.4
	c-16.2,0-29.4,13.2-29.4,29.4c0,4,0.8,7.9,2.3,11.4c-3.1,1.7-6,3.6-8.7,5.8c-2.5-5.2-3.9-11.1-3.9-17.3
	C450.5,307.5,468.3,289.7,490.2,289.7 M361.8,407.2c1.8,3.1,4.3,5.6,7.5,7.4s6.8,2.7,10.7,2.7c3.4,0,6.4-0.6,9.2-1.9
	c2.8-1.3,5.8-3.5,9.2-6.9l7.9,8.2c-4.5,4.4-8.7,7.4-12.7,9.1s-8.6,2.5-13.7,2.5c-9.5,0-17.2-3-23.2-9s-9-13.7-9-23.1
	c0-6.1,1.4-11.5,4.1-16.2s6.7-8.5,11.8-11.4c5.1-2.9,10.6-4.3,16.5-4.3c5,0,9.8,1.1,14.5,3.2s8.7,5.1,12,9l-8.1,7.7
	c-5.5-5.8-11.7-8.7-18.6-8.7c-5.8,0-10.7,2-14.7,6s-6,8.9-6,14.7C359.2,400.5,360.1,404.1,361.8,407.2 M400.9,337.5
	c0-6.4,2.4-11.8,7-16c4.1-3.7,8.9-5.6,14.2-5.6c3.8,0,7.5,1,10.9,2.9s6.1,4.6,8,7.9s2.9,6.9,2.9,10.7c0,3.9-1,7.5-2.9,10.9
	c-1.9,3.3-4.6,6-7.8,7.9c-3.3,1.9-7,2.8-11,2.8c-5.8,0-10.9-2.1-15-6.3C403,348.5,400.9,343.4,400.9,337.5 M440.7,426.9h-28.5v-60.8
	h11.6v49.8h16.9V426.9z M490.2,439.9c-27.2,0-49.3-22.1-49.3-49.3c0-27.2,22.1-49.3,49.3-49.3c27.2,0,49.3,22.1,49.3,49.3
	C539.5,417.8,517.4,439.9,490.2,439.9 M587.9,402.4c0,6.1-0.3,10.4-1,12.7c-0.7,2.4-2,4.7-4,6.9c-1.9,2.2-4.2,3.8-6.7,4.9
	s-5.5,1.6-8.9,1.6c-4.4,0-8.3-1-11.5-3c-3.3-2-5.6-4.6-7-7.6s-2.1-8.2-2.1-15.4v-36.3h11.6v39.3c0,3.4,0.3,5.8,0.9,7.2
	c0.6,1.4,1.6,2.5,2.9,3.4c1.4,0.8,3,1.3,4.9,1.3c2,0,3.8-0.5,5.3-1.4s2.5-2.1,3.1-3.6c0.6-1.4,0.8-4.2,0.8-8.3v-37.9h11.6
	L587.9,402.4L587.9,402.4z M590.6,340l-0.4,1.5l-41.9-11.2l-0.1,1.1c-0.4,4.1,0.5,7.7,2.7,10.7c2.2,3.1,5.4,5.2,9.7,6.3
	c4.9,1.3,9.6,0.8,14-1.5l8.2,6.9c-3.4,2.6-7,4.3-10.8,5c-4.1,0.8-8.8,0.5-13.9-0.8c-7.8-2.1-13.6-6.3-17.2-12.6
	c-3.6-6.2-4.4-13.2-2.4-20.6c2-7.6,6.2-13.3,12.5-17.1c4.1-2.4,8.4-3.6,13-3.6c2.4,0,5,0.4,7.6,1c7.9,2.1,13.6,6.4,17.2,12.7
	C592.1,324.3,592.8,331.7,590.6,340 M642.7,410.3c-1.6,3.9-3.7,7.2-6.4,9.8c-2.7,2.6-5.7,4.4-8.9,5.4s-8.7,1.5-16.6,1.5h-14v-60.8
	h13.7c8.8,0,15.4,1.1,19.7,3.3c4.3,2.2,7.8,5.8,10.6,10.7c2.8,4.9,4.2,10.7,4.2,17.3C645.1,402.1,644.3,406.4,642.7,410.3"/>
<path class="st5" d="M201.8,631.9h-7.9v-15.2c0-1.9,0-3.5,0.1-5.1c-0.5,0.6-1.1,1.2-1.8,1.8l-3.3,2.7l-4-5l9.9-8h7V631.9z"/>
<path class="st5" d="M219.9,613c1.7,0,3.1,0.4,4.5,1.2c1.3,0.8,2.4,1.9,3.1,3.3c0.7,1.4,1.1,3,1.1,4.9c0,3.2-1,5.7-2.9,7.4
	s-4.9,2.6-8.8,2.6c-3.4,0-6.1-0.5-8.2-1.6v-6.4c1.1,0.5,2.4,1,3.9,1.3c1.4,0.3,2.7,0.5,3.7,0.5c1.4,0,2.5-0.3,3.3-0.9
	c0.8-0.6,1.2-1.5,1.2-2.7c0-1.1-0.4-2-1.2-2.6s-2-0.9-3.6-0.9c-1.2,0-2.5,0.2-4,0.7l-2.9-1.4l1.1-15.2h16.4v6.5h-9.8l-0.4,3.8
	c1-0.2,1.7-0.3,2.2-0.3C219.2,613,219.6,613,219.9,613"/>
<path class="st5" d="M252.7,617.5c0,5.1-0.9,8.8-2.6,11.2c-1.7,2.4-4.3,3.5-7.8,3.5c-3.4,0-6-1.2-7.8-3.7c-1.7-2.5-2.6-6.1-2.6-11
	c0-5.1,0.9-8.9,2.6-11.2c1.7-2.4,4.3-3.6,7.8-3.6c3.4,0,6,1.2,7.8,3.7C251.8,608.9,252.7,612.6,252.7,617.5 M239.6,617.5
	c0,3.3,0.2,5.5,0.6,6.7c0.4,1.2,1.1,1.8,2,1.8c1,0,1.7-0.6,2.1-1.9c0.4-1.3,0.6-3.5,0.6-6.6c0-3.2-0.2-5.4-0.6-6.7
	c-0.4-1.3-1.1-1.9-2-1.9c-1,0-1.6,0.6-2,1.8C239.8,612,239.6,614.3,239.6,617.5"/>
<polygon class="st5" points="273.3,620.3 266,620.3 266,615 273.3,615 273.3,607.8 278.6,607.8 278.6,615 285.9,615 285.9,620.3 
	278.6,620.3 278.6,627.4 273.3,627.4 "/>
<polygon class="st5" points="179.7,647.8 179.7,650 175.4,650 175.4,660.9 172.6,660.9 172.6,650 168.4,650 168.4,647.8 "/>
<path class="st5" d="M187.9,661.1c-2,0-3.6-0.6-4.8-1.8c-1.1-1.2-1.7-2.8-1.7-4.9c0-2.1,0.5-3.8,1.6-5s2.5-1.8,4.4-1.8
	c1.7,0,3.1,0.5,4.1,1.6c1,1,1.5,2.5,1.5,4.3v1.5h-8.7c0,1.3,0.4,2.2,1,2.9s1.6,1,2.7,1c0.8,0,1.5-0.1,2.2-0.2
	c0.7-0.1,1.4-0.4,2.1-0.7v2.3c-0.7,0.3-1.4,0.6-2.1,0.7C189.6,661,188.8,661.1,187.9,661.1 M187.4,649.7c-0.9,0-1.6,0.3-2.1,0.8
	c-0.5,0.6-0.8,1.4-1,2.4h5.9c0-1.1-0.3-1.9-0.8-2.4C189,650,188.3,649.7,187.4,649.7"/>
<path class="st5" d="M201.4,661.1c-2,0-3.5-0.6-4.5-1.7c-1-1.2-1.5-2.8-1.5-5s0.5-3.9,1.6-5.1c1.1-1.2,2.6-1.8,4.7-1.8
	c1.4,0,2.6,0.3,3.7,0.8l-0.8,2.2c-1.2-0.5-2.1-0.7-2.9-0.7c-2.3,0-3.4,1.5-3.4,4.5c0,1.5,0.3,2.6,0.8,3.3c0.6,0.7,1.4,1.1,2.5,1.1
	c1.2,0,2.4-0.3,3.5-0.9v2.4c-0.5,0.3-1,0.5-1.6,0.6C202.9,661,202.2,661.1,201.4,661.1"/>
<polygon class="st5" points="217.9,647.8 217.9,650 213.6,650 213.6,660.9 210.8,660.9 210.8,650 206.6,650 206.6,647.8 "/>
<path class="st5" d="M232,654.3c0,2.1-0.5,3.8-1.6,5s-2.6,1.8-4.6,1.8c-1.2,0-2.3-0.3-3.2-0.8c-0.9-0.6-1.7-1.3-2.2-2.4
	c-0.5-1-0.8-2.2-0.8-3.6c0-2.1,0.5-3.8,1.6-5s2.6-1.8,4.6-1.8c1.9,0,3.4,0.6,4.5,1.8C231.4,650.6,232,652.3,232,654.3 M222.5,654.3
	c0,3,1.1,4.5,3.3,4.5s3.3-1.5,3.3-4.5s-1.1-4.5-3.3-4.5c-1.2,0-2,0.4-2.5,1.2C222.7,651.8,222.5,652.9,222.5,654.3"/>
<path class="st5" d="M246.5,651.2c0,1.5-0.9,2.5-2.7,2.8v0.1c1,0.1,1.8,0.4,2.3,1c0.5,0.5,0.8,1.2,0.8,2c0,1.2-0.5,2.2-1.4,2.8
	c-0.9,0.7-2.3,1-4.1,1h-6.2v-13.1h6.2C244.8,647.8,246.5,648.9,246.5,651.2 M243.7,651.4c0-0.5-0.2-0.9-0.6-1.1
	c-0.4-0.2-1-0.3-1.8-0.3h-3.4v3.1h2.9c0.9,0,1.6-0.1,2.1-0.4C243.5,652.5,243.7,652,243.7,651.4 M244.1,656.9c0-0.6-0.2-1.1-0.7-1.3
	c-0.5-0.3-1.2-0.4-2.2-0.4H238v3.7h3.3C243.1,658.8,244.1,658.2,244.1,656.9"/>
<path class="st5" d="M252.4,647.8v6.7c0,0.8-0.1,1.9-0.2,3.4l6.5-10.1h3.4v13.1h-2.7v-6.6c0-0.4,0-1,0.1-1.8c0-0.8,0.1-1.4,0.1-1.8
	l-6.5,10.1h-3.3v-13.1L252.4,647.8L252.4,647.8z"/>
<path class="st5" d="M270.5,658.5h1.3c1.1-2.1,2.1-4.4,2.9-7s1.3-5.2,1.5-7.8h8.9v14.8h2.2v7.2h-2.7v-4.8h-11.4v4.8h-2.7
	L270.5,658.5L270.5,658.5z M278.6,646.1c-0.2,1.8-0.6,3.9-1.3,6.2c-0.7,2.4-1.5,4.4-2.4,6.2h7.5v-12.4H278.6z"/>
<path class="st5" d="M301.6,648.8c0,1.8-0.6,3.2-1.8,4.1c-1.2,1-2.9,1.4-5,1.4H293v6.5h-2.8v-17.2h5c2.2,0,3.8,0.4,4.8,1.3
	C301,645.8,301.6,647.1,301.6,648.8 M293,652h1.5c1.4,0,2.5-0.2,3.2-0.8c0.7-0.5,1-1.3,1-2.4c0-1-0.3-1.7-0.9-2.2s-1.5-0.7-2.8-0.7
	h-2L293,652L293,652z"/>
<polygon class="st5" points="149.8,676.8 149.8,689.9 147,689.9 147,679 141.2,679 141.2,689.9 138.4,689.9 138.4,676.8 "/>
<path class="st5" d="M160.4,690.1c-1.7,0-2.9-0.6-3.8-1.8h-0.2c0.1,1.1,0.2,1.8,0.2,2v5.3h-2.8v-18.9h2.2c0.1,0.2,0.2,0.8,0.4,1.7
	h0.1c0.9-1.3,2.2-2,3.9-2c1.6,0,2.9,0.6,3.8,1.8c0.9,1.2,1.4,2.8,1.4,5c0,2.1-0.5,3.8-1.4,5C163.3,689.5,162,690.1,160.4,690.1
	 M159.7,678.8c-1.1,0-1.9,0.3-2.4,1c-0.5,0.6-0.8,1.7-0.8,3.1v0.4c0,1.6,0.3,2.7,0.8,3.4s1.3,1.1,2.5,1.1c1,0,1.7-0.4,2.2-1.2
	s0.8-1.9,0.8-3.4s-0.3-2.6-0.8-3.3S160.7,678.8,159.7,678.8"/>
<path class="st5" d="M174.5,690.1c-2,0-3.6-0.6-4.8-1.8c-1.1-1.2-1.7-2.8-1.7-4.9c0-2.1,0.5-3.8,1.6-5s2.5-1.8,4.4-1.8
	c1.7,0,3.1,0.5,4.1,1.6c1,1,1.5,2.5,1.5,4.3v1.5h-8.7c0,1.3,0.4,2.2,1,2.9s1.6,1,2.7,1c0.8,0,1.5-0.1,2.2-0.2
	c0.7-0.1,1.4-0.4,2.1-0.7v2.3c-0.7,0.3-1.4,0.6-2.1,0.7C176.2,690,175.4,690.1,174.5,690.1 M174,678.7c-0.9,0-1.6,0.3-2.1,0.8
	c-0.5,0.6-0.8,1.4-0.9,2.4h5.9c0-1.1-0.3-1.9-0.8-2.4C175.6,679,174.9,678.7,174,678.7"/>
<path class="st5" d="M194.1,680.2c0,1.5-0.9,2.5-2.7,2.8v0.1c1,0.1,1.8,0.4,2.3,1c0.5,0.5,0.8,1.2,0.8,2c0,1.2-0.5,2.2-1.4,2.8
	c-0.9,0.7-2.3,1-4.1,1h-6.2v-13.1h6.2C192.4,676.8,194.1,677.9,194.1,680.2 M191.3,680.4c0-0.5-0.2-0.9-0.6-1.1
	c-0.4-0.2-1-0.3-1.8-0.3h-3.4v3.1h3c0.9,0,1.6-0.1,2.1-0.4C191.1,681.5,191.3,681,191.3,680.4 M191.7,685.9c0-0.6-0.2-1.1-0.7-1.3
	c-0.5-0.3-1.2-0.4-2.2-0.4h-3.2v3.7h3.3C190.7,687.8,191.7,687.2,191.7,685.9"/>
<polygon class="st5" points="205.4,676.8 208.5,676.8 203.1,683.1 208.9,689.9 205.8,689.9 200.1,683.3 200.1,689.9 197.3,689.9 
	197.3,676.8 200.1,676.8 200.1,683.2 "/>
<path class="st5" d="M221.8,689.9H219V679h-3.6c-0.2,2.8-0.5,5-0.9,6.6s-0.9,2.7-1.5,3.4s-1.4,1.1-2.3,1.1c-0.6,0-1.1-0.1-1.5-0.3
	v-2.2c0.3,0.1,0.6,0.2,0.9,0.2c0.8,0,1.4-0.9,1.9-2.7s0.8-4.6,1.1-8.3h8.8L221.8,689.9L221.8,689.9z"/>
<path class="st5" d="M243.2,683.3c0,2.1-0.5,3.8-1.6,5c-1,1.2-2.5,1.8-4.4,1.8c-1.7,0-3.1-0.5-4.1-1.5s-1.6-2.5-1.8-4.3h-2.9v5.6
	h-2.6v-13h2.8v5.2h2.9c0.2-1.7,0.8-3.1,1.8-4c1-1,2.4-1.4,4.1-1.4c1.8,0,3.2,0.6,4.3,1.8C242.7,679.6,243.2,681.3,243.2,683.3
	 M234.3,683.3c0,1.5,0.2,2.6,0.7,3.4c0.5,0.8,1.3,1.1,2.3,1.1c1.1,0,1.8-0.4,2.3-1.1c0.5-0.8,0.7-1.9,0.7-3.4s-0.2-2.6-0.7-3.3
	c-0.5-0.8-1.3-1.1-2.3-1.1c-1.1,0-1.9,0.4-2.3,1.1C234.5,680.7,234.3,681.8,234.3,683.3"/>
<path class="st5" d="M248.9,676.8v4.8c0,1.3,0.7,2,2.1,2c0.7,0,1.3-0.1,2-0.3c0.6-0.2,1.3-0.5,2.1-0.9v-5.6h2.8v13h-2.8v-5.5
	c-0.8,0.5-1.5,0.8-2.2,1s-1.5,0.3-2.3,0.3c-1.4,0-2.4-0.3-3.2-1.1c-0.8-0.7-1.1-1.7-1.1-3v-4.9h2.6V676.8z"/>
<path class="st5" d="M273,680.2c0,1.5-0.9,2.5-2.7,2.8v0.1c1,0.1,1.8,0.4,2.3,1c0.5,0.5,0.8,1.2,0.8,2c0,1.2-0.5,2.2-1.4,2.8
	c-0.9,0.7-2.3,1-4.1,1h-6.2v-13.1h6.2C271.3,676.8,273,677.9,273,680.2 M270.2,680.4c0-0.5-0.2-0.9-0.6-1.1c-0.4-0.2-1-0.3-1.8-0.3
	h-3.4v3.1h2.9c0.9,0,1.6-0.1,2.1-0.4C270,681.5,270.2,681,270.2,680.4 M270.6,685.9c0-0.6-0.2-1.1-0.7-1.3c-0.5-0.3-1.2-0.4-2.2-0.4
	h-3.2v3.7h3.3C269.6,687.8,270.6,687.2,270.6,685.9"/>
<path class="st5" d="M284.5,689.9l-0.6-1.8h-0.1c-0.6,0.8-1.3,1.3-1.9,1.6s-1.5,0.4-2.5,0.4c-1.3,0-2.3-0.3-3-1s-1.1-1.7-1.1-2.9
	c0-1.3,0.5-2.4,1.5-3c1-0.7,2.5-1.1,4.6-1.1l2.3-0.1v-0.7c0-0.8-0.2-1.5-0.6-1.9s-1-0.6-1.8-0.6c-0.7,0-1.3,0.1-1.9,0.3
	s-1.2,0.4-1.8,0.7l-0.9-2c0.7-0.4,1.5-0.7,2.3-0.8c0.8-0.2,1.6-0.3,2.4-0.3c1.7,0,2.9,0.4,3.8,1.1c0.8,0.7,1.3,1.9,1.3,3.4v8.8h-2
	V689.9z M280.3,688c1,0,1.8-0.3,2.4-0.8c0.6-0.6,0.9-1.4,0.9-2.4v-1.2l-1.7,0.1c-1.3,0-2.3,0.3-2.9,0.7s-0.9,1-0.9,1.8
	c0,0.6,0.2,1,0.5,1.3C279.1,687.8,279.6,688,280.3,688"/>
<polygon class="st5" points="293.1,676.8 293.1,682.1 299.2,682.1 299.2,676.8 302,676.8 302,689.9 299.2,689.9 299.2,684.2 
	293.1,684.2 293.1,689.9 290.3,689.9 290.3,676.8 "/>
<path class="st5" d="M308.6,676.8v6.7c0,0.8-0.1,1.9-0.2,3.4l6.5-10.1h3.4v13h-2.7v-6.6c0-0.4,0-0.9,0.1-1.8c0-0.8,0.1-1.4,0.1-1.8
	l-6.5,10.1h-3.4v-13L308.6,676.8L308.6,676.8z"/>
<path class="st5" d="M325.7,689.6h-3.1l3.6-5.3c-0.9-0.3-1.6-0.7-2.1-1.4c-0.5-0.6-0.8-1.5-0.8-2.4c0-1.2,0.4-2.2,1.3-2.9
	s2.1-1,3.6-1h5.9v13h-2.8v-5h-2.6L325.7,689.6z M326.1,680.5c0,0.7,0.3,1.2,0.8,1.5s1.2,0.5,2,0.5h2.6v-3.9h-3
	c-0.8,0-1.3,0.2-1.8,0.5C326.3,679.4,326.1,679.9,326.1,680.5"/>
<path class="st6" d="M758,372.4c0,142.9-115.9,258.8-258.8,258.8S240.4,515.3,240.4,372.4c0-142.9,115.9-258.8,258.8-258.8
	S758,229.5,758,372.4z"/>
<text transform="matrix(1 0 0 1 77.8913 271.4658)" class="st5 st7 st8">1000 + </text>
<text transform="matrix(1 0 0 1 88.9338 300.5048)" class="st5 st9 st10">системи </text>
<text transform="matrix(1 0 0 1 59.9924 329.542)" class="st5 st9 st10">мигрирани в </text>
<text transform="matrix(1 0 0 1 96.9416 358.58)" class="st5 st9 st10">облака </text>
<text transform="matrix(1 0 0 1 540.6794 734.5204)" class="st5 st7 st11">100% </text>
<text transform="matrix(1 0 0 1 520.9904 759.4091)" class="st5 st9 st12">успеваемост</text>
<text transform="matrix(1 0 0 1 508.7521 784.2998)" class="st5 st9 st12"> при миграции </text>
<text transform="matrix(1 0 0 1 393.8366 59.792)" class="st5 st7 st10">18/20</text>
<text transform="matrix(1 0 0 1 461.2443 59.792)" class="st5 st9 st12"> най - успешни </text>
<text transform="matrix(1 0 0 1 374.3776 84.6806)" class="st5 st9 st12">компании са ни клиенти</text>
<text transform="matrix(1 0 0 1 361.4558 734.5204)" class="st5 st7 st13">50 + </text>
<text transform="matrix(1 0 0 1 337.7839 759.4111)" class="st5 st9 st12">партньора в </text>
<text transform="matrix(1 0 0 1 355.9519 784.2988)" class="st5 st9 st12">страната </text>
<text transform="matrix(1 0 0 1 791.322 299.6308)" class="st5 st7 st14">300 +</text>
<text transform="matrix(1 0 0 1 831.2897 328.6689)" class="st5 st9 st10"> ИТ </text>
<text transform="matrix(1 0 0 1 769.2185 357.708)" class="st5 st9 st10">сертфиката в </text>
<text transform="matrix(1 0 0 1 807.8151 386.7461)" class="st5 st9 st10">облака </text>
<text transform="matrix(1 0 0 1 780.3679 510.2285)" class="st5 st7 st13">1000+ </text>
<text transform="matrix(1 0 0 1 762.4597 535.1172)" class="st5 st9 st12">човекогодини </text>
<text transform="matrix(1 0 0 1 789.7351 560.0068)" class="st5 st9 st12">опит в ИТ </text>
<text transform="matrix(1 0 0 1 684.9606 138.9873)" class="st5 st7 st15">10 000 + </text>
<text transform="matrix(1 0 0 1 708.3356 163.2899)" class="st5 st9 st16">потребителя </text>
<text transform="matrix(1 0 0 1 723.7356 180.99)" class="st5 st9 st16">в облака </text>
<text transform="matrix(1 0 0 1 23.2868 508.288)" class="st17 st7 st18">100 000 000 +</text>
<text transform="matrix(1 0 0 1 74.8723 533.9746)" class="st17 st9 st19"> транзакции </text>
<text transform="matrix(1 0 0 1 642.4646 652.1445)" class="st5 st20 st21">100 + </text>
<text transform="matrix(1 0 0 1 727.4675 625.4433)" class="st5 st20 st22">часа </text>
<text transform="matrix(1 0 0 1 727.4675 652.1445)" class="st5 st20 st22">годишно </text>
<text transform="matrix(1 0 0 1 727.4675 678.8447)" class="st5 st20 st22">обучения </text>
<text transform="matrix(1 0 0 1 727.4675 705.5459)" class="st5 st20 st22">на клиенти </text>
<text transform="matrix(1 0 0 1 171.4441 138.9912)" class="st5 st7 st23">21 600 000 kWh </text>
<text transform="matrix(1 0 0 1 197.2653 168.0957)" class="st5 st24 st25">спестена </text>
<text transform="matrix(1 0 0 1 169.2653 188.5957)" class="st5 st24 st25">електроенергия</text>
</svg>
