<?xml version="1.0" encoding="utf-8"?>
<!-- Generator: Adobe Illustrator 19.2.1, SVG Export Plug-In . SVG Version: 6.00 Build 0)  -->
<svg version="1.1" id="Ebene_1" xmlns="http://www.w3.org/2000/svg" xmlns:xlink="http://www.w3.org/1999/xlink" x="0px" y="0px"
	 viewBox="0 0 320 950" style="enable-background:new 0 0 320 950;" xml:space="preserve">
<style type="text/css">
	.st0{fill:#068DB1;}
	.st1{fill:none;}
	.st2{fill:#FFFFFF;}
	.st3{font-family:'OpenSans';}
	.st4{font-size:14px;}
	.st5{font-family:'OpenSans-Extrabold';}
	.st6{font-size:20px;}
	.st7{fill:#0B7798;}
	.st8{fill:#E62B4C;}
	.st9{fill:#AF1A39;}
	.st10{fill:#057898;}
	.st11{fill:#16516D;}
</style>
<rect x="10.2" y="211.9" class="st0" width="300" height="50"/>
<rect x="106.3" y="223.5" class="st1" width="185.7" height="33.9"/>
<text transform="matrix(1 0 0 1 106.3339 235.5176)"><tspan x="0" y="0" class="st2 st3 st4">най-успешни компании са </tspan><tspan x="0" y="16.8" class="st2 st3 st4">на клиенти</tspan></text>
<text transform="matrix(1 0 0 1 30.7266 240.485)" class="st2 st5 st6">18/20</text>
<rect x="10.2" y="273" class="st7" width="300" height="50"/>
<text transform="matrix(1 0 0 1 30.7266 301.5884)" class="st2 st5 st6">10 000+</text>
<rect x="106.3" y="284.6" class="st1" width="185.7" height="33.9"/>
<text transform="matrix(1 0 0 1 106.3339 296.6211)" class="st2 st3 st4">потребители в облака</text>
<rect x="10.2" y="333.9" class="st8" width="300" height="71.4"/>
<rect x="106.3" y="345.5" class="st1" width="185.7" height="49.5"/>
<text transform="matrix(1 0 0 1 106.3334 357.5176)" class="st2 st3 st4">ИТ сертификата в облака</text>
<text transform="matrix(1 0 0 1 30.7266 362.485)" class="st2 st5 st6">300+</text>
<rect x="10.2" y="476.4" class="st0" width="300" height="50"/>
<text transform="matrix(1 0 0 1 30.7266 504.9856)" class="st2 st5 st6">100+</text>
<rect x="106.3" y="488" class="st1" width="185.7" height="33.9"/>
<text transform="matrix(1 0 0 1 106.3339 500.0182)"><tspan x="0" y="0" class="st2 st3 st4">часа годишно обучения на </tspan><tspan x="0" y="16.8" class="st2 st3 st4">клиенти</tspan></text>
<rect x="10.2" y="537.3" class="st7" width="300" height="50"/>
<rect x="106.3" y="548.9" class="st1" width="185.7" height="33.9"/>
<text transform="matrix(1 0 0 1 106.3339 560.9148)"><tspan x="0" y="0" class="st2 st3 st4">успеваемост при </tspan><tspan x="0" y="16.8" class="st2 st3 st4">миграция</tspan></text>
<text transform="matrix(1 0 0 1 30.7266 565.8822)" class="st2 st5 st6">100%</text>
<rect x="10.2" y="598.4" class="st0" width="300" height="50"/>
<text transform="matrix(1 0 0 1 30.7266 626.9856)" class="st2 st5 st6">50+</text>
<rect x="106.3" y="610" class="st1" width="185.7" height="33.9"/>
<text transform="matrix(1 0 0 1 106.3339 622.0182)" class="st2 st3 st4">партньора в страната</text>
<rect x="10.2" y="415.4" class="st9" width="300" height="50"/>
<text transform="matrix(1 0 0 1 30.7266 443.9856)" class="st2 st5 st6">1000+</text>
<rect x="106.3" y="427" class="st1" width="185.7" height="33.9"/>
<text transform="matrix(1 0 0 1 106.3339 439.0182)" class="st2 st3 st4">човекогодини опит в ИТ</text>
<rect x="10.2" y="658.5" class="st7" width="300" height="50"/>
<rect x="106.3" y="670.1" class="st1" width="185.7" height="33.9"/>
<text transform="matrix(1 0 0 1 106.3339 682.0684)"><tspan x="0" y="0" class="st2 st3 st4">тестови ДР </tspan><tspan x="0" y="16.8" class="st2 st3 st4">превключвания</tspan></text>
<text transform="matrix(1 0 0 1 30.7266 687.0358)" class="st2 st5 st6">150+</text>
<rect x="10.2" y="719.6" class="st9" width="300" height="50"/>
<text transform="matrix(1 0 0 1 30.7266 748.1392)" class="st2 st5 st6">100 000 000+</text>
<rect x="166.3" y="736.2" class="st1" width="185.7" height="33.9"/>
<text transform="matrix(1 0 0 1 166.3339 748.1718)" class="st2 st3 st4">транзакции</text>
<rect x="10.2" y="780.5" class="st8" width="300" height="71.4"/>
<rect x="106.3" y="792.1" class="st1" width="185.7" height="49.5"/>
<text transform="matrix(1 0 0 1 106.3334 804.0684)"><tspan x="0" y="0" class="st2 st3 st4">системи мигрирани в </tspan><tspan x="0" y="16.8" class="st2 st3 st4">облака</tspan></text>
<text transform="matrix(1 0 0 1 30.7266 809.0358)" class="st2 st5 st6">1000+</text>
<rect x="10.2" y="862" class="st10" width="300" height="77"/>
<text transform="matrix(1 0 0 1 30.7266 890.5364)" class="st2 st5 st6">21 600 000 kWh</text>
<rect x="29.3" y="900.6" class="st1" width="185.7" height="33.9"/>
<text transform="matrix(1 0 0 1 29.3339 912.569)" class="st2 st3 st4">спестена електроенергия</text>
<rect x="0.2" y="11" class="st11" width="320" height="180"/>
<path class="st2" d="M219.7,70.5c-1.6-1.9-3.6-3.2-6.1-3.8c-2.7-0.7-5.3-0.6-7.8,0.4c-1.6,0.6-3.2,2-5,4.1l-0.7,0.9l22,5.9v-0.9
	C222,74.5,221.2,72.3,219.7,70.5"/>
<path class="st2" d="M157.1,93c-15.3,0-27.8,12.5-27.8,27.8s12.5,27.8,27.8,27.8s27.8-12.5,27.8-27.8S172.4,93,157.1,93
	 M157.1,134.4c-7.5,0-13.7-6.1-13.7-13.7s6.1-13.7,13.7-13.7s13.7,6.1,13.7,13.7S164.6,134.4,157.1,134.4"/>
<path class="st2" d="M114.8,89.4c1.6-1.7,2.4-3.9,2.4-6.6c0-2.6-0.8-4.8-2.4-6.5c-1.6-1.6-3.6-2.5-6.1-2.5c-2.4,0-4.5,0.9-6.1,2.6
	c-1.6,1.7-2.4,3.8-2.4,6.5c0,2.7,0.8,4.9,2.4,6.6c1.6,1.7,3.6,2.5,6.1,2.5S113.2,91.1,114.8,89.4"/>
<path class="st2" d="M244,111.3h-2.8v27.3h3.8c3.8,0,6.5-0.4,8.2-1.3c1.7-0.9,3.1-2.3,4.2-4.3c1.1-2.1,1.6-4.6,1.6-7.5
	c0-4.6-1.3-8.2-3.8-10.7C252.8,112.4,249.1,111.3,244,111.3"/>
<path class="st2" d="M245.1,95h-12c3.1-4.6,5-10.1,5-16c0-15.7-12.7-28.3-28.3-28.3c-8.1,0-15.4,3.4-20.6,8.9
	C183,48.1,171,40.4,157.1,40.4c-15.6,0-28.8,9.8-34.1,23.4c-4.1-3.1-9-4.9-14.5-4.9c-13.2,0-23.9,10.7-23.9,23.9
	c0,4.5,1.2,8.6,3.3,12.2H77.8c-16.9,0-30.7,13.7-30.7,30.8c0,16.9,13.7,28.9,30.8,28.9h53.5c7.2,5.5,16.1,8.8,25.8,8.8
	c9.7,0,18.7-3.3,25.8-8.8h62.2c16.9,0,30.7-12,30.7-28.9C275.8,108.7,262.1,95,245.1,95 M157.1,48.9c15.6,0,28.3,12.7,28.3,28.3
	c0,4.4-1,8.5-2.8,12.3c-1.9-1.6-4-3-6.2-4.1c1.1-2.5,1.6-5.3,1.6-8.1c0-11.5-9.4-20.9-21-20.9c-11.5,0-20.9,9.4-20.9,20.9
	c0,2.8,0.6,5.6,1.6,8.1c-2.2,1.2-4.3,2.6-6.2,4.1c-1.8-3.7-2.8-7.9-2.8-12.3C128.8,61.6,141.5,48.9,157.1,48.9 M65.7,132.6
	c1.3,2.2,3.1,4,5.3,5.3s4.8,1.9,7.6,1.9c2.4,0,4.6-0.4,6.6-1.4c2-0.9,4.1-2.5,6.6-4.9l5.6,5.8c-3.2,3.1-6.2,5.3-9,6.5
	s-6.1,1.8-9.8,1.8c-6.8,0-12.2-2.1-16.5-6.4s-6.4-9.8-6.4-16.4c0-4.3,1-8.2,2.9-11.5c1.9-3.3,4.8-6.1,8.4-8.1
	c3.6-2.1,7.5-3.1,11.7-3.1c3.6,0,7,0.8,10.3,2.3c3.3,1.5,6.2,3.6,8.5,6.4l-5.8,5.5c-3.9-4.1-8.3-6.2-13.2-6.2
	c-4.1,0-7.6,1.4-10.5,4.3c-2.8,2.8-4.3,6.3-4.3,10.5C63.8,127.8,64.4,130.4,65.7,132.6 M93.5,82.9c0-4.6,1.7-8.4,5-11.4
	c2.9-2.6,6.3-4,10.1-4c2.7,0,5.3,0.7,7.8,2.1c2.4,1.4,4.3,3.3,5.7,5.6c1.4,2.3,2.1,4.9,2.1,7.6c0,2.8-0.7,5.3-2.1,7.8
	c-1.4,2.3-3.3,4.3-5.6,5.6c-2.3,1.4-5,2-7.8,2c-4.1,0-7.8-1.5-10.7-4.5C95,90.8,93.5,87.2,93.5,82.9 M121.8,146.6h-20.3v-43.3h8.3
	v35.5h12V146.6z M157.1,155.9c-19.4,0-35.1-15.7-35.1-35.1s15.7-35.1,35.1-35.1c19.4,0,35.1,15.7,35.1,35.1
	C192.2,140.1,176.4,155.9,157.1,155.9 M226.6,129.2c0,4.3-0.2,7.4-0.7,9c-0.5,1.7-1.4,3.3-2.8,4.9c-1.4,1.6-3,2.7-4.8,3.5
	c-1.8,0.8-3.9,1.1-6.3,1.1c-3.1,0-5.9-0.7-8.2-2.1c-2.3-1.4-4-3.3-5-5.4c-1-2.1-1.5-5.8-1.5-11v-25.8h8.3v28c0,2.4,0.2,4.1,0.6,5.1
	c0.4,1,1.1,1.8,2.1,2.4c1,0.6,2.1,0.9,3.5,0.9c1.4,0,2.7-0.4,3.8-1c1.1-0.6,1.8-1.5,2.2-2.6c0.4-1,0.6-3,0.6-5.9v-27h8.3
	L226.6,129.2L226.6,129.2z M228.6,84.7l-0.3,1.1l-29.8-8l-0.1,0.8c-0.3,2.9,0.4,5.5,1.9,7.6c1.6,2.2,3.8,3.7,6.9,4.5
	c3.5,0.9,6.8,0.6,10-1.1l5.8,4.9c-2.4,1.9-5,3.1-7.7,3.6c-2.9,0.6-6.3,0.4-9.9-0.6c-5.6-1.5-9.7-4.5-12.2-9
	c-2.6-4.4-3.1-9.4-1.7-14.7c1.4-5.4,4.4-9.5,8.9-12.2c2.9-1.7,6-2.6,9.3-2.6c1.7,0,3.6,0.3,5.4,0.7c5.6,1.5,9.7,4.6,12.2,9
	C229.6,73.6,230.1,78.8,228.6,84.7 M265.6,134.8c-1.1,2.8-2.6,5.1-4.6,7c-1.9,1.9-4.1,3.1-6.3,3.8c-2.3,0.7-6.2,1.1-11.8,1.1h-10
	v-43.3h9.8c6.3,0,11,0.8,14,2.3c3.1,1.6,5.6,4.1,7.5,7.6c2,3.5,3,7.6,3,12.3C267.4,128.9,266.8,132,265.6,134.8"/>
</svg>
