<?xml version="1.0" encoding="utf-8"?>
<!-- Generator: Adobe Illustrator 19.2.1, SVG Export Plug-In . SVG Version: 6.00 Build 0)  -->
<svg version="1.1" id="Ebene_1" xmlns="http://www.w3.org/2000/svg" xmlns:xlink="http://www.w3.org/1999/xlink" x="0px" y="0px"
	 viewBox="0 0 320 568.4" style="enable-background:new 0 0 320 568.4;" xml:space="preserve">
<style type="text/css">
	.st0{fill:url(#SVGID_1_);}
	.st1{fill:none;}
	.st2{fill:#FFFFFF;}
	.st3{font-family:'OpenSans';}
	.st4{font-size:14px;}
	.st5{opacity:0.2;fill:#FFFFFF;}
	.st6{fill:url(#SVGID_2_);}
	.st7{fill:url(#SVGID_3_);}
	.st8{fill:url(#SVGID_4_);}
</style>
<linearGradient id="SVGID_1_" gradientUnits="userSpaceOnUse" x1="8.9818" y1="67.6" x2="308.9818" y2="67.6">
	<stop  offset="0" style="stop-color:#191817"/>
	<stop  offset="3.293890e-02" style="stop-color:#1C1D1C"/>
	<stop  offset="0.1505" style="stop-color:#202528"/>
	<stop  offset="0.2829" style="stop-color:#232B33"/>
	<stop  offset="0.4366" style="stop-color:#213039"/>
	<stop  offset="0.6311" style="stop-color:#21323D"/>
	<stop  offset="1" style="stop-color:#22323E"/>
</linearGradient>
<rect x="9" y="1.2" class="st0" width="300" height="132.8"/>
<rect x="115.4" y="40.1" class="st1" width="185.7" height="91.9"/>
<text transform="matrix(1 0 0 1 115.4313 52.1311)"><tspan x="0" y="0" class="st2 st3 st4">94%  от ИТ мениджърите в </tspan><tspan x="0" y="16.8" class="st2 st3 st4">света смятат, че </tspan><tspan x="0" y="33.6" class="st2 st3 st4">сигурността на бизнеса им </tspan><tspan x="0" y="50.4" class="st2 st3 st4">се е подобрила в облака</tspan></text>
<g>
	<path class="st2" d="M94.6,70.6c-1.3,17.1-15.6,30.5-33,30.5c-18.3,0-33.2-14.8-33.2-33.2c0-18.3,14.8-33.2,33.2-33.2
		c15.4,0,28.2,10.4,32,24.6l7.2-2.4C96,39.7,80.3,27.1,61.6,27.1C39,27.2,20.8,45.4,20.8,67.9c0,20.7,15.4,37.7,35.3,40.4l5.4,9.4
		l5.4-9.4c19.1-2.6,33.9-18.2,35.2-37.7C102.1,70.6,94.6,70.6,94.6,70.6z"/>
	<path class="st5" d="M102.2,69.9c0-0.7,0.1-1.3,0.1-2c0-3.6-0.5-7-1.4-10.3L93.7,60c0.6,2.5,1,5.2,1,7.9c0,0.7-0.1,1.3-0.1,2
		C94.6,69.9,102.2,69.9,102.2,69.9z"/>
</g>
<g>
	<path class="st2" d="M40.1,75.4c0.5,0,1.2,0,2-0.1c1.4-0.2,2.8-0.8,3.8-1.8c1.2-1.1,2.1-2.7,2.4-4.8h-0.1c-1,1.2-2.5,1.9-4.3,1.9
		c-3.2,0-5.3-2.5-5.3-5.6c0-3.4,2.5-6.4,6.2-6.4c3.7,0,6,3,6,7.6c0,4-1.3,6.8-3.1,8.5c-1.4,1.4-3.3,2.2-5.3,2.4
		c-0.9,0.1-1.7,0.1-2.2,0.1L40.1,75.4L40.1,75.4z M41,65c0,2.2,1.4,3.8,3.5,3.8c1.6,0,2.9-0.8,3.6-1.9c0.1-0.2,0.2-0.5,0.2-0.9
		c0-3.1-1.2-5.4-3.7-5.4C42.5,60.6,41,62.4,41,65z"/>
	<path class="st2" d="M60.5,77.1v-5h-8.4v-1.6L60.2,59h2.6v11.3h2.5v1.9h-2.5v4.9H60.5L60.5,77.1z M60.5,70.3v-6
		c0-0.9,0-1.9,0.1-2.8h-0.1c-0.6,1-1,1.8-1.5,2.7l-4.4,6.2v0C54.6,70.3,60.5,70.3,60.5,70.3z"/>
	<path class="st2" d="M75.4,64.1c0,3.8-2,5.7-4.3,5.7c-2.2,0-4.2-1.8-4.2-5.4c0-3.6,2-5.7,4.4-5.7C73.7,58.7,75.4,60.6,75.4,64.1z
		 M68.8,64.3c0,2.3,0.8,4.1,2.3,4.1c1.6,0,2.3-1.7,2.3-4.1c0-2.2-0.6-4-2.3-4C69.6,60.2,68.8,62,68.8,64.3z M70.9,77.4l10.6-18.7
		h1.6L72.5,77.4H70.9z M87.2,71.6c0,3.8-2,5.7-4.3,5.7c-2.2,0-4.2-1.8-4.2-5.4c0-3.7,2-5.7,4.4-5.7C85.6,66.2,87.2,68.1,87.2,71.6z
		 M80.6,71.7c0,2.3,0.9,4.1,2.3,4.1c1.6,0,2.3-1.7,2.3-4.1c0-2.2-0.6-4-2.3-4C81.4,67.7,80.6,69.5,80.6,71.7z"/>
</g>
<linearGradient id="SVGID_2_" gradientUnits="userSpaceOnUse" x1="9.9818" y1="212.2" x2="309.9818" y2="212.2">
	<stop  offset="0" style="stop-color:#931939"/>
	<stop  offset="3.175431e-02" style="stop-color:#97193A"/>
	<stop  offset="0.1555" style="stop-color:#A71A3C"/>
	<stop  offset="0.3062" style="stop-color:#B11A3E"/>
	<stop  offset="0.5101" style="stop-color:#B7163E"/>
	<stop  offset="1" style="stop-color:#BA163F"/>
</linearGradient>
<rect x="10" y="145.8" class="st6" width="300" height="132.8"/>
<rect x="116.4" y="184.7" class="st1" width="185.7" height="91.9"/>
<text transform="matrix(1 0 0 1 116.4313 196.7311)"><tspan x="0" y="0" class="st2 st3 st4">80% от световните </tspan><tspan x="0" y="16.8" class="st2 st3 st4">корпорации ще са в </tspan><tspan x="0" y="33.6" class="st2 st3 st4">облаците до края на 2016</tspan></text>
<g>
	<path class="st5" d="M62.8,179.3c18.2,0.2,32.9,15,32.9,33.2c0,0.7-0.1,1.3-0.1,2h7.6c0-0.6,0.1-1.3,0.1-2
		c0-22.4-18.1-40.6-40.4-40.8L62.8,179.3L62.8,179.3z"/>
	<path class="st2" d="M95.5,215.1c-1.4,17.1-15.6,30.5-33,30.5c-18.3,0-33.2-14.9-33.2-33.2c0-18.2,14.7-33,32.9-33.2v-7.6
		c-22.3,0.2-40.4,18.3-40.4,40.8c0,20.7,15.4,37.7,35.3,40.4l5.4,9.5l5.4-9.5c19.1-2.6,33.9-18.3,35.2-37.7L95.5,215.1L95.5,215.1z"
		/>
</g>
<g>
	<path class="st2" d="M38.5,218.9c0-2.3,1.4-3.9,3.6-4.8l0-0.1c-2-0.9-2.9-2.5-2.9-4.1c0-2.9,2.4-4.8,5.6-4.8c3.5,0,5.3,2.2,5.3,4.5
		c0,1.5-0.8,3.2-3,4.2v0.1c2.3,0.9,3.7,2.5,3.7,4.7c0,3.1-2.7,5.3-6.2,5.3C40.7,223.8,38.5,221.5,38.5,218.9z M48.2,218.8
		c0-2.2-1.5-3.3-4-4c-2.1,0.6-3.3,2-3.3,3.7c-0.1,1.9,1.3,3.4,3.6,3.4C46.8,222,48.2,220.7,48.2,218.8z M41.4,209.7
		c0,1.8,1.4,2.8,3.4,3.3c1.5-0.5,2.8-1.6,2.8-3.3c0-1.4-0.9-2.9-3.1-2.9C42.6,206.8,41.4,208.2,41.4,209.7z"/>
	<path class="st2" d="M65,214.2c0,6.2-2.3,9.6-6.3,9.6c-3.6,0-5.9-3.3-6-9.3c0-6.1,2.6-9.4,6.3-9.4C62.8,205.1,65,208.5,65,214.2z
		 M55.2,214.5c0,4.7,1.4,7.4,3.7,7.4c2.5,0,3.7-2.9,3.7-7.6c0-4.5-1.1-7.4-3.7-7.4C56.7,207,55.2,209.6,55.2,214.5z"/>
	<path class="st2" d="M75.4,210.5c0,3.8-2,5.7-4.3,5.7c-2.3,0-4.2-1.8-4.2-5.4c0-3.6,2-5.7,4.4-5.7C73.7,205.1,75.4,207,75.4,210.5z
		 M68.8,210.7c0,2.3,0.8,4.1,2.3,4.1c1.6,0,2.3-1.7,2.3-4.1c0-2.2-0.6-4-2.3-4C69.6,206.6,68.8,208.4,68.8,210.7z M70.9,223.8
		l10.6-18.7h1.5l-10.6,18.7H70.9z M87.2,218c0,3.8-2,5.7-4.3,5.7c-2.3,0-4.2-1.8-4.2-5.4c0-3.7,2-5.7,4.4-5.7
		C85.6,212.6,87.2,214.5,87.2,218z M80.6,218.1c0,2.3,0.9,4.1,2.4,4.1c1.6,0,2.3-1.7,2.3-4.1c0-2.2-0.6-4-2.3-4
		C81.4,214.1,80.6,215.9,80.6,218.1z"/>
</g>
<linearGradient id="SVGID_3_" gradientUnits="userSpaceOnUse" x1="9.4818" y1="355" x2="309.4818" y2="355">
	<stop  offset="0" style="stop-color:#191817"/>
	<stop  offset="3.293890e-02" style="stop-color:#1C1D1C"/>
	<stop  offset="0.1505" style="stop-color:#202528"/>
	<stop  offset="0.2829" style="stop-color:#232B33"/>
	<stop  offset="0.4366" style="stop-color:#213039"/>
	<stop  offset="0.6311" style="stop-color:#21323D"/>
	<stop  offset="1" style="stop-color:#22323E"/>
</linearGradient>
<rect x="9.5" y="288.6" class="st7" width="300" height="132.8"/>
<rect x="115.9" y="327.5" class="st1" width="185.7" height="91.9"/>
<text transform="matrix(1 0 0 1 115.9313 339.5311)"><tspan x="0" y="0" class="st2 st3 st4">Моделът на облака е 40 </tspan><tspan x="0" y="16.8" class="st2 st3 st4">пъти по-ефективен за МСП </tspan><tspan x="0" y="33.6" class="st2 st3 st4">в сравнение с </tspan><tspan x="0" y="50.4" class="st2 st3 st4">традиционния модел </tspan><tspan x="0" y="67.2" class="st2 st3 st4">(според Forbes )</tspan></text>
<linearGradient id="SVGID_4_" gradientUnits="userSpaceOnUse" x1="10.4818" y1="499.6" x2="310.4818" y2="499.6">
	<stop  offset="0" style="stop-color:#931939"/>
	<stop  offset="3.175431e-02" style="stop-color:#97193A"/>
	<stop  offset="0.1555" style="stop-color:#A71A3C"/>
	<stop  offset="0.3062" style="stop-color:#B11A3E"/>
	<stop  offset="0.5101" style="stop-color:#B7163E"/>
	<stop  offset="1" style="stop-color:#BA163F"/>
</linearGradient>
<rect x="10.5" y="433.2" class="st8" width="300" height="132.8"/>
<rect x="116.9" y="472.1" class="st1" width="185.7" height="91.9"/>
<text transform="matrix(1 0 0 1 116.9313 484.1311)"><tspan x="0" y="0" class="st2 st3 st4">по 545 услуги се използват </tspan><tspan x="0" y="16.8" class="st2 st3 st4">средно от фирми в  облака </tspan><tspan x="0" y="33.6" class="st2 st3 st4">в световен мащаб</tspan></text>
<g>
	<path class="st2" d="M103.3,355.3c0-3.2-0.8-7.7-1.6-10.9l0,0c0-0.2-0.1-0.3-0.1-0.5c-0.1-0.2-0.1-0.4-0.2-0.6l0,0
		c-5.2-16.6-20.6-28.7-38.9-28.7c-22.5,0-40.8,18.3-40.8,40.8c0,20.6,15.4,37.7,35.3,40.3l5.4,9.4l5.4-9.4
		c18.7-2.5,33.3-17.7,35.1-36.6l0.1,0C103.1,358.3,103.3,355.9,103.3,355.3z M62.5,388.4c-18.3,0-33.2-14.9-33.2-33.2
		c0-18.3,14.9-33.2,33.2-33.2c14.5,0,26.7,9.3,31.3,22.2c0.7,2.7,1.9,8.3,1.9,11c0,0.6-0.2,3.5-0.3,4.4
		C93.2,375.9,79.3,388.4,62.5,388.4z"/>
	<path class="st2" d="M55.5,351h-2.6l-1.9,2.9c-0.4,0.7-0.9,1.4-1.3,2.2h-0.1c-0.4-0.7-0.9-1.5-1.4-2.2l-1.9-2.9h-2.7l4.6,6.6
		l-4.8,6.9H46l1.9-3c0.5-0.8,1-1.5,1.4-2.3h0.1c0.5,0.8,0.9,1.6,1.5,2.3l2,3h2.8l-4.7-7L55.5,351z"/>
	<path class="st2" d="M67.1,346.4h-2.6l-8.1,11.5v1.6h8.4v4.9v0h2.3v-4.9h2.5v-1.9h-2.5V346.4z M64.8,351.6v6h-5.9v0l4.4-6.1
		c0.5-0.9,0.9-1.6,1.5-2.7h0.1C64.8,349.7,64.8,350.6,64.8,351.6z"/>
	<path class="st2" d="M77.5,346c-3.7,0-6.3,3.4-6.3,9.4c0.1,6,2.5,9.3,6,9.3c4,0,6.3-3.4,6.3-9.5C83.5,349.4,81.3,346.1,77.5,346z
		 M77.4,362.9c-2.2,0-3.7-2.7-3.7-7.4c0-4.9,1.6-7.6,3.7-7.5c2.5,0,3.7,2.9,3.7,7.4C81,360,79.9,362.9,77.4,362.9z"/>
</g>
<g>
	<path class="st2" d="M103.9,502.6c0.1-1,0.2-2.2,0.2-2.7c0-3.2-0.8-7.7-1.6-10.9l0,0c-0.1-0.2-0.1-0.4-0.2-0.5
		c0-0.2-0.1-0.4-0.1-0.5l0,0c-5.2-16.6-20.6-28.7-38.9-28.7c-22.5,0-40.8,18.3-40.8,40.8c0,20.6,15.4,37.7,35.3,40.3l5.5,9.4
		l5.4-9.4c18.7-2.5,33.3-17.7,35.1-36.6l0,0c0-0.2,0-0.5,0.1-0.9C103.9,502.7,103.9,502.6,103.9,502.6L103.9,502.6z M63.3,533
		c-18.3,0-33.2-14.9-33.2-33.2c0-18.3,14.9-33.2,33.2-33.2c14.5,0,26.7,9.3,31.3,22.2c0.7,2.7,1.9,8.3,1.9,11c0,0.6-0.3,3.5-0.3,4.4
		C93.9,520.5,80.1,533,63.3,533z"/>
	<path class="st2" d="M52.9,498.5c-1.1-0.7-2.5-1-3.9-1c-0.7,0-1.1,0.1-1.5,0.1l0.7-4.7h6.9v-2h-8.6l-1.2,8.7
		c0.7-0.1,1.5-0.2,2.5-0.2c3.6,0,5.2,1.7,5.2,4c0,2.4-2,3.9-4.3,3.9c-1.6,0-3.1-0.6-3.9-1l-0.6,1.9c0.9,0.6,2.5,1.1,4.5,1.1
		c3.9,0,6.7-2.6,6.7-6.2C55.5,500.9,54.3,499.4,52.9,498.5z"/>
	<path class="st2" d="M68.5,491h-2.6l-8.1,11.5v1.6h8.4v4.9h2.3v-4.9H71v-1.9h-2.5V491z M66.2,496.2v6h-5.9v0l4.4-6.1
		c0.5-0.9,0.9-1.6,1.5-2.7h0.1C66.2,494.3,66.2,495.3,66.2,496.2z"/>
	<path class="st2" d="M81.5,498.5c-1.1-0.7-2.5-1-3.9-1c-0.7,0-1.1,0.1-1.5,0.1l0.7-4.7h6.9v-2H75l-1.2,8.7c0.7-0.1,1.5-0.2,2.5-0.2
		c3.6,0,5.2,1.7,5.2,4c0,2.4-2,3.9-4.3,3.9c-1.6,0-3.1-0.6-3.9-1l-0.6,1.9c0.9,0.6,2.5,1.1,4.5,1.1c3.9,0,6.7-2.6,6.7-6.2
		C84,500.9,82.9,499.4,81.5,498.5z"/>
</g>
</svg>
