<?xml version="1.0" encoding="utf-8"?>
<!-- Generator: Adobe Illustrator 19.2.1, SVG Export Plug-In . SVG Version: 6.00 Build 0)  -->
<svg version="1.1" id="Ebene_1" xmlns="http://www.w3.org/2000/svg" xmlns:xlink="http://www.w3.org/1999/xlink" x="0px" y="0px"
	 viewBox="0 0 320 1300.5" style="enable-background:new 0 0 320 1300.5;" xml:space="preserve">
<style type="text/css">
	.st0{fill:#13506C;}
	.st1{fill:#E72A4B;}
	.st2{font-family:'HelenProBold', 'Arial', sans-serif;}
	.st3{font-size:30px;}
	.st4{fill:url(#SVGID_1_);}
	.st5{fill:none;}
	.st6{fill:#FFFFFF;}
	.st7{font-family:'HelenProRegular', 'Arial', sans-serif;}
	.st8{font-size:14px;}
	.st9{font-size:20px;}
	.st10{fill:url(#SVGID_2_);}
	.st11{fill:#21313D;}
	.st12{fill:#65BECB;}
	.st13{fill:#047798;}
	.st14{opacity:0.15;fill:#13110C;stroke:#13110C;stroke-miterlimit:10;enable-background:new    ;}
	.st15{fill:#55514F;}
	.st16{fill:#FCDEB9;}
	.st17{fill:#33302D;}
	.st18{fill:#746762;}
	.st19{fill:#494543;}
	.st20{fill:#CAC7C7;}
	.st21{fill:#EDECED;}
	.st22{fill:#B97B65;}
	.st23{fill:#303C44;}
	.st24{fill:#D6D4D4;}
	.st25{fill:url(#SVGID_3_);}
	.st26{fill:#435766;}
	.st27{fill:#F2D3AF;}
	.st28{fill:#403D3A;}
	.st29{fill:url(#SVGID_4_);}
	.st30{fill:#2E383F;}
	.st31{fill:#272D30;}
	.st32{opacity:0.3;}
	.st33{fill:#13110C;}
	.st34{fill:#263D54;}
	.st35{fill:url(#SVGID_5_);}
	.st36{fill:url(#SVGID_6_);}
	.st37{fill:url(#SVGID_7_);}
	.st38{fill:url(#SVGID_8_);}
	.st39{fill:url(#SVGID_9_);}
	.st40{fill:url(#SVGID_10_);}
	.st41{fill:url(#SVGID_11_);}
	.st42{fill:url(#SVGID_12_);}
	.st43{fill:url(#SVGID_13_);}
	.st44{fill:url(#SVGID_14_);}
	.st45{fill:#2C2926;}
	.st46{fill:#4F4B4A;}
	.st47{fill:#5F4732;}
	.st48{fill:url(#SVGID_15_);}
	.st49{fill:url(#SVGID_16_);}
	.st50{fill:url(#SVGID_17_);}
	.st51{opacity:0.15;}
	.st52{fill:#625C42;}
	.st53{fill:#363330;}
</style>
<rect x="-0.3" y="0.5" class="st0" width="320" height="1300"/>
<text transform="matrix(1 0 0 1 9.6699 52.6105)" class="st1 st2 st3">100% облак</text>
<linearGradient id="SVGID_1_" gradientUnits="userSpaceOnUse" x1="9.7" y1="1199.4" x2="309.7" y2="1199.4" gradientTransform="matrix(1 0 0 -1 0 1299)">
	<stop  offset="0" style="stop-color:#191816"/>
	<stop  offset="3.293890e-02" style="stop-color:#1B1C1B"/>
	<stop  offset="0.1505" style="stop-color:#202528"/>
	<stop  offset="0.2829" style="stop-color:#222B32"/>
	<stop  offset="0.4366" style="stop-color:#212F38"/>
	<stop  offset="0.6311" style="stop-color:#21313C"/>
	<stop  offset="1" style="stop-color:#21313D"/>
</linearGradient>
<rect x="9.7" y="74.6" class="st4" width="300" height="50"/>
<rect x="105.8" y="86.2" class="st5" width="185.7" height="33.9"/>
<text transform="matrix(1 0 0 1 105.7767 98.2408)" class="st6 st7 st8">намаление в разходите за </text>
<text transform="matrix(1 0 0 1 105.7767 115.0408)" class="st6 st7 st8">дейта цетрове </text>
<text transform="matrix(1 0 0 1 30.1694 103.2082)" class="st6 st7 st9">100%</text>
<linearGradient id="SVGID_2_" gradientUnits="userSpaceOnUse" x1="9.7" y1="1138.3" x2="309.7" y2="1138.3" gradientTransform="matrix(1 0 0 -1 0 1299)">
	<stop  offset="0" style="stop-color:#42898E"/>
	<stop  offset="0.1138" style="stop-color:#4A989F"/>
	<stop  offset="0.2737" style="stop-color:#55A8B1"/>
	<stop  offset="0.4532" style="stop-color:#5DB3BF"/>
	<stop  offset="0.6664" style="stop-color:#62BAC7"/>
	<stop  offset="1" style="stop-color:#64BCCA"/>
</linearGradient>
<rect x="9.7" y="135.7" class="st10" width="300" height="50"/>
<text transform="matrix(1 0 0 1 30.1694 164.3116)" class="st6 st2 st9">100%</text>
<rect x="105.8" y="147.3" class="st5" width="185.7" height="33.9"/>
<text transform="matrix(1 0 0 1 105.7767 159.3442)" class="st6 st7 st8">намаление в разходите за </text>
<text transform="matrix(1 0 0 1 105.7767 176.1442)" class="st6 st7 st8">сървърна инфраструктура</text>
<rect x="9.7" y="196.6" class="st1" width="300" height="71.4"/>
<rect x="105.8" y="208.2" class="st5" width="185.7" height="49.5"/>
<text transform="matrix(1 0 0 1 105.7762 220.2408)" class="st6 st7 st8">намаление в разходите за </text>
<text transform="matrix(1 0 0 1 105.7762 237.0408)" class="st6 st7 st8">поддръжка на сървърната </text>
<text transform="matrix(1 0 0 1 105.7762 253.8408)" class="st6 st7 st8">инфраструктура</text>
<text transform="matrix(1 0 0 1 30.1694 225.2082)" class="st6 st2 st9">100%</text>
<rect x="9.7" y="349.1" class="st1" width="300" height="50"/>
<text transform="matrix(1 0 0 1 30.1694 377.7088)" class="st6 st2 st9">100%</text>
<rect x="105.8" y="360.7" class="st5" width="185.7" height="33.9"/>
<text transform="matrix(1 0 0 1 105.7767 372.7414)" class="st6 st7 st8">възстановяване при </text>
<text transform="matrix(1 0 0 1 105.7767 389.5414)" class="st6 st7 st8">човешки грешки</text>
<rect x="9.7" y="410" class="st11" width="300" height="50"/>
<rect x="105.8" y="421.6" class="st5" width="185.7" height="33.9"/>
<text transform="matrix(1 0 0 1 105.7767 433.6379)" class="st6 st7 st8">защита от външни атаки </text>
<text transform="matrix(1 0 0 1 30.1694 438.6054)" class="st6 st2 st9">100%</text>
<rect x="9.7" y="471.1" class="st12" width="300" height="50"/>
<text transform="matrix(1 0 0 1 30.1694 499.7087)" class="st6 st2 st9">100%</text>
<rect x="105.8" y="482.7" class="st5" width="185.7" height="33.9"/>
<text transform="matrix(1 0 0 1 105.7767 494.7414)" class="st6 st7 st8">наличност на данните</text>
<rect x="9.7" y="288.1" class="st13" width="300" height="50"/>
<text transform="matrix(1 0 0 1 30.1694 316.7088)" class="st6 st2 st9">&gt;100</text>
<rect x="105.8" y="299.7" class="st5" width="185.7" height="33.9"/>
<text transform="matrix(1 0 0 1 105.7767 311.7414)" class="st6 st7 st8">милиона спестени от </text>
<text transform="matrix(1 0 0 1 105.7767 328.5414)" class="st6 st7 st8">подобрена ефективност</text>
<rect x="9.7" y="641.6" class="st12" width="300" height="120"/>
<text transform="matrix(1 0 0 1 115.6694 692.3317)" class="st6 st2 st9">01</text>
<rect x="115.7" y="714.1" class="st5" width="185.7" height="33.9"/>
<text transform="matrix(1 0 0 1 115.6694 726.0485)" class="st6 st7 st8">Среща с персоналния Ви </text>
<text transform="matrix(1 0 0 1 115.6694 742.8485)" class="st6 st7 st8">мениджър</text>
<g>
	
		<ellipse transform="matrix(1 -8.494785e-03 8.494785e-03 1 -6.2997 0.4991)" class="st14" cx="55.6" cy="741.8" rx="36.5" ry="6.8"/>
	<g>
		<g>
			<g>
				<path class="st15" d="M38.8,689.9c0,1.4,1.2,2.6,2.6,2.6l0,0c1.5,0,2.2-0.7,2.2-2.1l0.5-13.5c0-1.5-1.2-2.6-2.6-2.6l0,0
					c-1.5,0-2.6,1.2-2.6,2.6L38.8,689.9z"/>
				<g>
					<path class="st16" d="M40.5,703c0.4-1.1,1-2.1,2.5-2.1l0,0c1.5-0.1,2.8,1.1,2.9,2.6v0.6c0.1,1.5-1.1,2.8-2.6,2.9l0,0
						c-1.5,0.1-2.8-1.1-2.9-2.6C40.4,704.3,40.3,703.7,40.5,703z"/>
					<path class="st16" d="M45.3,701.5c0.2,1.3-0.7,2.5-2,2.7l0,0c-1.3,0.2-2.5-0.7-2.7-2l-1.8-11.6c-0.2-1.3,0.7-2.5,2-2.7l0,0
						c1.3-0.2,2.5,0.7,2.7,2L45.3,701.5z"/>
					<path class="st15" d="M40.4,700.8c1-0.2,1.9-0.3,2.9-0.4c0.6-0.1,1.2-0.1,1.8-0.2L43.5,690c-0.2-1.3-1.4-2.2-2.7-2
						s-2.2,1.4-2,2.7L40.4,700.8z"/>
					<path class="st16" d="M44.1,705.3c0-0.4,0.2-0.8,0.6-0.8l0,0c0.4,0,0.8,0.3,0.9,0.7l0.2,2c0,0.4-0.2,0.8-0.6,0.8l0,0
						c-0.4,0-0.8-0.2-0.8-0.6L44.1,705.3z"/>
					<path class="st16" d="M42.7,706c0-0.4,0.4-0.7,0.8-0.7l0,0c0.4,0,0.7,0.4,0.7,0.8l0.1,1.3c0,0.4-0.4,0.7-0.8,0.7l0,0
						c-0.4,0-0.7-0.4-0.7-0.8L42.7,706z"/>
					<path class="st16" d="M41.4,705.5c0.1-0.4,0.4-0.6,0.8-0.6l0,0c0.4,0.1,0.6,0.4,0.6,0.8v1.5c-0.1,0.4-0.4,0.6-0.8,0.6l0,0
						c-0.4-0.1-0.6-0.4-0.6-0.8V705.5z"/>
					<path class="st16" d="M40.2,704.8c0.1-0.3,0.4-0.5,0.7-0.5l0,0c0.3,0.1,0.5,0.4,0.5,0.7v1.6c-0.1,0.3-0.4,0.5-0.7,0.5l0,0
						c-0.3-0.1-0.5-0.4-0.5-0.7V704.8z"/>
				</g>
			</g>
			<g>
				<path class="st17" d="M44.3,742.8c0-0.1,0-0.2,0-0.2c0.1-1.7-3-3.1-4.5-3.2l-4.4,0.1c-0.8,0.4-1.1,1-1.2,2.7c0,0.1,0,0.2,0,0.2
					L44.3,742.8z"/>
				<path class="st15" d="M35.3,737.8v1.7c-0.1,0.5,0.9,1.2,2.2,1.4s2.4-0.2,2.4-0.5l0.3-2.6L35.3,737.8z"/>
				<polygon class="st17" points="40.2,737.7 35.3,737.8 34.3,703.7 42,706.7 				"/>
			</g>
			<g>
				<path class="st17" d="M36.4,743.4c0-0.1,0-0.2,0-0.2c0.1-1.7-3-3.1-4.5-3.2l-4.4,0.1c-0.8,0.4-1.1,1-1.2,2.7c0,0.1,0,0.2,0,0.2
					L36.4,743.4z"/>
				<path class="st15" d="M27.4,738.4v1.7c-0.1,0.5,0.9,1.2,2.2,1.4c1.3,0.2,2.4-0.2,2.4-0.5l0.3-2.6L27.4,738.4z"/>
				<polygon class="st17" points="32.3,738.3 27.4,738.4 26.4,704.3 35,705 				"/>
			</g>
			<path class="st16" d="M36.6,675c0,1.2-1,2.2-2.2,2.2l0,0c-1.2,0-2.2-1-2.2-2.2l-0.1-7.1c0-1.2,1-2.2,2.2-2.2l0,0
				c1.2,0,2.2,1,2.2,2.2L36.6,675z"/>
			<g>
				
					<ellipse transform="matrix(1 -8.455327e-03 8.455327e-03 1 -5.582 0.3119)" class="st18" cx="34.1" cy="660.3" rx="8.6" ry="8.6"/>
				
					<ellipse transform="matrix(1 -8.469325e-03 8.469325e-03 1 -5.604 0.2982)" class="st18" cx="32.4" cy="661.8" rx="7.3" ry="9.4"/>
				<path class="st16" d="M41.5,665c0,4-3.2,7.2-7.1,7.2l0,0c-4,0-7.2-3.2-7.2-7.1v-5c0-4,3.2-7.2,7.1-7.2l0,0c4,0,7.2,3.2,7.2,7.1
					V665z"/>
				
					<ellipse transform="matrix(1 -8.724157e-03 8.724157e-03 1 -5.7877 0.2634)" class="st16" cx="27.3" cy="663.5" rx="1.9" ry="1.9"/>
				<path class="st18" d="M41.1,655.3c-0.8-0.2-6.2-3.6-7.1-3.6c-4.7,0-8.5,3.9-8.5,8.6c0,0.5,0.1,1,0.1,1.4
					C31.1,661.2,37.9,660,41.1,655.3z"/>
			</g>
			<path class="st15" d="M28.8,674.3l10.3-0.1c2.6,0,4.7-0.1,4.8,2.5l0,0c0,2.6-2.1,3-4.7,3l-10.3,0.1"/>
			<path class="st17" d="M41.9,698.7L41.8,680c0-0.6-0.1-1.2-0.2-1.8l-15.2,0.1c-0.1,0.6-0.2,1.2-0.2,1.8l0.2,18.8L41.9,698.7z"/>
			<polygon class="st17" points="42,706.7 26.8,706.9 26.4,704.3 26.4,698.9 41.9,698.7 			"/>
			<path class="st19" d="M39.9,702.6c0.4,1.4,1.2,2.7,2.1,3.6v-3.6H39.9z"/>
			<path class="st19" d="M26.4,702.7v1.5l0.3,2c1.4-0.7,2.7-1.9,3.4-3.5H26.4z"/>
			<path class="st17" d="M41.8,680.6C41.8,680.7,41.8,680.6,41.8,680.6L42,702l-15.6,0.1l-0.2-22c0-0.1,0-0.3,0-0.4l0.1-5.3
				c0.7-0.1,1.6-0.1,2.5-0.1l10.3-0.1c0.9,0,1.4,0,2.2,0.1L41.8,680.6z"/>
			<polygon class="st15" points="37.3,674.3 38.5,678.7 37.1,679.8 38.3,681 34.9,684.8 			"/>
			<polygon class="st15" points="31.5,674.3 30.2,678.8 31.6,679.9 30.5,681.1 34.9,684.8 			"/>
			<polygon class="st20" points="31.5,674.3 34.9,684.9 37.3,674.3 			"/>
			<path class="st15" d="M34.9,675.2c0-0.2-0.1-0.3-0.3-0.3s-0.3,0.1-0.3,0.3l0.1,8l0.5,1.6c0,0,0,0,0.1-0.1l0.1-0.3L34.9,675.2z"/>
			
				<ellipse transform="matrix(1 -8.503087e-03 8.503087e-03 1 -5.7394 0.3186)" class="st15" cx="34.6" cy="675.1" rx="0.8" ry="0.8"/>
			<g>
				<path class="st15" d="M32.9,688.4c0.9,1.2,2.5,1.4,3.7,0.5l0,0c1.2-0.9,1.4-2.5,0.5-3.7l-7.7-10.5c-0.9-1.2-2.5-1.4-3.7-0.5l0,0
					c-1.2,0.9-2.2,2.9-1,4.7L32.9,688.4z"/>
				<g>
					<path class="st16" d="M46.9,691.4c-0.9-0.7-1.7-1.5-1.3-3l0,0c0.4-1.5,1.2-1.7,2.6-1.4l1.3-0.5c1.5,0.4,2.4,1.9,2,3.4l0,0
						c-0.4,1.5-1.9,2.4-3.4,2C48.2,691.9,47.6,691.8,46.9,691.4z"/>
					<path class="st16" d="M47.2,688.5c-0.4,0.2-0.9,0-1.1-0.4l0,0c-0.2-0.4-0.8-0.3-0.4-0.5l3.5-1.7c0.4-0.2,0.9,0,1.1,0.4l0,0
						c0.2,0.4,0,0.9-0.4,1.1L47.2,688.5z"/>
					<path class="st15" d="M46.1,686.2l-10.8-1.5c-1.3-0.2-2.5,0.7-2.7,2s0.7,2.5,2,2.7l10.9,1.5C45.7,689.4,45.9,687.8,46.1,686.2z
						"/>
					<path class="st16" d="M46.1,686.2c-0.2,1.6-0.4,3.1-0.5,4.7l0.7,0.1c1.3,0.2,2.5-0.7,2.7-2s0.6-2.3-0.7-2.5L46.1,686.2z"/>
					<path class="st16" d="M50.8,688.4c-0.3-0.2-0.4-0.7-0.2-1l0,0c0.2-0.3,0.7-0.4,1.1-0.2l3.2,2c0.3,0.2,0.4,0.7,0.2,1l0,0
						c-0.2,0.3-0.7,0.4-1,0.2L50.8,688.4z"/>
					<path class="st16" d="M50,689.4c-0.3-0.2-0.4-0.7-0.2-1l0,0c0.2-0.3,0.7-0.4,1.1-0.2l3.2,2c0.3,0.2,0.4,0.7,0.2,1l0,0
						c-0.2,0.3-0.7,0.4-1,0.2L50,689.4z"/>
					<path class="st16" d="M49.1,690.2c-0.3-0.2-0.4-0.7-0.2-1l0,0c0.2-0.3,0.7-0.4,1.1-0.2l3.2,2.1c0.3,0.2,0.4,0.7,0.2,1l0,0
						c-0.2,0.3-0.7,0.4-1,0.2L49.1,690.2z"/>
					<path class="st16" d="M48.3,690.9c-0.3-0.2-0.4-0.7-0.2-1l0,0c0.2-0.3,0.7-0.4,1.1-0.2l3.2,2.1c0.3,0.2,0.4,0.7,0.2,1l0,0
						c-0.2,0.3-0.7,0.4-1,0.2L48.3,690.9z"/>
				</g>
			</g>
			<polygon class="st21" points="32.2,672.9 31.4,674.3 33.5,676.2 34.6,674.3 			"/>
			<polygon class="st21" points="36.6,672.9 37.4,674.2 35.7,676.2 34.7,674.3 			"/>
		</g>
		<g>
			<g>
				<path class="st15" d="M67.1,688.9c-0.5,1.3-2.1,2-3.4,1.5l0,0c-1.3-0.5-2-2.1-1.5-3.4l4.8-12.1c0.5-1.3,2.1-2,3.4-1.5l0,0
					c1.3,0.5,2.9,2.2,2.2,4.3L67.1,688.9z"/>
				<g>
					<path class="st16" d="M52.5,692.1c1-0.6,1.8-1.5,1.4-2.9l0,0c-0.3-1.5-1.1-1.8-2.6-1.5l-1.3-0.6c-1.5,0.3-2.4,1.8-2.1,3.3l0,0
						c0.3,1.5,1.8,2.4,3.3,2.1C51.3,692.5,51.9,692.5,52.5,692.1z"/>
					<path class="st16" d="M52.4,689.2c0.4,0.2,0.9,0,1.1-0.4l0,0c0.2-0.4,0.8-0.3,0.4-0.4l-3.5-1.9c-0.4-0.2-0.9,0-1.1,0.4l0,0
						c-0.2,0.4,0,0.9,0.4,1.1L52.4,689.2z"/>
					<path class="st15" d="M53.6,687l10.8-1.1c1.3-0.1,2.5,0.8,2.6,2.1s-0.8,2.5-2.1,2.6l-11,1.1C53.8,690.2,53.7,688.6,53.6,687z"
						/>
					<path class="st16" d="M53.6,687c0.1,1.6,0.2,3.2,0.4,4.7l-0.7,0.1c-1.3,0.1-2.5-0.8-2.6-2.1s-0.5-2.3,0.8-2.5L53.6,687z"/>
				</g>
			</g>
			<g>
				<path class="st17" d="M67.8,741.8c0-0.1,0-0.2,0-0.2c-0.1-1.6,2.9-3.2,4.5-3.3h4.4c0.8,0.4,1.1,1,1.2,2.7c0,0.1,0,0.2,0,0.2
					L67.8,741.8z"/>
				<path class="st15" d="M76.7,736.6v1.7c0.1,0.5-0.9,1.2-2.2,1.4c-1.3,0.2-2.4-0.1-2.4-0.5l-0.3-2.6L76.7,736.6z"/>
				<polygon class="st17" points="71.8,736.7 76.7,736.6 77.2,702.5 69.5,705.7 				"/>
			</g>
			<g>
				<path class="st17" d="M75.7,742.2c0-0.1,0-0.2,0-0.2c-0.1-1.7,2.9-3.2,4.5-3.3h4.4c0.8,0.4,1.1,1,1.2,2.7c0,0.1,0,0.2,0,0.2
					L75.7,742.2z"/>
				<path class="st15" d="M84.6,737.1v1.7c0.1,0.5-0.9,1.2-2.2,1.4c-1.3,0.2-2.4-0.1-2.4-0.5l-0.3-2.6L84.6,737.1z"/>
				<polygon class="st17" points="79.7,737.1 84.6,737.1 85,703 76.5,703.8 				"/>
			</g>
			<path class="st16" d="M74.4,673.8c0,1.2,1,2.2,2.2,2.2l0,0c1.2,0,2.2-1,2.2-2.2l-0.1-7.1c0-1.2-1-2.2-2.2-2.2l0,0
				c-1.2,0-2.2,1-2.2,2.2L74.4,673.8z"/>
			<g>
				
					<ellipse transform="matrix(1 -8.455471e-03 8.455471e-03 1 -5.5705 0.6713)" class="st22" cx="76.6" cy="659.1" rx="8.6" ry="8.6"/>
				
					<ellipse transform="matrix(1 -8.468744e-03 8.468744e-03 1 -5.5918 0.6868)" class="st22" cx="78.3" cy="660.6" rx="7.3" ry="9.4"/>
				<path class="st16" d="M69.3,663.9c0,4,3.3,7.2,7.2,7.1l0,0c4,0,7.2-3.3,7.1-7.2v-5c0-4-3.3-7.2-7.2-7.1l0,0
					c-4,0-7.2,3.3-7.1,7.2V663.9z"/>
				<path class="st22" d="M78.2,651.2c-1.7,0-3.3,0.8-4.6,2.1c2.2,4.5,7.4,7.2,11.7,9.3c0.1-0.7,0.2-1.4,0.2-2.1
					C85.6,655.4,82.3,651.2,78.2,651.2z"/>
				
					<ellipse transform="matrix(1 -8.393624e-03 8.393624e-03 1 -5.5555 0.7234)" class="st16" cx="83.4" cy="662.2" rx="1.9" ry="1.9"/>
				<path class="st22" d="M68,659.2c0,0.5,0.1,1.1,0.2,1.6c3.7-2.2,7.2-5,8.3-9c-0.4,0-1.7-0.2-3.2-0.5
					C70.1,652.5,68,655.6,68,659.2z"/>
			</g>
			<path class="st15" d="M82.2,673l-10.3,0.1c-2.6,0-4.7,0-4.7,2.6l0,0c0,2.6,2.2,3,4.8,2.9l10.3-0.1"/>
			<path class="st17" d="M69.4,697.7l-0.2-18.8c0-0.6,0.1-1.2,0.2-1.8l15.2-0.1c0.1,0.6,0.2,1.2,0.2,1.8l0.2,18.8L69.4,697.7z"/>
			<polygon class="st17" points="69.5,705.7 84.7,705.5 85,703 85,697.5 69.4,697.7 			"/>
			<path class="st19" d="M71.5,701.5c-0.4,1.4-1.1,2.7-2,3.6v-3.6H71.5z"/>
			<path class="st19" d="M85,701.4v1.5l-0.2,2c-1.5-0.6-2.7-1.9-3.5-3.5H85z"/>
			<path class="st17" d="M69.2,679.5C69.2,679.6,69.2,679.5,69.2,679.5l0.2,21.4l15.6-0.1l-0.2-22c0-0.1,0-0.3,0-0.4l-0.2-5.3
				c-0.7-0.1-1.6-0.1-2.5-0.1l-10.3,0.1c-0.9,0-1.4,0-2.2,0.1L69.2,679.5z"/>
			<polygon class="st15" points="73.6,673.1 72.5,677.6 73.9,678.7 72.8,679.9 76.2,683.6 			"/>
			<polygon class="st15" points="79.5,673.1 80.8,677.5 79.4,678.6 80.6,679.8 76.2,683.6 			"/>
			<polygon class="st23" points="79.5,673.1 76.2,683.7 73.6,673.1 			"/>
			<path class="st24" d="M76,674c0-0.2,0.1-0.3,0.3-0.3c0.2,0,0.3,0.1,0.3,0.3l0.1,8l-0.5,1.6c0,0,0,0-0.1-0.1l-0.1-0.3L76,674z"/>
			
				<linearGradient id="SVGID_3_" gradientUnits="userSpaceOnUse" x1="154.5772" y1="649.7104" x2="156.1403" y2="649.7104" gradientTransform="matrix(1 -8.500000e-03 -8.500000e-03 -1 -73.5111 1324.9308)">
				<stop  offset="6.046510e-02" style="stop-color:#FFFFFF"/>
				<stop  offset="1" style="stop-color:#E0E0E0"/>
			</linearGradient>
			<circle class="st25" cx="76.3" cy="673.9" r="0.8"/>
			<polygon class="st26" points="78.7,671.7 79.6,673.1 77.5,675 76.3,673.1 			"/>
			<polygon class="st26" points="74.3,671.8 73.5,673.1 75.3,675.1 76.3,673.1 			"/>
			<g>
				<path class="st15" d="M87.6,688.7c0,1.5-1.1,2.6-2.6,2.7l0,0c-1.4,0-2.2-0.6-2.2-2.1L82,675.8c0-1.4,1.1-2.6,2.6-2.7l0,0
					c1.5,0,2.7,1.1,2.7,2.6L87.6,688.7z"/>
				<g>
					<path class="st16" d="M86.1,701.8c-0.4-1.1-1-2-2.5-2.1l0,0c-1.5,0-2.8,1.2-2.9,2.7v0.6c0,1.5,1.2,2.8,2.7,2.9l0,0
						c1.5,0,2.8-1.2,2.9-2.7C86.2,703.1,86.3,702.5,86.1,701.8z"/>
					<path class="st16" d="M81.5,698.6l-0.3,1.8c-0.2,1.3,0.7,2.5,2,2.7s2.5-0.7,2.7-2l0.3-1.9C84.7,698.9,83.1,698.7,81.5,698.6z"
						/>
					<path class="st15" d="M86.2,699.5c-1-0.2-1.9-0.3-3-0.4c-0.6,0-1.2-0.1-1.8-0.2l1.4-10.2c0.2-1.3,1.4-2.2,2.7-2
						c1.3,0.2,2.2,1.4,2,2.7L86.2,699.5z"/>
					<path class="st16" d="M82.5,704.2c0-0.4-0.3-0.8-0.7-0.8l0,0c-0.4,0-0.8,0.3-0.9,0.7l-0.2,2c0,0.4,0.3,0.7,0.7,0.8l0,0
						c0.4,0,0.7-0.3,0.8-0.7L82.5,704.2z"/>
					<path class="st16" d="M83.9,704.8c0-0.4-0.4-0.7-0.8-0.7l0,0c-0.4,0-0.7,0.4-0.7,0.8l-0.1,1.3c0,0.4,0.4,0.7,0.8,0.7l0,0
						c0.4,0,0.7-0.4,0.7-0.8L83.9,704.8z"/>
					<path class="st16" d="M85.2,704.3c-0.1-0.4-0.4-0.6-0.8-0.6l0,0c-0.4,0.1-0.6,0.4-0.6,0.8v1.5c0.1,0.4,0.4,0.6,0.8,0.6l0,0
						c0.4-0.1,0.6-0.4,0.6-0.8V704.3z"/>
					<path class="st16" d="M86.4,703.6c-0.1-0.3-0.4-0.5-0.7-0.5l0,0c-0.3,0.1-0.5,0.4-0.5,0.7v1.6c0.1,0.3,0.4,0.5,0.7,0.5l0,0
						c0.3-0.1,0.5-0.4,0.5-0.7V703.6z"/>
				</g>
			</g>
		</g>
		<path class="st27" d="M48.3,692c-0.2,0.3-0.7,0.4-1,0.2l0,0c-0.3-0.2-0.4-0.7-0.2-1.1l0.3-0.5c0.2-0.3,0.7-0.4,1-0.2l0,0
			c0.3,0.2,0.4,0.7,0.2,1L48.3,692z"/>
		<path class="st27" d="M49.9,688c-0.4,0.1-0.8-0.1-0.9-0.5l0,0c-0.1-0.4,0.1-0.9,0.5-1l0.5-0.2c0.4-0.1,0.8,0.1,0.9,0.5l0,0
			c0.1,0.4-0.1,0.8-0.5,0.9L49.9,688z"/>
		<path class="st27" d="M49.5,692.3c-0.2,0.3-0.7,0.4-1,0.2l0,0c-0.3-0.2-0.4-0.7-0.2-1.1l0.3-0.5c0.2-0.3,0.7-0.4,1-0.2l0,0
			c0.3,0.2,0.4,0.7,0.2,1L49.5,692.3z"/>
		<path class="st27" d="M50.7,692.6c-0.2,0.3-0.7,0.4-1,0.2l0,0c-0.3-0.2-0.4-0.7-0.2-1.1l0.3-0.5c0.2-0.3,0.7-0.4,1-0.2l0,0
			c0.3,0.2,0.4,0.7,0.2,1L50.7,692.6z"/>
		<path class="st27" d="M51.9,692.7c-0.2,0.3-0.7,0.4-1,0.2l0,0c-0.3-0.2-0.4-0.7-0.2-1.1l0.3-0.5c0.2-0.3,0.7-0.4,1-0.2l0,0
			c0.3,0.2,0.4,0.7,0.2,1L51.9,692.7z"/>
		<path class="st15" d="M32.1,697.9c-0.1,0.3-0.4,0.5-0.8,0.4l-3.6-1.1c-0.3-0.1-0.5-0.4-0.4-0.8l0,0c0.1-0.3,0.4-0.5,0.8-0.4
			l3.6,1.1C32.1,697.2,32.2,697.6,32.1,697.9L32.1,697.9z"/>
		<path class="st15" d="M41.9,696l-3.2,1.1c-0.3,0.1-0.5,0.4-0.4,0.8c0.1,0.3,0.4,0.5,0.8,0.4l2.8-0.9L41.9,696z"/>
	</g>
</g>
<rect x="115.7" y="699.9" class="st6" width="38.7" height="2"/>
<rect x="9.7" y="771.5" class="st1" width="300" height="120"/>
<text transform="matrix(1 0 0 1 115.6694 822.2899)" class="st6 st2 st9">02</text>
<rect x="115.7" y="844" class="st5" width="185.7" height="33.9"/>
<text transform="matrix(1 0 0 1 115.6694 856.0067)" class="st6 st7 st8">Заявете демо среда</text>
<rect x="115.7" y="829.9" class="st6" width="38.7" height="2"/>
<g>
	
		<ellipse transform="matrix(0.9998 -2.062267e-02 2.062267e-02 0.9998 -18.1106 1.4263)" class="st14" cx="60.1" cy="878.8" rx="17.9" ry="5.1"/>
	<g>
		<g>
			<path class="st15" d="M60.3,818.7c0.8,1.4,0.2,3.1-1.2,3.9l0,0c-1.4,0.8-2.5,0.5-3.2-0.9l-7.5-12.8c-0.8-1.4-0.2-3.1,1.2-3.9l0,0
				c1.4-0.8,3.1-0.2,3.9,1.2L60.3,818.7z"/>
			<g>
				<path class="st16" d="M44.9,819.5c-1.4,0.2-2.4,1.5-2.3,2.9l0,0c0.2,1.4,1.5,2.4,2.9,2.3l12.8-1.5c1.4-0.2,2.4-1.5,2.3-2.9l0,0
					c-0.2-1.4-1.5-2.4-2.9-2.3L44.9,819.5z"/>
				<path class="st15" d="M47.1,824.4c0-1.1-0.2-2.1-0.4-3.2c-0.1-0.6-0.2-1.3-0.3-1.9l11.2-1.3c1.4-0.2,2.7,0.8,2.9,2.3
					c0.2,1.4-0.8,2.7-2.3,2.9L47.1,824.4z"/>
			</g>
		</g>
		<g>
			<path class="st17" d="M50,879.8c0-0.1,0-0.2,0-0.3c-0.1-1.8,3.2-3.5,4.8-3.6h4.8c0.9,0.5,1.3,1.1,1.4,2.9c0,0.1,0,0.2,0,0.3
				L50,879.8z"/>
			<path class="st15" d="M59.7,874l0.1,1.8c0.1,0.6-1,1.4-2.4,1.6c-1.4,0.2-2.6-0.1-2.7-0.5l-0.4-2.8L59.7,874z"/>
			<polygon class="st28" points="54.4,874.1 59.7,874 59.7,836.7 51.4,840.2 			"/>
		</g>
		<g>
			<path class="st17" d="M58.7,880.2c0-0.1,0-0.2,0-0.3c-0.1-1.8,3.2-3.5,4.9-3.6h4.8c0.9,0.5,1.3,1.1,1.4,2.9c0,0.1,0,0.2,0,0.3
				L58.7,880.2z"/>
			<path class="st15" d="M68.4,874.4l0.1,1.8c0.1,0.6-1,1.4-2.4,1.6c-1.4,0.2-2.6-0.1-2.7-0.5l-0.4-2.8L68.4,874.4z"/>
			<polygon class="st28" points="63,874.5 68.4,874.4 68.4,837.1 59,838.1 			"/>
		</g>
		<path class="st16" d="M56.3,805.3c0,1.3,1.1,2.4,2.5,2.4l0,0c1.3,0,2.4-1.1,2.4-2.5l-0.2-7.8c0-1.3-1.1-2.4-2.5-2.4l0,0
			c-1.3,0-2.4,1.1-2.4,2.5L56.3,805.3z"/>
		<path class="st15" d="M64.8,804.4l-11.3,0.2c-2.9,0.1-5.2,0-5.1,2.9l0,0c0.1,2.9,2.4,3.2,5.3,3.1l11.3-0.2"/>
		<path class="st17" d="M51.2,831.5L50.8,811c0-0.7,0.1-1.3,0.2-1.9l16.6-0.3c0.2,0.6,0.3,1.3,0.3,1.9l0.4,20.5L51.2,831.5z"/>
		<polygon class="st28" points="51.4,840.2 68.1,839.9 68.4,837.1 68.2,831.1 51.2,831.5 		"/>
		<path class="st28" d="M50.8,811.6C50.8,811.7,50.8,811.6,50.8,811.6l0.5,23.4l17.1-0.4l-0.5-24.1c0-0.2,0-0.3,0-0.5l-0.3-5.8
			c-0.8-0.1-1.7-0.1-2.7,0l-11.3,0.2c-1,0-1.6,0-2.4,0.2L50.8,811.6z"/>
		<polygon class="st17" points="51.2,833.4 51.3,835.1 68.3,834.7 68.3,833 		"/>
		<path class="st16" d="M44.7,824.9c1.1-0.7,1.9-1.6,1.5-3.2l0,0c-0.4-1.6-2-2.7-3.6-2.3l-0.6,0.1c-1.6,0.4-2.7,2-2.3,3.6l0,0
			c0.4,1.6,2,2.7,3.6,2.3C43.4,825.4,44,825.4,44.7,824.9z"/>
		
			<linearGradient id="SVGID_4_" gradientUnits="userSpaceOnUse" x1="103.1915" y1="674.132" x2="112.9424" y2="674.132" gradientTransform="matrix(0.5402 -0.5069 -0.6844 -0.7291 446.9107 1365.9198)">
			<stop  offset="6.046510e-02" style="stop-color:#FFFFFF"/>
			<stop  offset="1" style="stop-color:#E0E0E0"/>
		</linearGradient>
		<polygon class="st29" points="52.9,824.3 46.6,827.5 36.5,817 40,810.2 		"/>
		<path class="st16" d="M41.6,821.7c0.4-0.1,0.7-0.5,0.7-0.9l0,0c-0.1-0.4-0.5-0.8-1-0.7l-2.1,0.3c-0.4,0.1-0.7,0.5-0.7,0.9l0,0
			c0.1,0.4,0.5,0.7,0.9,0.7L41.6,821.7z"/>
		<path class="st16" d="M41.6,823.2c0.4-0.1,0.6-0.6,0.5-1l0,0c-0.1-0.4-0.6-0.6-1-0.5l-1.4,0.3c-0.4,0.1-0.6,0.6-0.5,1l0,0
			c0.1,0.4,0.6,0.6,1,0.5L41.6,823.2z"/>
		<path class="st16" d="M42.5,824.3c0.4-0.2,0.5-0.6,0.4-1l0,0c-0.2-0.4-0.6-0.5-1-0.4l-1.6,0.5c-0.4,0.2-0.5,0.6-0.4,1l0,0
			c0.2,0.4,0.6,0.5,1,0.4L42.5,824.3z"/>
		<path class="st16" d="M43.3,825.5c0.3-0.2,0.5-0.6,0.3-0.9l0,0c-0.2-0.3-0.6-0.5-0.9-0.3l-1.6,0.5c-0.3,0.2-0.5,0.6-0.3,0.9l0,0
			c0.2,0.3,0.6,0.5,0.9,0.3L43.3,825.5z"/>
		<polygon class="st15" points="55.5,804.6 54.3,809.5 55.9,810.7 54.6,812 58.5,816 		"/>
		<polygon class="st15" points="61.9,804.4 63.4,809.3 61.9,810.5 63.2,811.8 58.4,816 		"/>
		<polygon class="st20" points="61.9,804.4 58.4,816.1 55.5,804.6 		"/>
		<path class="st15" d="M58.1,805.5c0-0.2,0.1-0.3,0.3-0.4c0.2,0,0.4,0.1,0.4,0.3l0.2,8.7l-0.5,1.8c0,0,0,0-0.1-0.1l-0.1-0.3
			L58.1,805.5z"/>
		
			<ellipse transform="matrix(0.9998 -2.100232e-02 2.100232e-02 0.9998 -16.9027 1.4063)" class="st15" cx="58.5" cy="805.4" rx="0.9" ry="0.9"/>
		<polygon class="st21" points="61.1,803 62,804.4 59.7,806.6 58.4,804.5 		"/>
		<polygon class="st21" points="56.3,803.1 55.4,804.6 57.4,806.7 58.4,804.5 		"/>
		<g>
			
				<ellipse transform="matrix(0.9569 -0.2905 0.2905 0.9569 -227.4011 49.9977)" class="st18" cx="54.7" cy="790.9" rx="9.4" ry="9.4"/>
			
				<ellipse transform="matrix(0.9568 -0.2906 0.2906 0.9568 -227.6576 50.7681)" class="st18" cx="57.1" cy="791.9" rx="8" ry="10.3"/>
			<path class="st16" d="M48.6,798.2c1.3,4.2,5.7,6.5,9.8,5.2l0,0c4.2-1.3,6.5-5.6,5.2-9.8l-1.6-5.2c-1.3-4.2-5.7-6.5-9.8-5.2l0,0
				c-4.2,1.3-6.5,5.6-5.2,9.8L48.6,798.2z"/>
			<ellipse transform="matrix(0.9568 -0.2908 0.2908 0.9568 -227.5998 52.5111)" class="st16" cx="62.9" cy="792" rx="2" ry="2"/>
			<path class="st18" d="M45.8,788c0.8-0.5,5.3-5.8,6.2-6.1c5-1.5,10.2,1.3,11.7,6.2c0.2,0.5,0.3,1,0.3,1.5
				C58.2,790.8,50.8,791.9,45.8,788z"/>
		</g>
		<g>
			<g>
				<path class="st17" d="M52.4,813.8c0.1,0.4-0.2,0.8-0.6,0.9l0,0c-0.4,0.1-0.8-0.2-0.9-0.6l-1.4-8c-0.1-0.4,0.2-0.8,0.6-0.9l0,0
					c0.4-0.1,0.8,0.2,0.9,0.6L52.4,813.8z"/>
				<path class="st17" d="M52.8,814.3c0.1,0.6-0.3,1.2-0.9,1.3l0,0c-0.6,0.1-1.2-0.3-1.3-0.9l-0.9-4.9c-0.1-0.6,0.3-1.2,0.9-1.3l0,0
					c0.6-0.1,1.2,0.3,1.3,0.9L52.8,814.3z"/>
				<path class="st17" d="M48.8,797.4c-2.4,0.4-4,2.7-3.6,5.1c0.4,2.4,2.7,4,5.1,3.6c2.4-0.4,4-2.7,3.6-5.1
					C53.5,798.6,51.2,797,48.8,797.4z M50.1,805.1c-1.8,0.3-3.5-0.9-3.8-2.7s0.9-3.5,2.7-3.8s3.5,0.9,3.8,2.7
					C53.1,803,51.9,804.7,50.1,805.1z"/>
			</g>
			<path class="st15" d="M67.7,821.6c-0.3,1.6-1.8,2.6-3.4,2.3l0,0c-1.6-0.3-2.6-1.8-2.3-3.4l2.7-14c0.3-1.6,1.8-2.6,3.4-2.3l0,0
				c1.6,0.3,3.5,1.8,3.2,4.2L67.7,821.6z"/>
			<g>
				<path class="st16" d="M52.5,815.7c1.2,0.2,2.5,0.2,3.4-1.3l0,0c0.9-1.4,0.5-2.2-1-3.1l-0.6-1.4c-1.4-0.9-3.3-0.4-4.2,1l0,0
					c-0.9,1.4-0.4,3.3,1,4.2C51.1,815.1,51.6,815.5,52.5,815.7z"/>
				<path class="st16" d="M54.2,812.7c0.2,0.5,0.7,0.7,1.2,0.5l0,0c0.5-0.2,0.8,0.4,0.7-0.1l-1.3-4.1c-0.2-0.5-0.7-0.7-1.2-0.5l0,0
					c-0.5,0.2-0.7,0.7-0.5,1.2L54.2,812.7z"/>
				<path class="st15" d="M57.1,812.4l9.5,7.3c1.1,0.9,1.4,2.5,0.5,3.6s-2.5,1.4-3.6,0.5l-9.6-7.4C54.9,815.1,56,813.8,57.1,812.4z"
					/>
				<path class="st16" d="M57.1,812.4c-1.1,1.3-2.2,2.7-3.3,4l-0.6-0.5c-1.1-0.9-1.4-2.5-0.5-3.6s1.4-2.2,2.5-1.4L57.1,812.4z"/>
				<path class="st16" d="M53,811c0.4-0.1,0.7-0.5,0.7-0.9l0,0c-0.1-0.4-0.5-0.8-1-0.7l-4.1,0.5c-0.4,0.1-0.7,0.5-0.7,0.9l0,0
					c0.1,0.4,0.5,0.7,0.9,0.7L53,811z"/>
				<path class="st16" d="M53.3,812.4c0.4-0.1,0.7-0.5,0.7-0.9l0,0c-0.1-0.4-0.5-0.8-1-0.7l-4.1,0.5c-0.4,0.1-0.7,0.5-0.7,0.9l0,0
					c0.1,0.4,0.5,0.7,0.9,0.7L53.3,812.4z"/>
				<path class="st16" d="M53.8,813.6c0.4-0.1,0.7-0.5,0.7-0.9l0,0c-0.1-0.4-0.5-0.8-1-0.7l-4.1,0.5c-0.4,0.1-0.7,0.5-0.7,0.9l0,0
					c0.1,0.4,0.5,0.7,0.9,0.7L53.8,813.6z"/>
				<path class="st16" d="M54.3,814.7c0.4-0.1,0.7-0.5,0.7-0.9l0,0c-0.1-0.4-0.5-0.8-1-0.7l-4.1,0.5c-0.4,0.1-0.7,0.5-0.7,0.9l0,0
					c0.1,0.4,0.5,0.7,0.9,0.7L54.3,814.7z"/>
			</g>
		</g>
	</g>
</g>
<rect x="9.7" y="1033.5" class="st13" width="300" height="120"/>
<text transform="matrix(1 0 0 1 115.6694 1084.2373)" class="st6 st2 st9">04</text>
<rect x="115.7" y="1106" class="st5" width="185.7" height="33.9"/>
<text transform="matrix(1 0 0 1 115.6694 1117.9541)" class="st6 st7 st8">Заявете демо тур в </text>
<text transform="matrix(1 0 0 1 115.6694 1134.7542)" class="st6 st7 st8">центровете ни за облаци</text>
<rect x="115.7" y="1091.8" class="st6" width="38.7" height="2"/>
<rect x="9.7" y="902.4" class="st11" width="300" height="120"/>
<text transform="matrix(1 0 0 1 115.6694 953.1406)" class="st6 st2 st9">03</text>
<rect x="115.7" y="974.9" class="st5" width="185.7" height="33.9"/>
<text transform="matrix(1 0 0 1 115.6694 986.8574)" class="st6 st7 st8">Разберете какво бихте </text>
<text transform="matrix(1 0 0 1 115.6694 1003.6574)" class="st6 st7 st8">спечелили</text>
<rect x="115.7" y="960.7" class="st6" width="38.7" height="2"/>
<g>
	<path class="st30" d="M25.4,955.9l1.1,28.6c0.4,10.6,15.9,18.6,34.5,17.9c18.6-0.7,33.4-10,33-20.6l-1.1-28.5L25.4,955.9z"/>
	<path class="st31" d="M80.5,998c0.7-0.3,1.3-0.6,1.9-0.9L81.3,969l-2,0.1L80.5,998z"/>
	<path class="st31" d="M29.3,991.6c0.3,0.4,0.6,0.8,1,1.2l-1.2-29.2h-0.9L29.3,991.6z"/>
	<path class="st31" d="M92.3,953c0.5,12.6-13.5,23.4-31.2,24.1c-13.1,0.5-26-4.1-31.9-11.5c-2.1-2.6-3-5.4-3.1-8.7
		c-0.5-12.6,15.4-24.7,33.2-25.4C77,930.8,91.8,940.4,92.3,953z"/>
	<path class="st26" d="M65.4,931.7L60,948.9l21.4,22.3c10.1-6.2,13.6-15.4,10.4-23.5C88.3,939,77.5,933,65.4,931.7z"/>
	<path class="st26" d="M58.3,931.5c-14.7,0.6-28.8,8.1-32.1,18.9c-1.4,4.6-0.8,9.4,2.1,13.9l29.9-15.5l5.7-17.1
		C62,931.5,60.1,931.4,58.3,931.5z"/>
	<path class="st26" d="M29.2,965.6c5.9,7.5,17.6,12.2,30.9,11.7c7.1-0.3,13.8-2,19.4-5L58.7,950L29.2,965.6z"/>
	<g class="st32">
		<path class="st6" d="M58.1,948.7c0,0,0.3-1.1,0.8-2.7c0.5-1.6,1.2-3.8,1.9-5.9c0.7-2.1,1.5-4.3,2-5.9c0.6-1.6,1-2.7,1-2.7
			s-0.3,1.1-0.8,2.7c-0.5,1.6-1.2,3.8-1.9,5.9c-0.7,2.1-1.5,4.3-2,5.9C58.5,947.6,58.1,948.7,58.1,948.7z"/>
	</g>
	<g class="st32">
		<path class="st6" d="M60,948.9c0,0,0.3-1.1,0.8-2.7c0.5-1.6,1.1-3.8,1.8-5.9c0.7-2.1,1.4-4.3,1.9-5.9c0.5-1.6,0.9-2.7,0.9-2.7
			s-0.3,1.1-0.8,2.7c-0.5,1.6-1.1,3.8-1.8,5.9c-0.7,2.1-1.4,4.3-1.9,5.9C60.4,947.9,60,948.9,60,948.9z"/>
	</g>
	<g class="st32">
		<path class="st33" d="M58.7,950c0,0,1.3,1.4,3.3,3.4c2,2.1,4.6,4.9,7.2,7.6c2.6,2.8,5.2,5.6,7.1,7.7c1.9,2.1,3.2,3.5,3.2,3.5
			s-1.3-1.4-3.3-3.4c-2-2.1-4.6-4.9-7.2-7.6c-2.6-2.8-5.2-5.6-7.1-7.7C60,951.4,58.7,950,58.7,950z"/>
	</g>
	<g class="st32">
		<path class="st6" d="M81.4,971.2c0,0-1.4-1.4-3.4-3.4c-2-2.1-4.7-4.9-7.4-7.6c-2.7-2.8-5.3-5.6-7.3-7.7c-2-2.1-3.3-3.5-3.3-3.5
			s1.4,1.4,3.4,3.4c2,2.1,4.7,4.9,7.4,7.6c2.7,2.8,5.3,5.6,7.3,7.7C80,969.8,81.4,971.2,81.4,971.2z"/>
	</g>
	<g class="st32">
		<path class="st6" d="M58.1,948.7c0,0-1.9,1-4.6,2.5c-2.8,1.5-6.5,3.4-10.2,5.4c-3.7,1.9-7.5,3.8-10.3,5.3
			c-2.8,1.4-4.7,2.4-4.7,2.4s1.9-1,4.6-2.5c2.8-1.5,6.5-3.4,10.2-5.4c3.7-1.9,7.5-3.8,10.3-5.3C56.2,949.7,58.1,948.7,58.1,948.7z"
			/>
	</g>
	<g class="st32">
		<path class="st33" d="M29.2,965.6c0,0,1.8-1,4.6-2.5s6.4-3.4,10.1-5.4c3.7-1.9,7.4-3.9,10.2-5.3c2.8-1.4,4.6-2.4,4.6-2.4
			s-1.8,1-4.6,2.5s-6.4,3.4-10.1,5.4c-3.7,1.9-7.4,3.9-10.2,5.3C31.1,964.7,29.2,965.6,29.2,965.6z"/>
	</g>
</g>
<g>
	<g>
		<g>
			<path class="st15" d="M84.9,1082.9c-0.1,1.5,1,2.8,2.4,3l0,0c1.5,0.1,2.8-1,3-2.4l1.3-13.4c0.1-1.5-1-2.8-2.4-3l0,0
				c-1.5-0.1-3.7,0.7-4.1,2.9L84.9,1082.9z"/>
			<g>
				<path class="st16" d="M85.3,1097.2c0.5-1.1,1.3-2,2.9-1.8l0,0c1.6,0.1,2,0.9,1.8,2.5l0.7,1.2c-0.1,1.6-1.5,2.7-3.1,2.6l0,0
					c-1.6-0.1-2.7-1.5-2.6-3.1C85,1098.5,85,1097.9,85.3,1097.2z"/>
				<path class="st16" d="M88.3,1097c-0.2-0.4-0.1-0.9,0.3-1.2l0,0c0.4-0.2,0.2-0.9,0.4-0.5l2.4,3.3c0.2,0.4,0.1,0.9-0.3,1.2l0,0
					c-0.4,0.2-0.9,0.1-1.2-0.3L88.3,1097z"/>
				<path class="st15" d="M90.4,1095.5l-0.2-11.3c0-1.4-1.1-2.4-2.5-2.4s-2.5,1.1-2.4,2.5l0.2,11.4
					C87.2,1095.6,88.8,1095.6,90.4,1095.5z"/>
				<path class="st16" d="M90.4,1095.5c-1.6,0.1-3.3,0.1-4.9,0.2v0.8c0,1.4,1.1,2.4,2.5,2.4s2.5,0.2,2.4-1.1V1095.5z"/>
				<path class="st27" d="M86,1101.6c-0.3,0.3-0.3,0.8-0.1,1.1l0,0c0.3,0.3,0.8,0.4,1.1,0.1l0.5-0.4c0.3-0.3,0.3-0.7,0.1-1.1l0,0
					c-0.3-0.3-0.8-0.3-1.1-0.1L86,1101.6z"/>
				<path class="st27" d="M89.9,1099.4c-0.1,0.4,0.2,0.8,0.6,0.9l0,0c0.4,0.1,0.9-0.2,0.9-0.6l0.1-0.6c0.1-0.4-0.2-0.8-0.6-0.9l0,0
					c-0.4-0.1-0.8,0.2-0.9,0.6L89.9,1099.4z"/>
				<path class="st27" d="M85.5,1100.4c-0.3,0.3-0.3,0.8-0.1,1.1l0,0c0.3,0.3,0.8,0.4,1.1,0.1l0.5-0.4c0.3-0.3,0.3-0.7,0.1-1.1l0,0
					c-0.3-0.3-0.8-0.3-1.1-0.1L85.5,1100.4z"/>
				<path class="st27" d="M85,1099.1c-0.3,0.3-0.3,0.8-0.1,1.1l0,0c0.3,0.3,0.8,0.4,1.1,0.1l0.5-0.4c0.3-0.3,0.3-0.8,0.1-1.1l0,0
					c-0.3-0.3-0.8-0.3-1.1-0.1L85,1099.1z"/>
				<path class="st27" d="M84.8,1098c-0.3,0.3-0.3,0.8-0.1,1.1l0,0c0.3,0.3,0.8,0.4,1.1,0.1l0.5-0.4c0.3-0.3,0.3-0.8,0.1-1.1l0,0
					c-0.3-0.3-0.8-0.3-1.1-0.1L84.8,1098z"/>
			</g>
		</g>
		<g>
			<path class="st17" d="M89.9,1138.2c0-0.1,0-0.2,0-0.2c0.1-1.7-3-3.3-4.6-3.4h-4.6c-0.8,0.4-1.2,1-1.3,2.7c0,0.1,0,0.2,0,0.2
				L89.9,1138.2z"/>
			<path class="st15" d="M80.7,1132.7l-0.1,1.7c-0.1,0.6,0.9,1.3,2.2,1.5c1.3,0.2,2.4-0.1,2.5-0.4l0.4-2.7L80.7,1132.7z"/>
			<polygon class="st17" points="85.8,1132.8 80.7,1132.7 80.7,1097.3 88.6,1100.7 			"/>
		</g>
		<g>
			<path class="st17" d="M81.7,1138.5c0-0.1,0-0.2,0-0.2c0.1-1.7-3-3.3-4.6-3.4h-4.6c-0.8,0.4-1.2,1-1.3,2.7c0,0.1,0,0.2,0,0.2
				L81.7,1138.5z"/>
			<path class="st15" d="M72.5,1133.1l-0.1,1.7c-0.1,0.6,0.9,1.3,2.2,1.5c1.3,0.2,2.4-0.1,2.5-0.4l0.4-2.7L72.5,1133.1z"/>
			<polygon class="st17" points="77.6,1133.2 72.5,1133.1 72.5,1097.6 81.4,1098.7 			"/>
		</g>
		<path class="st16" d="M84,1067.6c0,1.3-1.1,2.3-2.3,2.2l0,0c-1.3,0-2.3-1.1-2.2-2.3l0.2-7.4c0-1.3,1.1-2.3,2.3-2.2l0,0
			c1.3,0,2.3,1.1,2.2,2.3L84,1067.6z"/>
		<g>
			
				<ellipse transform="matrix(2.085361e-02 -0.9998 0.9998 2.085361e-02 -971.759 1112.738)" class="st34" cx="82.2" cy="1052.5" rx="8.9" ry="8.9"/>
			
				<ellipse transform="matrix(2.084174e-02 -0.9998 0.9998 2.084174e-02 -971.5835 1116.1097)" class="st34" cx="84" cy="1054.1" rx="9.7" ry="7.5"/>
			<path class="st16" d="M74.6,1057.2c-0.1,4.1,3.2,7.5,7.3,7.6l0,0c4.1,0.1,7.5-3.2,7.6-7.3l0.1-5.2c0.1-4.1-3.2-7.5-7.3-7.6l0,0
				c-4.1-0.1-7.5,3.2-7.6,7.3L74.6,1057.2z"/>
			<path class="st34" d="M84.2,1044.3c-1.8,0-3.5,0.7-4.8,2.1c2.1,4.7,7.5,7.7,11.9,10c0.1-0.7,0.2-1.4,0.2-2.2
				C91.7,1048.8,88.4,1044.4,84.2,1044.3z"/>
			
				<ellipse transform="matrix(2.130879e-02 -0.9998 0.9998 2.130879e-02 -968.16 1122.6669)" class="st16" cx="89.3" cy="1055.8" rx="1.9" ry="1.9"/>
			<path class="st34" d="M73.4,1052.3c0,0.6,0,1.1,0.1,1.6c3.9-2.1,7.6-5,8.9-9.1c-0.4,0-1.8-0.3-3.3-0.6
				C75.8,1045.4,73.4,1048.5,73.4,1052.3z"/>
		</g>
		<path class="st15" d="M75.9,1066.6l10.7,0.2c2.7,0.1,4.9,0,4.9,2.7l0,0c-0.1,2.7-2.3,3-5,3l-10.7-0.2"/>
		<path class="st17" d="M88.8,1092.4l0.4-19.5c0-0.6-0.1-1.2-0.2-1.8l-15.7-0.3c-0.2,0.6-0.2,1.2-0.3,1.8l-0.4,19.5L88.8,1092.4z"/>
		<polygon class="st17" points="88.6,1100.7 72.8,1100.3 72.5,1097.6 72.6,1092 88.8,1092.4 		"/>
		<path class="st19" d="M86.6,1096.4c0.4,1.5,1.1,2.8,2.1,3.8l0.1-3.7L86.6,1096.4z"/>
		<path class="st19" d="M72.6,1096.1v1.6l0.2,2.1c1.5-0.6,2.8-1.9,3.7-3.6L72.6,1096.1z"/>
		<path class="st17" d="M89.2,1073.5C89.2,1073.6,89.2,1073.5,89.2,1073.5l-0.5,22.2l-16.2-0.3l0.5-22.8c0-0.1,0-0.3,0-0.4l0.3-5.5
			c0.7-0.1,1.6-0.1,2.5,0l10.7,0.2c1,0,1.5,0,2.2,0.2L89.2,1073.5z"/>
		<polygon class="st15" points="84.7,1066.8 85.9,1071.5 84.4,1072.6 85.6,1073.9 81.9,1077.7 		"/>
		<polygon class="st15" points="78.7,1066.7 77.2,1071.3 78.7,1072.5 77.5,1073.7 82,1077.7 		"/>
		<polygon class="st23" points="78.7,1066.7 82,1077.8 84.7,1066.8 		"/>
		<path class="st24" d="M82.3,1067.8c0-0.2-0.1-0.3-0.3-0.3c-0.2,0-0.3,0.1-0.3,0.3l-0.2,8.3l0.5,1.7c0,0,0,0,0.1-0.1l0.1-0.3
			L82.3,1067.8z"/>
		
			<linearGradient id="SVGID_5_" gradientUnits="userSpaceOnUse" x1="741.3398" y1="234.1038" x2="742.9625" y2="234.1038" gradientTransform="matrix(-0.9998 -2.090000e-02 2.090000e-02 -0.9998 819.0517 1317.1688)">
			<stop  offset="6.046510e-02" style="stop-color:#FFFFFF"/>
			<stop  offset="1" style="stop-color:#E0E0E0"/>
		</linearGradient>
		<circle class="st35" cx="81.9" cy="1067.6" r="0.8"/>
		<polygon class="st26" points="79.5,1065.3 78.6,1066.7 80.8,1068.8 82,1066.8 		"/>
		<polygon class="st26" points="84,1065.4 84.8,1066.8 83,1068.8 82,1066.8 		"/>
	</g>
	<g>
		<path class="st26" d="M52.8,1074.5c-12-0.3-21.8,9.2-22.1,21.2c-0.2,11.9,20.8,38.9,20.8,38.9s22.2-26.1,22.4-38
			C74.2,1084.6,64.7,1074.7,52.8,1074.5z M52,1109.8c-8.1-0.2-14.6-6.9-14.4-15c0.2-8.1,6.9-14.6,15-14.4s14.6,6.9,14.4,15
			C66.9,1103.5,60.1,1109.9,52,1109.8z"/>
		<g class="st32">
			<g>
				<path class="st6" d="M73.9,1096.5c0,0,0-0.3,0-0.8s0-1.2-0.2-2.1c-0.1-0.5-0.1-1-0.2-1.5s-0.3-1.1-0.4-1.8
					c-0.2-0.6-0.4-1.3-0.7-1.9c-0.2-0.7-0.6-1.4-0.9-2.1c-0.4-0.7-0.8-1.4-1.3-2.1s-1-1.4-1.6-2.1c-1.2-1.4-2.6-2.7-4.2-3.8
					c-1.6-1.1-3.5-2-5.5-2.7c-2-0.6-4.1-0.9-6.2-1c-2.1,0-4.2,0.2-6.2,0.8c-2,0.6-3.9,1.4-5.6,2.4c-1.7,1.1-3.2,2.3-4.4,3.6
					c-0.7,0.6-1.2,1.4-1.7,2c-0.5,0.7-0.9,1.4-1.3,2.1c-0.3,0.7-0.7,1.4-1,2c-0.3,0.7-0.5,1.3-0.7,1.9s-0.3,1.2-0.5,1.7
					c-0.1,0.5-0.2,1.1-0.3,1.5c-0.2,0.9-0.2,1.6-0.2,2.1s-0.1,0.8-0.1,0.8s0-0.3,0-0.8c0.1-0.5,0-1.2,0.2-2.1c0.1-0.5,0.2-1,0.3-1.5
					c0.1-0.5,0.3-1.1,0.5-1.8c0.2-0.6,0.5-1.3,0.7-1.9c0.3-0.7,0.7-1.3,1-2.1c0.4-0.7,0.8-1.4,1.3-2.1s1-1.4,1.7-2.1
					c1.2-1.4,2.7-2.6,4.4-3.7s3.6-1.9,5.6-2.5s4.2-0.8,6.3-0.8c2.1,0.1,4.3,0.4,6.3,1.1s3.9,1.6,5.5,2.7c1.6,1.2,3.1,2.4,4.3,3.9
					c0.6,0.7,1.1,1.4,1.6,2.1s0.9,1.5,1.3,2.2c0.3,0.7,0.7,1.4,0.9,2.1c0.2,0.7,0.5,1.3,0.6,2c0.1,0.6,0.3,1.2,0.4,1.8
					c0.1,0.6,0.1,1.1,0.2,1.5c0.2,0.9,0.1,1.7,0.1,2.2C73.9,1096.3,73.9,1096.5,73.9,1096.5z"/>
			</g>
		</g>
		<g class="st32">
			<path class="st6" d="M37.6,1094.8c0,0,0-0.2,0-0.5s0-0.8,0.1-1.5c0.1-0.3,0.1-0.7,0.2-1c0.1-0.4,0.2-0.8,0.3-1.2
				c0.1-0.4,0.3-0.9,0.5-1.3c0.2-0.5,0.4-0.9,0.7-1.4c0.6-0.9,1.2-1.9,2.1-2.8c0.8-0.9,1.9-1.8,3-2.5s2.5-1.3,3.8-1.7
				c1.4-0.4,2.8-0.6,4.3-0.6c1.4,0.1,2.9,0.3,4.3,0.7c1.3,0.5,2.6,1.1,3.8,1.9c1.1,0.8,2.1,1.7,2.9,2.6c0.8,0.9,1.4,2,1.9,2.9
				c0.2,0.5,0.5,1,0.6,1.4c0.1,0.5,0.3,0.9,0.4,1.3s0.2,0.8,0.3,1.2c0,0.4,0.1,0.7,0.1,1c0.1,0.6,0.1,1.1,0.1,1.5c0,0.3,0,0.5,0,0.5
				s0-0.2,0-0.5s0-0.8-0.1-1.5c0-0.3-0.1-0.7-0.2-1c-0.1-0.4-0.2-0.8-0.3-1.2c-0.2-0.8-0.6-1.8-1.1-2.7c-0.5-0.9-1.1-1.9-2-2.9
				c-0.8-1-1.8-1.8-2.9-2.6c-1.1-0.8-2.4-1.4-3.7-1.8s-2.8-0.6-4.2-0.7c-1.4,0-2.9,0.1-4.2,0.5s-2.6,0.9-3.8,1.7
				c-1.1,0.7-2.2,1.5-3,2.5c-0.9,0.9-1.5,1.9-2.1,2.8c-0.2,0.5-0.5,0.9-0.7,1.4s-0.4,0.9-0.5,1.3s-0.2,0.8-0.3,1.2
				c-0.1,0.4-0.1,0.7-0.2,1c-0.1,0.6-0.1,1.1-0.2,1.5C37.6,1094.6,37.6,1094.8,37.6,1094.8z"/>
		</g>
	</g>
	<g>
		<path class="st15" d="M56.7,1073.3c-1.6,1.1,0.1,1,0.7,2.4l0,0c0.6,1.4,1.5,1.8,2.9,1.2l13-5.2c1.4-0.6,2-2.2,1.4-3.6l0,0
			c-0.6-1.4-2.2-2-3.6-1.4C71.2,1066.8,60,1071.1,56.7,1073.3z"/>
		<g>
			<path class="st16" d="M69.6,1081.8c-0.9-0.8-1.5-1.8-0.9-3.3l0,0c0.6-1.5,2.3-2.1,3.8-1.5l0.5,0.2c1.5,0.6,2.1,2.3,1.5,3.8l0,0
				c-0.6,1.5-2.3,2.1-3.8,1.5C70.8,1082.5,70.2,1082.3,69.6,1081.8z"/>
			<path class="st16" d="M68.6,1076.1l1.8,0.6c1.3,0.4,2,1.8,1.6,3.1c-0.4,1.3-1.8,2-3.1,1.6l-1.9-0.6
				C67.5,1079.2,68,1077.6,68.6,1076.1z"/>
			<path class="st15" d="M67.5,1080.9c0.2-1,0.6-1.9,1-2.9c0.2-0.6,0.4-1.2,0.6-1.8l-10.2-3.2c-1.3-0.4-2.7,0.3-3.1,1.6
				c-0.4,1.3,0.3,2.7,1.6,3.1L67.5,1080.9z"/>
			<path class="st16" d="M73.4,1079.5c-0.4-0.1-0.6-0.6-0.4-1l0,0c0.1-0.4,0.6-0.6,1-0.5l1.9,0.7c0.4,0.1,0.6,0.6,0.4,1l0,0
				c-0.1,0.4-0.6,0.6-1,0.4L73.4,1079.5z"/>
			<path class="st16" d="M73.4,1081.1c-0.4-0.2-0.5-0.7-0.3-1l0,0c0.2-0.4,0.7-0.5,1-0.3l1.3,0.5c0.4,0.2,0.5,0.7,0.3,1l0,0
				c-0.2,0.4-0.7,0.5-1,0.3L73.4,1081.1z"/>
			<path class="st16" d="M72.4,1082.1c-0.3-0.2-0.4-0.7-0.2-1l0,0c0.2-0.3,0.7-0.4,1-0.2l1.4,0.7c0.3,0.2,0.4,0.7,0.2,1l0,0
				c-0.2,0.3-0.7,0.4-1,0.2L72.4,1082.1z"/>
			<path class="st16" d="M71.2,1082.9c-0.3-0.2-0.3-0.6-0.1-0.9l0,0c0.2-0.3,0.6-0.3,0.9-0.1l1.4,0.7c0.3,0.2,0.3,0.6,0.1,0.9l0,0
				c-0.2,0.3-0.6,0.3-0.9,0.1L71.2,1082.9z"/>
		</g>
	</g>
</g>
<rect x="9.7" y="1164.6" class="st1" width="300" height="120"/>
<text transform="matrix(1 0 0 1 115.6694 1215.3628)" class="st6 st2 st9">05</text>
<rect x="115.7" y="1237.1" class="st5" width="185.7" height="33.9"/>
<text transform="matrix(1 0 0 1 115.6694 1249.0796)" class="st6 st7 st8">Вижте нашия детайлен </text>
<text transform="matrix(1 0 0 1 115.6694 1265.8796)" class="st6 st7 st8">продуктов каталог</text>
<rect x="115.7" y="1223" class="st6" width="38.7" height="2"/>
<g>
	
		<ellipse transform="matrix(0.9994 -3.576155e-02 3.576155e-02 0.9994 -45.1126 2.5384)" class="st14" cx="48.4" cy="1262.3" rx="18.9" ry="4.7"/>
	<g>
		
			<linearGradient id="SVGID_6_" gradientUnits="userSpaceOnUse" x1="-31.0943" y1="18.2816" x2="-29.5468" y2="18.2816" gradientTransform="matrix(0.9994 -3.580000e-02 -3.580000e-02 -0.9994 62.7338 1249.9628)">
			<stop  offset="6.046510e-02" style="stop-color:#FFFFFF"/>
			<stop  offset="1" style="stop-color:#E0E0E0"/>
		</linearGradient>
		<polygon class="st36" points="32.8,1240.9 31.3,1240.9 30.7,1224.7 32.3,1224.6 		"/>
		
			<linearGradient id="SVGID_7_" gradientUnits="userSpaceOnUse" x1="-23.9412" y1="-0.2297" x2="-22.6278" y2="-0.2297" gradientTransform="matrix(0.9994 -3.580000e-02 -3.580000e-02 -0.9994 62.7338 1249.9628)">
			<stop  offset="6.046510e-02" style="stop-color:#FFFFFF"/>
			<stop  offset="1" style="stop-color:#E0E0E0"/>
		</linearGradient>
		<polygon class="st37" points="40.4,1259.9 39.1,1260 38.5,1242.1 39.8,1242.1 		"/>
		
			<linearGradient id="SVGID_8_" gradientUnits="userSpaceOnUse" x1="-31.7578" y1="-8.6624" x2="-14.8126" y2="-8.6624" gradientTransform="matrix(0.9994 -3.580000e-02 -3.580000e-02 -0.9994 62.7338 1249.9628)">
			<stop  offset="6.046510e-02" style="stop-color:#FFFFFF"/>
			<stop  offset="1" style="stop-color:#E0E0E0"/>
		</linearGradient>
		<polygon class="st38" points="31.3,1260.3 31.3,1259.3 48.2,1258.6 48.3,1259.7 		"/>
		
			<linearGradient id="SVGID_9_" gradientUnits="userSpaceOnUse" x1="-31.9536" y1="10.2132" x2="-15.0848" y2="10.2132" gradientTransform="matrix(0.9994 -3.580000e-02 -3.580000e-02 -0.9994 62.7338 1249.9628)">
			<stop  offset="6.046510e-02" style="stop-color:#FFFFFF"/>
			<stop  offset="1" style="stop-color:#E0E0E0"/>
		</linearGradient>
		<path class="st39" d="M47.3,1241.2c0,0.7-0.5,1.2-1.2,1.2l-14.5,0.5c-0.7,0-1.2-0.5-1.2-1.2l-0.1-1.7c0-0.7,0.5-1.2,1.2-1.2
			l14.5-0.5c0.7,0,1.2,0.5,1.2,1.2L47.3,1241.2z"/>
		
			<linearGradient id="SVGID_10_" gradientUnits="userSpaceOnUse" x1="-33.4637" y1="29.6631" x2="-28.8268" y2="29.6631" gradientTransform="matrix(0.9994 -3.580000e-02 -3.580000e-02 -0.9994 62.7338 1249.9628)">
			<stop  offset="6.046510e-02" style="stop-color:#FFFFFF"/>
			<stop  offset="1" style="stop-color:#E0E0E0"/>
		</linearGradient>
		<path class="st40" d="M33,1226c-2.6,0.1-4.7-1.9-4.8-4.5c-0.1-2.6,1.9-4.7,4.5-4.8L33,1226z"/>
		
			<linearGradient id="SVGID_11_" gradientUnits="userSpaceOnUse" x1="-28.8276" y1="29.4203" x2="-26.4895" y2="29.4203" gradientTransform="matrix(0.9994 -3.580000e-02 -3.580000e-02 -0.9994 62.7338 1249.9628)">
			<stop  offset="6.046510e-02" style="stop-color:#FFFFFF"/>
			<stop  offset="1" style="stop-color:#E0E0E0"/>
		</linearGradient>
		<path class="st41" d="M34.3,1214c0.4,0,0.7,0.3,0.7,0.7l0.5,13.7c0,0.4-0.3,0.7-0.7,0.7h-1c-0.4,0-0.7-0.3-0.7-0.7l-0.5-13.7
			c0-0.4,0.3-0.7,0.7-0.7H34.3z"/>
		
			<linearGradient id="SVGID_12_" gradientUnits="userSpaceOnUse" x1="-33.6081" y1="-10.7075" x2="-29.9069" y2="-10.7075" gradientTransform="matrix(0.9994 -3.580000e-02 -3.580000e-02 -0.9994 62.7338 1249.9628)">
			<stop  offset="6.046510e-02" style="stop-color:#FFFFFF"/>
			<stop  offset="1" style="stop-color:#E0E0E0"/>
		</linearGradient>
		<circle class="st42" cx="31.4" cy="1261.8" r="1.9"/>
		
			<linearGradient id="SVGID_13_" gradientUnits="userSpaceOnUse" x1="-16.6627" y1="-10.7128" x2="-12.9621" y2="-10.7128" gradientTransform="matrix(0.9994 -3.580000e-02 -3.580000e-02 -0.9994 62.7338 1249.9628)">
			<stop  offset="6.046510e-02" style="stop-color:#FFFFFF"/>
			<stop  offset="1" style="stop-color:#E0E0E0"/>
		</linearGradient>
		<circle class="st43" cx="48.3" cy="1261.2" r="1.9"/>
		
			<linearGradient id="SVGID_14_" gradientUnits="userSpaceOnUse" x1="-25.1311" y1="-10.7084" x2="-21.4315" y2="-10.7084" gradientTransform="matrix(0.9994 -3.580000e-02 -3.580000e-02 -0.9994 62.7338 1249.9628)">
			<stop  offset="6.046510e-02" style="stop-color:#FFFFFF"/>
			<stop  offset="1" style="stop-color:#E0E0E0"/>
		</linearGradient>
		<circle class="st44" cx="39.8" cy="1261.5" r="1.8"/>
	</g>
	<g>
		<polygon class="st45" points="49.9,1238.7 45,1238.9 44.9,1234.2 49.7,1233.8 		"/>
		<g>
			<path class="st27" d="M58.2,1225.9c-0.3-0.7-0.1-1.2,0.6-2l0,0c0.8-0.8,2-0.8,2.8,0l0.3,0.3c0.8,0.8,0.8,2,0,2.8l0,0
				c-0.8,0.8-2,0.8-2.8,0C59.1,1227,58.4,1226.4,58.2,1225.9z"/>
			<path class="st45" d="M53,1220.9c0.7,0.8,1,1.7,0.3,2.4l0,0c-0.7,0.8-1.9,0.8-2.6,0.1l-8.1-9.2c0.1-0.1,0.1-1.3,0.7-1.9l1.1-0.1
				c0.7,0.1,0.2,0.9,0.9,1.4l3.9,0.9L53,1220.9z"/>
			<path class="st45" d="M60.2,1223.3c0.9,0.3,0.2,0.9-0.1,1.7l0,0c-0.3,0.9-1.3,1.3-2.1,1l-6.4-2.1c-0.9-0.3-1.3-1.3-1-2.1l0,0
				c0.3-0.9,1.3-1.3,2.1-1L60.2,1223.3z"/>
			<path class="st27" d="M61.7,1225.6c-0.2-0.2-0.2-0.5-0.1-0.7l0,0c0.2-0.2,0.3-0.4,0.6-0.2l1.8,1.3c0.2,0.2,0.2,0.5,0.1,0.7l0,0
				c-0.2,0.2-0.5,0.2-0.7,0L61.7,1225.6z"/>
			<path class="st27" d="M61.3,1226.6c-0.2-0.2-0.2-0.5,0.1-0.7l0,0c0.2-0.2,0.5-0.2,0.7,0.1l0.7,0.6c0.2,0.2,0.2,0.5-0.1,0.7l0,0
				c-0.2,0.2-0.5,0.2-0.7-0.1L61.3,1226.6z"/>
			<path class="st27" d="M60.4,1227c-0.1-0.2-0.1-0.5,0.1-0.7l0,0c0.2-0.2,0.5-0.1,0.7,0.1l0.7,0.8c0.2,0.2,0.1,0.5-0.1,0.7l0,0
				c-0.2,0.2-0.5,0.1-0.7-0.1L60.4,1227z"/>
			<path class="st27" d="M59.5,1227.3c-0.1-0.2-0.1-0.5,0.1-0.6l0,0c0.2-0.1,0.5-0.1,0.6,0.1l0.7,0.8c0.1,0.2,0.1,0.5-0.1,0.6l0,0
				c-0.2,0.1-0.5,0.1-0.6-0.1L59.5,1227.3z"/>
		</g>
		<path class="st46" d="M66.6,1226c0,0.4-0.3,0.7-0.6,0.7l-8.3,0.3c-0.4,0-0.7-0.3-0.7-0.6l0,0c0-0.4,0.3-0.7,0.6-0.7l8.3-0.3
			C66.3,1225.3,66.6,1225.6,66.6,1226L66.6,1226z"/>
		<path class="st15" d="M62.4,1260.9c0-0.1,0-0.1,0-0.2c0.2-1.4-2.5-3-4-3.2l-4.1-0.3c-0.8,0.3-1.1,0.8-1.3,2.2c0,0.1,0,0.1,0,0.2
			L62.4,1260.9z"/>
		<path class="st45" d="M44,1213.1c0.2,1.7,0.5,3.3,0.9,5c0,0.1,0.1,0.3,0.1,0.4c2.6-0.5,4.4-1.7,4.4-3
			C49.4,1214.1,47.1,1213.2,44,1213.1z"/>
		<path class="st28" d="M48.1,1216c-0.3-0.7-0.5-1.4-0.6-2.1c0-0.1,0-0.2,0-0.3c-1.2-0.4-2.9-0.6-4.7-0.6c-0.7,0-1.4,0.1-2,0.2
			c0.2,0.5,0.3,1,0.3,1.5c0,0.1-0.1,0.2-0.1,0.2c-0.4,1.4-1.7,2-2.3,3.1l-0.2,0.1c1.2,0.4,2.9,0.5,4.6,0.5c2.3-0.1,4.3-0.6,5.5-1.4
			C48.4,1216.8,48.3,1216.4,48.1,1216z"/>
		<path class="st45" d="M59.3,1239.1c1,0.2,1.7,1.2,1.5,2.3l0,0c-0.2,1-1.2,1.7-2.3,1.5l-13.4-2.8c-1-0.2-1.7-1.2-1.5-2.3l0,0
			c0.2-1,1.3-3.2,2.3-3L59.3,1239.1z"/>
		<path class="st45" d="M57.8,1258.2c-0.1,0.2-1,0.5-2,0.3l0,0c-1.1-0.2-1.9-0.9-1.7-1.2l2.8-16.4c0.2-1.1,1.2-1.7,2.3-1.5l0,0
			c1.1,0.2,1.7,1.2,1.5,2.3L57.8,1258.2z"/>
		<path class="st21" d="M54.4,1255.3l-0.4,1.9c-0.1,0.4,0.7,1,1.7,1.2c1.1,0.2,2,0,2-0.3l0.4-2.2L54.4,1255.3z"/>
		<path class="st19" d="M44.1,1217.1c-0.2-0.9-0.4-1.8-0.5-2.8l-1.9-1.2c-1.8,0.1-5.6,1.4-5.5,3.4s0.9,4.4,2.7,4.3l5.8-1.9
			C44.4,1218.4,44.3,1217.8,44.1,1217.1z"/>
		<path class="st45" d="M46.2,1214.3l-2,0.1c0.2,1.2,0.4,2.5,0.8,3.7c0.1,0.2,0.1,0.5,0.2,0.7l1.2-0.4c1.8-0.1,3.3-0.4,3.2-2.3
			C49.5,1214.1,48.1,1214.2,46.2,1214.3z"/>
		<path class="st15" d="M59.5,1262.3c0-0.1,0-0.1,0-0.2c0.2-1.4-2.5-3-4-3.2l-4.1-0.3c-0.8,0.3-1.1,0.8-1.3,2.2c0,0.1,0,0.1,0,0.2
			L59.5,1262.3z"/>
		<path class="st28" d="M55.6,1239.4c1.1,0.1,1.9,1.1,1.8,2.3l0,0c-0.1,1.1-1.1,1.9-2.3,1.8l-8.4-1.7c-1.1-0.1-1.9-1.1-1.8-2.3l0,0
			c0.1-1.1,1.1-1.9,2.3-1.8L55.6,1239.4z"/>
		<path class="st28" d="M55.5,1259.3c0,0.2-1,0.6-2.1,0.5l0,0c-1.1-0.1-2.1-0.7-2-1.2l1.9-17.3c0.1-1.1,1.1-2,2.3-1.8l0,0
			c1.1,0.1,2,1.1,1.8,2.3L55.5,1259.3z"/>
		<path class="st21" d="M51.7,1256.6l-0.2,2c0,0.5,0.8,1,2,1.2c1.1,0.1,2.1-0.2,2.1-0.5l0.2-2.3L51.7,1256.6z"/>
		<path class="st28" d="M52.9,1238.9c0,0,0-1.2-1.5,3.9c-2.7-0.5-5.2-0.7-5.9-0.9c-1.3-0.3-3.4-0.5-4.9-1.9c-4-3.6,1.9-9.2,5-8.7
			c2.3,0.4,1,1.9,1.7,4.3C48,1237.9,51.1,1238.4,52.9,1238.9z"/>
		<path class="st28" d="M48.5,1218.2c0,0.1,0,0.2,0,0.3l1.3,17.6l-10.5,0.7c0,0-0.9-14.8-1.4-16.3c3.1-0.2-1-5.5,2.9-7.3
			c0.1-0.1,1,1,1.2,1l4.5-0.2c0.4,0,0.6-0.3,1-0.3C47.5,1213.7,48.4,1214.8,48.5,1218.2z"/>
		<g>
			<path class="st16" d="M45.9,1213.4c0,1.2,0,2.2-1.2,2.2l0,0c-1.1,0-2.9-0.9-2.9-2.1l-0.7-8.4c-0.1-1.4,1.1-2.6,2.5-2.6l0,0
				c1.4,0,2.6,1.1,2.6,2.5L45.9,1213.4z"/>
			<g>
				
					<ellipse transform="matrix(0.9994 -3.584213e-02 3.584213e-02 0.9994 -43.017 2.3165)" class="st18" cx="43.1" cy="1201" rx="7.1" ry="7.1"/>
				<path class="st16" d="M50.1,1205.2c0.1,3.5-3.4,6.9-6.2,7l0,0c-2.8,0.1-6.3-3.1-6.4-6.6l-0.2-4.4c-0.1-3.5,2.6-6.4,6.1-6.5l0,0
					c3.5-0.1,6.4,2.6,6.5,6.1L50.1,1205.2z"/>
				<path class="st47" d="M42.4,1203.6c0,0.4-0.3,0.7-0.7,0.8l0,0c-0.4,0-0.7-0.3-0.8-0.7v-1.1c0-0.4,0.3-0.7,0.7-0.8l0,0
					c0.4,0,0.7,0.3,0.8,0.7V1203.6z"/>
				<path class="st47" d="M48.1,1203.4c0,0.4-0.3,0.7-0.7,0.8l0,0c-0.4,0-0.7-0.3-0.8-0.7v-1.1c0-0.4,0.3-0.7,0.7-0.8l0,0
					c0.4,0,0.7,0.3,0.8,0.7V1203.4z"/>
				
					<ellipse transform="matrix(0.9994 -3.542449e-02 3.542449e-02 0.9994 -42.6392 2.0914)" class="st16" cx="37.7" cy="1204.3" rx="1.6" ry="1.6"/>
				<path class="st16" d="M50.1,1205.2c0.1,3.5-3.4,6.9-6.2,7l0,0c-2.8,0.1-6.3-3.1-6.4-6.6l-0.2-4.4c-0.1-3.5,2.6-6.4,6.1-6.5l0,0
					c3.5-0.1,6.4,2.6,6.5,6.1L50.1,1205.2z"/>
				<path class="st47" d="M42.4,1203.6c0,0.4-0.3,0.7-0.7,0.8l0,0c-0.4,0-0.7-0.3-0.8-0.7v-1.1c0-0.4,0.3-0.7,0.7-0.8l0,0
					c0.4,0,0.7,0.3,0.8,0.7V1203.6z"/>
				<path class="st47" d="M48.1,1203.4c0,0.4-0.3,0.7-0.7,0.8l0,0c-0.4,0-0.7-0.3-0.8-0.7v-1.1c0-0.4,0.3-0.7,0.7-0.8l0,0
					c0.4,0,0.7,0.3,0.8,0.7V1203.4z"/>
				
					<ellipse transform="matrix(0.9994 -3.542449e-02 3.542449e-02 0.9994 -42.6392 2.0914)" class="st16" cx="37.7" cy="1204.3" rx="1.6" ry="1.6"/>
				<path class="st16" d="M50.1,1205.2c0.1,3.5-3.4,6.9-6.2,7l0,0c-2.8,0.1-6.3-3.1-6.4-6.6l-0.2-4.4c-0.1-3.5,2.6-6.4,6.1-6.5l0,0
					c3.5-0.1,6.4,2.6,6.5,6.1L50.1,1205.2z"/>
				
					<ellipse transform="matrix(0.9994 -3.542449e-02 3.542449e-02 0.9994 -42.6392 2.0914)" class="st16" cx="37.7" cy="1204.3" rx="1.6" ry="1.6"/>
				<path class="st18" d="M44.3,1201.6c-4,0.1-7.1-0.4-8.2-2.1c0.6-2,1.8-3.6,3.6-4.5c1.3-0.4,2.8-0.7,4.4-0.7c0.2,0,0.4,0,0.6,0
					c3.1,0.6,5.4,3.2,5.8,5.6C49,1200.7,46.8,1201.6,44.3,1201.6z"/>
				<path class="st18" d="M37.4,1204.4c0,0.3,0.3,0.5,0.5,0.5l0,0c0.3,0,0.5-0.3,0.5-0.5l-0.1-3.9c0-0.3-0.3-0.5-0.5-0.5l0,0
					c-0.3,0-0.5,0.3-0.5,0.5L37.4,1204.4z"/>
			</g>
		</g>
		<polygon class="st15" points="46.7,1213.6 48.1,1217.3 46.9,1218.4 48,1219.3 45.4,1222.9 		"/>
		<polygon class="st15" points="41.7,1214 40.1,1217.4 42.2,1218.8 41.3,1219.9 45.4,1222.9 		"/>
		<polygon class="st20" points="41.7,1214 45.4,1222.9 46.7,1213.6 		"/>
		<path class="st15" d="M44.7,1214.6c0-0.1-0.1-0.3-0.3-0.2c-0.2,0-0.3,0.1-0.2,0.3l0.6,6.9l0.6,1.4c0,0,0,0,0-0.1v-0.3L44.7,1214.6
			z"/>
		
			<ellipse transform="matrix(0.996 -8.972197e-02 8.972197e-02 0.996 -108.7922 8.8824)" class="st15" cx="44.4" cy="1214.5" rx="0.7" ry="0.7"/>
		<polygon class="st21" points="41.8,1212.6 41.6,1214 43.6,1215.6 44.4,1213.8 		"/>
		<polygon class="st21" points="46,1212.5 46.8,1213.6 45.4,1215.4 44.4,1213.8 		"/>
		<g>
			<path class="st16" d="M55.1,1226.2c-0.5-0.6-0.4-1.1,0.1-2.1l0,0c0.5-0.9,1.7-1.3,2.7-0.7l0.3,0.2c0.9,0.5,1.3,1.7,0.7,2.7l0,0
				c-0.5,0.9-1.7,1.3-2.7,0.7C56.2,1227,55.4,1226.6,55.1,1226.2z"/>
			<path class="st19" d="M48.8,1222.7c0.8,0.6,1.4,1.4,0.9,2.3l0,0c-0.5,0.9-1.6,1.2-2.5,0.8l-9.4-5.2c0-0.1-1-3-0.6-3.7l0.8-1.3
				c0.7-0.1,0.4-0.6,1.1-0.2L48.8,1222.7z"/>
			<path class="st19" d="M56.4,1223.2c0.9,0.1,0.4,0.8,0.3,1.7l0,0c-0.1,0.9-0.9,1.6-1.8,1.5l-6.8-0.4c-0.9-0.1-1.6-0.9-1.5-1.8l0,0
				c0.1-0.9,0.9-1.6,1.8-1.5L56.4,1223.2z"/>
			<path class="st16" d="M58.4,1225c-0.3-0.1-0.4-0.4-0.2-0.7l0,0c0.1-0.3,0.2-0.5,0.5-0.4l2.1,0.8c0.3,0.1,0.4,0.4,0.2,0.7l0,0
				c-0.1,0.3-0.4,0.4-0.7,0.2L58.4,1225z"/>
			<path class="st16" d="M58.3,1226.1c-0.2-0.2-0.3-0.5-0.1-0.7l0,0c0.2-0.2,0.5-0.3,0.7-0.1l0.8,0.4c0.2,0.2,0.3,0.5,0.1,0.7l0,0
				c-0.2,0.2-0.5,0.3-0.7,0.1L58.3,1226.1z"/>
			<path class="st16" d="M57.5,1226.7c-0.2-0.2-0.2-0.5,0-0.7l0,0c0.2-0.2,0.5-0.2,0.7,0l0.9,0.6c0.2,0.2,0.2,0.5,0,0.7l0,0
				c-0.2,0.2-0.5,0.2-0.7,0L57.5,1226.7z"/>
			<path class="st16" d="M56.7,1227.2c-0.2-0.2-0.2-0.4,0-0.6l0,0c0.2-0.2,0.4-0.2,0.6,0l0.9,0.6c0.2,0.2,0.2,0.4,0,0.6l0,0
				c-0.2,0.2-0.4,0.2-0.6,0L56.7,1227.2z"/>
		</g>
	</g>
	<g>
		<g>
			
				<linearGradient id="SVGID_15_" gradientUnits="userSpaceOnUse" x1="-7.9753" y1="21.6849" x2="43.886" y2="21.6849" gradientTransform="matrix(0.9994 -3.580000e-02 -3.580000e-02 -0.9994 62.7338 1249.9628)">
				<stop  offset="6.046510e-02" style="stop-color:#FFFFFF"/>
				<stop  offset="1" style="stop-color:#E0E0E0"/>
			</linearGradient>
			<path class="st48" d="M105.8,1226.7c0,0.8-0.6,1.5-1.4,1.5l-49,1.8c-0.8,0-1.4-0.6-1.5-1.4l0,0c0-0.8,0.6-1.5,1.4-1.5l49-1.8
				C105.1,1225.3,105.8,1225.9,105.8,1226.7L105.8,1226.7z"/>
			<g>
				
					<linearGradient id="SVGID_16_" gradientUnits="userSpaceOnUse" x1="-4.469" y1="3.1908" x2="-2.6375" y2="3.1908" gradientTransform="matrix(0.9994 -3.580000e-02 -3.580000e-02 -0.9994 62.7338 1249.9628)">
					<stop  offset="6.046510e-02" style="stop-color:#FFFFFF"/>
					<stop  offset="1" style="stop-color:#E0E0E0"/>
				</linearGradient>
				<polygon class="st49" points="58.8,1264.2 60.6,1264.1 59.4,1229.6 57.5,1229.7 				"/>
				
					<linearGradient id="SVGID_17_" gradientUnits="userSpaceOnUse" x1="38.5455" y1="5.4866" x2="40.3772" y2="5.4866" gradientTransform="matrix(0.9994 -3.580000e-02 -3.580000e-02 -0.9994 62.7338 1249.9628)">
					<stop  offset="6.046510e-02" style="stop-color:#FFFFFF"/>
					<stop  offset="1" style="stop-color:#E0E0E0"/>
				</linearGradient>
				<polygon class="st50" points="100.5,1228.1 101.6,1258.1 103.3,1254.9 102.4,1228.1 				"/>
			</g>
			<g class="st51">
				
					<rect x="57.6" y="1229.6" transform="matrix(0.9994 -3.532186e-02 3.532186e-02 0.9994 -43.467 2.8349)" class="st33" width="1.8" height="4"/>
				
					<rect x="100.6" y="1228.1" transform="matrix(0.9994 -3.569080e-02 3.569080e-02 0.9994 -43.8402 4.4065)" class="st33" width="1.8" height="4"/>
			</g>
		</g>
		<path class="st52" d="M91.2,1220.5v-0.5l-5.1,0.2l0.2,4.2c0,0.8,0.7,1.5,1.5,1.4l2.2-0.1c0.6,0,1.1-0.4,1.3-1h0.1
			c1.2,0,2.1-1,2.1-2.2C93.4,1221.4,92.4,1220.4,91.2,1220.5z M91.3,1224l-0.1-2.7c0.7,0,1.4,0.5,1.4,1.3
			C92.6,1223.3,92,1223.9,91.3,1224z"/>
		<g>
			<path class="st53" d="M80.7,1224.9c0.1,0.3-0.1,0.6-0.4,0.6l0,0c-0.3,0.1-0.6-0.1-0.6-0.4l-3.6-13.4c-0.1-0.3,0.1-0.6,0.4-0.6
				l0,0c0.3-0.1,0.6,0.1,0.6,0.4L80.7,1224.9z"/>
			<path class="st46" d="M75.4,1205.2c1.7,0.2,2.9,2.5,2.6,5.2s-1.9,4.8-3.7,4.6L75.4,1205.2z"/>
			<polygon class="st52" points="79,1209.9 79,1209.9 79,1209.9 79,1209.9 79,1209.9 79,1209.9 79,1209.9 			"/>
			<path class="st46" d="M84.4,1225.3c0,0.4-0.3,0.7-0.6,0.7l-8.3,0.3c-0.4,0-0.7-0.3-0.7-0.6l0,0c0-0.4,0.3-0.7,0.6-0.7l8.3-0.3
				C84,1224.6,84.3,1224.9,84.4,1225.3L84.4,1225.3z"/>
			<path class="st53" d="M74.5,1219.6c0,0.3-0.3,0.6-0.7,0.5l0,0c-0.3,0-0.6-0.3-0.5-0.7l2.1-18.9c0-0.3,0.3-0.6,0.7-0.5l0,0
				c0.3,0,0.6,0.3,0.5,0.7L74.5,1219.6z"/>
		</g>
	</g>
</g>
<rect x="9.7" y="563.1" class="st5" width="225.3" height="80.8"/>
<text transform="matrix(1 0 0 1 9.6699 588.8525)" class="st6 st2 st3">Какво правим </text>
<text transform="matrix(1 0 0 1 9.6699 618.8525)" class="st6 st2 st3">за вас</text>
</svg>
